%FSLAX24Y24*%
%MOIN*%
G70*
G01*
G75*
%ADD10R,0.0500X0.0600*%
%ADD11R,0.0320X0.0950*%
%ADD12R,0.0360X0.0360*%
%ADD13R,0.0600X0.0500*%
%ADD14R,0.0360X0.0500*%
%ADD15C,0.0200*%
%ADD16C,0.0150*%
%ADD17C,0.0300*%
%ADD18R,0.1000X0.6600*%
%ADD19R,0.0600X0.0700*%
%ADD20O,0.0600X0.0700*%
%ADD21C,0.0700*%
%ADD22C,0.1500*%
%ADD23R,0.0700X0.0700*%
%ADD24C,0.1280*%
%ADD25O,0.0600X0.0750*%
%ADD26R,0.0800X0.0800*%
%ADD27C,0.0800*%
%ADD28R,0.0650X0.0650*%
%ADD29C,0.0500*%
%ADD30C,0.0400*%
%ADD31C,0.0550*%
%ADD32C,0.0450*%
%ADD33C,0.0120*%
%ADD34C,0.0500*%
%ADD35C,0.0400*%
%ADD36R,0.1000X0.3500*%
%ADD37C,0.0100*%
%ADD38C,0.0079*%
%ADD39C,0.0080*%
%ADD40C,0.0000*%
%ADD41R,0.0580X0.0680*%
%ADD42R,0.0400X0.1030*%
%ADD43R,0.0440X0.0440*%
%ADD44R,0.0680X0.0580*%
%ADD45R,0.0440X0.0580*%
%ADD46R,0.0680X0.0780*%
%ADD47O,0.0680X0.0780*%
%ADD48C,0.0780*%
%ADD49C,0.1580*%
%ADD50R,0.0780X0.0780*%
%ADD51C,0.1360*%
%ADD52O,0.0680X0.0830*%
%ADD53R,0.0880X0.0880*%
%ADD54C,0.0880*%
%ADD55R,0.0730X0.0730*%
%ADD56C,0.0580*%
%ADD57C,0.0480*%
%ADD58C,0.0630*%
%ADD59C,0.0530*%
D16*
X134200Y82000D02*
Y82400D01*
Y82200D01*
X134800D01*
Y82600D02*
X134200D01*
X134400Y82800D01*
X134200Y83000D01*
X134800D01*
Y83200D02*
X134400D01*
X134200Y83400D01*
X134400Y83599D01*
X134800D01*
X134500D01*
Y83200D01*
X134300Y84199D02*
X134200Y84099D01*
Y83899D01*
X134300Y83799D01*
X134400D01*
X134500Y83899D01*
Y84099D01*
X134600Y84199D01*
X134700D01*
X134800Y84099D01*
Y83899D01*
X134700Y83799D01*
X134200Y84399D02*
X134800D01*
X134600D01*
X134200Y84799D01*
X134500Y84499D01*
X134800Y84799D01*
D41*
X131700Y95400D02*
D03*
Y94500D02*
D03*
X107800Y89600D02*
D03*
Y90500D02*
D03*
X114500Y89600D02*
D03*
Y90500D02*
D03*
X129300Y94500D02*
D03*
X131700Y93200D02*
D03*
X125300Y94500D02*
D03*
X131700Y92300D02*
D03*
X118300Y89600D02*
D03*
X109000D02*
D03*
X118300Y90500D02*
D03*
X129300Y95400D02*
D03*
X125300D02*
D03*
X109000Y90500D02*
D03*
X124100Y94500D02*
D03*
X107900Y78600D02*
D03*
X124100Y95400D02*
D03*
X107900Y79500D02*
D03*
X130500Y95400D02*
D03*
Y94500D02*
D03*
D42*
X116100Y89000D02*
D03*
X117100D02*
D03*
X115600Y90969D02*
D03*
X116100D02*
D03*
X116600D02*
D03*
X117100D02*
D03*
X115600Y89000D02*
D03*
X116600D02*
D03*
X110600Y84000D02*
D03*
X111600D02*
D03*
X110100Y85969D02*
D03*
X110600D02*
D03*
X111100D02*
D03*
X111600D02*
D03*
X110100Y84000D02*
D03*
X111100D02*
D03*
X127900Y95969D02*
D03*
X127400D02*
D03*
X126900D02*
D03*
X111100Y89000D02*
D03*
X110600D02*
D03*
X127900Y94000D02*
D03*
X126400Y95969D02*
D03*
X110100Y89000D02*
D03*
X126400Y94000D02*
D03*
X110100Y90969D02*
D03*
X111100D02*
D03*
X110600D02*
D03*
X127400Y94000D02*
D03*
X126900D02*
D03*
X111600Y90969D02*
D03*
Y89000D02*
D03*
D43*
X123000Y93700D02*
D03*
X113700Y85700D02*
D03*
X117650Y85000D02*
D03*
X114450Y85700D02*
D03*
X122250Y93700D02*
D03*
X116900Y85000D02*
D03*
D44*
X115900Y92500D02*
D03*
X116800D02*
D03*
X130500Y97600D02*
D03*
Y99700D02*
D03*
X131400D02*
D03*
Y97600D02*
D03*
X111300Y92500D02*
D03*
X110400D02*
D03*
X123900Y99400D02*
D03*
X123000D02*
D03*
D45*
X122620Y92900D02*
D03*
X114080Y86500D02*
D03*
X117280Y85800D02*
D03*
D46*
X110100Y77500D02*
D03*
D47*
X111100D02*
D03*
X112100Y77500D02*
D03*
X113100D02*
D03*
X114100D02*
D03*
X115100Y77500D02*
D03*
X116100D02*
D03*
X117100Y77500D02*
D03*
X117100Y80500D02*
D03*
X116100D02*
D03*
X115100Y80500D02*
D03*
X114100D02*
D03*
X113100Y80500D02*
D03*
X112100Y80500D02*
D03*
X111100D02*
D03*
X110100D02*
D03*
D48*
X107900Y84311D02*
D03*
Y85689D02*
D03*
X118990Y69300D02*
D03*
X121170D02*
D03*
X122260D02*
D03*
X123350D02*
D03*
X118450Y70300D02*
D03*
X120630D02*
D03*
X119540Y70300D02*
D03*
X117360Y70300D02*
D03*
X116270Y70300D02*
D03*
X121720D02*
D03*
X122810Y70300D02*
D03*
X117900Y69300D02*
D03*
X116810D02*
D03*
X120080D02*
D03*
X107700Y74200D02*
D03*
X122900Y91500D02*
D03*
X130300D02*
D03*
X114100Y82500D02*
D03*
X124100Y97300D02*
D03*
X126900Y91500D02*
D03*
X109600Y74900D02*
D03*
X111900Y73500D02*
D03*
X115200Y74900D02*
D03*
X117000Y74000D02*
D03*
X126350Y99400D02*
D03*
Y98400D02*
D03*
X125350Y99400D02*
D03*
Y98400D02*
D03*
X129050Y99400D02*
D03*
Y98400D02*
D03*
X128050Y99400D02*
D03*
Y98400D02*
D03*
X115600Y82500D02*
D03*
X109100Y72000D02*
D03*
X119500Y88800D02*
D03*
D49*
X113550Y69800D02*
D03*
X126650Y69800D02*
D03*
D50*
X123900Y70300D02*
D03*
D51*
X110850Y98500D02*
D03*
X115350D02*
D03*
D52*
X111850Y96000D02*
D03*
X111400Y95000D02*
D03*
X112350Y95000D02*
D03*
X113850Y96000D02*
D03*
X113350Y95000D02*
D03*
X112850Y96000D02*
D03*
X114850Y96000D02*
D03*
X114350Y95000D02*
D03*
D53*
X123100Y74750D02*
D03*
Y88000D02*
D03*
D54*
X132300Y74750D02*
D03*
Y88000D02*
D03*
D55*
X110600Y74900D02*
D03*
X112900Y73500D02*
D03*
X114200Y74900D02*
D03*
X117000Y73000D02*
D03*
D56*
X122810Y71690D02*
D03*
X121700Y71700D02*
D03*
X121600Y92400D02*
D03*
X116200Y84400D02*
D03*
X131700Y91500D02*
D03*
X107800Y88800D02*
D03*
X107900Y77700D02*
D03*
X113100Y85000D02*
D03*
X117300Y86500D02*
D03*
X114100Y87100D02*
D03*
X129300Y96200D02*
D03*
X127900Y95000D02*
D03*
X123300Y94500D02*
D03*
X111400Y87000D02*
D03*
X110600D02*
D03*
Y82900D02*
D03*
X111400D02*
D03*
X117800Y91600D02*
D03*
X113700Y89600D02*
D03*
X112331Y90969D02*
D03*
D57*
X122300Y95900D02*
D03*
Y94900D02*
D03*
X112700Y87000D02*
D03*
Y88300D02*
D03*
X115600Y88200D02*
D03*
Y86500D02*
D03*
D58*
X116800Y97000D02*
D03*
X121100Y74800D02*
D03*
D59*
X125869Y96669D02*
D03*
M02*
