M72
M48
T1F00S00C0.0200
T2F00S00C0.0280
T3F00S00C0.0350
T4F00S00C0.0380
T5F00S00C0.0420
T6F00S00C0.1100
T7F00S00C0.1285
%
T01
X112700Y087000
Y088300
X115600Y088200
Y086500
X122300Y094900
Y095900
T02
X107900Y077700
X109600Y074900
X110600Y074900
X111900Y073500
X112900Y073500
X114200Y074900
X115200
X117000Y073000
X121100Y074800
X121700Y071700
X122810Y071690
X131700Y091500
X121600Y092400
X117800Y091600
X117300Y086500
X116200Y084400
X113100Y085000
X114100Y087100
X111400Y087000
X110600
Y082900
X111400
X113700Y089600
X112331Y090969
X107800Y088800
X107900Y085689
Y084311
X116800Y097000
X123300Y094500
X125869Y096669
X127900Y095000
X129300Y096200
T03
X110100Y077500
X111100
X112100Y077500
X113100
X114100
X115100Y077500
X116100
X117100Y077500
X117000Y074000
X117100Y080500
X116100
X115100Y080500
X114100
X113100Y080500
X112100Y080500
X111100
X110100
X111400Y095000
X112350Y095000
X113350Y095000
X114350
X113850Y096000
X114850Y096000
X112850Y096000
X111850Y096000
X125350Y098400
X126350Y098400
Y099400
X125350Y099400
X128050
X129050Y099400
Y098400
X128050Y098400
T04
X109100Y072000
X107700Y074200
X123100Y074750
X132300
Y088000
X130300Y091500
X126900
X122900
X123100Y088000
X119500Y088800
X115600Y082500
X114100
X124100Y097300
T05
X116810Y069300
X117900
X118990
X120080
X121170
X122260
X123350
X122810Y070300
X123900Y070300
X121720
X120630Y070300
X119540Y070300
X118450Y070300
X117360
X116270Y070300
T06
X113550Y069800
X126650Y069800
T07
X110850Y098500
X115350
M30
