%FSLAX24Y24*%
%MOIN*%
G70*
G01*
G75*
%ADD10R,0.0500X0.0600*%
%ADD11R,0.0320X0.0950*%
%ADD12R,0.0360X0.0360*%
%ADD13R,0.0600X0.0500*%
%ADD14R,0.0360X0.0500*%
%ADD15C,0.0200*%
%ADD16C,0.0150*%
%ADD17C,0.0300*%
%ADD18R,0.1000X0.6600*%
%ADD19R,0.0600X0.0700*%
%ADD20O,0.0600X0.0700*%
%ADD21C,0.0700*%
%ADD22C,0.1500*%
%ADD23R,0.0700X0.0700*%
%ADD24C,0.1280*%
%ADD25O,0.0600X0.0750*%
%ADD26R,0.0800X0.0800*%
%ADD27C,0.0800*%
%ADD28R,0.0650X0.0650*%
%ADD29C,0.0500*%
%ADD30C,0.0400*%
%ADD31C,0.0550*%
%ADD32C,0.0450*%
%ADD33C,0.0120*%
%ADD34C,0.0500*%
%ADD35C,0.0400*%
%ADD36R,0.1000X0.3500*%
%ADD37C,0.0100*%
%ADD38C,0.0079*%
%ADD39C,0.0080*%
%ADD40C,0.0000*%
%ADD41R,0.0580X0.0680*%
%ADD42R,0.0400X0.1030*%
%ADD43R,0.0440X0.0440*%
%ADD44R,0.0680X0.0580*%
%ADD45R,0.0440X0.0580*%
%ADD46R,0.0680X0.0780*%
%ADD47O,0.0680X0.0780*%
%ADD48C,0.0780*%
%ADD49C,0.1580*%
%ADD50R,0.0780X0.0780*%
%ADD51C,0.1360*%
%ADD52O,0.0680X0.0830*%
%ADD53R,0.0880X0.0880*%
%ADD54C,0.0880*%
%ADD55R,0.0730X0.0730*%
%ADD56C,0.0580*%
%ADD57C,0.0480*%
%ADD58C,0.0630*%
%ADD59C,0.0530*%
%ADD60C,0.0040*%
D39*
X114983Y56650D02*
X114817Y56567D01*
X114650Y56400D01*
Y56233D01*
X114733Y56150D01*
X114900D01*
X114983Y56233D01*
Y56317D01*
X114900Y56400D01*
X114650D01*
X119043Y56150D02*
X118710D01*
X119043Y56483D01*
Y56567D01*
X118960Y56650D01*
X118793D01*
X118710Y56567D01*
X119210D02*
X119293Y56650D01*
X119460D01*
X119543Y56567D01*
Y56233D01*
X119460Y56150D01*
X119293D01*
X119210Y56233D01*
Y56567D01*
X119710Y56150D02*
Y56483D01*
X119793D01*
X119876Y56400D01*
Y56150D01*
Y56400D01*
X119960Y56483D01*
X120043Y56400D01*
Y56150D01*
X120210D02*
X120376D01*
X120293D01*
Y56483D01*
X120210D01*
X120626Y56150D02*
X120793D01*
X120709D01*
Y56650D01*
X120626D01*
X124510Y56567D02*
X124593Y56650D01*
X124760D01*
X124843Y56567D01*
Y56233D01*
X124760Y56150D01*
X124593D01*
X124510Y56233D01*
Y56567D01*
X125010Y56150D02*
Y56233D01*
X125093D01*
Y56150D01*
X125010D01*
X125760Y56650D02*
X125426D01*
Y56400D01*
X125593Y56483D01*
X125676D01*
X125760Y56400D01*
Y56233D01*
X125676Y56150D01*
X125510D01*
X125426Y56233D01*
X125926Y56567D02*
X126010Y56650D01*
X126176D01*
X126259Y56567D01*
Y56233D01*
X126176Y56150D01*
X126010D01*
X125926Y56233D01*
Y56567D01*
X126426D02*
X126509Y56650D01*
X126676D01*
X126759Y56567D01*
Y56483D01*
X126676Y56400D01*
X126759Y56317D01*
Y56233D01*
X126676Y56150D01*
X126509D01*
X126426Y56233D01*
Y56317D01*
X126509Y56400D01*
X126426Y56483D01*
Y56567D01*
X126509Y56400D02*
X126676D01*
X126926Y56150D02*
Y56483D01*
X127009D01*
X127093Y56400D01*
Y56150D01*
Y56400D01*
X127176Y56483D01*
X127259Y56400D01*
Y56150D01*
X127426D02*
Y56483D01*
X127509D01*
X127592Y56400D01*
Y56150D01*
Y56400D01*
X127676Y56483D01*
X127759Y56400D01*
Y56150D01*
X130310D02*
Y56650D01*
X130560D01*
X130643Y56567D01*
Y56400D01*
X130560Y56317D01*
X130310D01*
X130810Y56650D02*
X131143D01*
X130976D01*
Y56150D01*
X131310Y56650D02*
Y56150D01*
Y56400D01*
X131643D01*
Y56650D01*
Y56150D01*
X114650Y55567D02*
X114733Y55650D01*
X114900D01*
X114983Y55567D01*
Y55483D01*
X114900Y55400D01*
X114817D01*
X114900D01*
X114983Y55317D01*
Y55233D01*
X114900Y55150D01*
X114733D01*
X114650Y55233D01*
X115483Y55150D02*
X115150D01*
X115483Y55483D01*
Y55567D01*
X115400Y55650D01*
X115233D01*
X115150Y55567D01*
X119043Y55150D02*
X118710D01*
X119043Y55483D01*
Y55567D01*
X118960Y55650D01*
X118793D01*
X118710Y55567D01*
X119210D02*
X119293Y55650D01*
X119460D01*
X119543Y55567D01*
Y55483D01*
X119460Y55400D01*
X119543Y55317D01*
Y55233D01*
X119460Y55150D01*
X119293D01*
X119210Y55233D01*
Y55317D01*
X119293Y55400D01*
X119210Y55483D01*
Y55567D01*
X119293Y55400D02*
X119460D01*
X119710Y55150D02*
Y55483D01*
X119793D01*
X119876Y55400D01*
Y55150D01*
Y55400D01*
X119960Y55483D01*
X120043Y55400D01*
Y55150D01*
X120210D02*
X120376D01*
X120293D01*
Y55483D01*
X120210D01*
X120626Y55150D02*
X120793D01*
X120709D01*
Y55650D01*
X120626D01*
X124510Y55567D02*
X124593Y55650D01*
X124760D01*
X124843Y55567D01*
Y55233D01*
X124760Y55150D01*
X124593D01*
X124510Y55233D01*
Y55567D01*
X125010Y55150D02*
Y55233D01*
X125093D01*
Y55150D01*
X125010D01*
X125426Y55650D02*
X125760D01*
Y55567D01*
X125426Y55233D01*
Y55150D01*
X125926D02*
X126093D01*
X126010D01*
Y55650D01*
X125926Y55567D01*
X126343Y55150D02*
X126509D01*
X126426D01*
Y55650D01*
X126343Y55567D01*
X127093Y55150D02*
X126759D01*
X127093Y55483D01*
Y55567D01*
X127009Y55650D01*
X126843D01*
X126759Y55567D01*
X127259Y55150D02*
Y55483D01*
X127342D01*
X127426Y55400D01*
Y55150D01*
Y55400D01*
X127509Y55483D01*
X127592Y55400D01*
Y55150D01*
X127759D02*
Y55483D01*
X127842D01*
X127926Y55400D01*
Y55150D01*
Y55400D01*
X128009Y55483D01*
X128092Y55400D01*
Y55150D01*
X130310D02*
Y55650D01*
X130560D01*
X130643Y55567D01*
Y55400D01*
X130560Y55317D01*
X130310D01*
X130810Y55650D02*
X131143D01*
X130976D01*
Y55150D01*
X131310Y55650D02*
Y55150D01*
Y55400D01*
X131643D01*
Y55650D01*
Y55150D01*
X114650Y54567D02*
X114733Y54650D01*
X114900D01*
X114983Y54567D01*
Y54483D01*
X114900Y54400D01*
X114817D01*
X114900D01*
X114983Y54317D01*
Y54233D01*
X114900Y54150D01*
X114733D01*
X114650Y54233D01*
X115150Y54567D02*
X115233Y54650D01*
X115400D01*
X115483Y54567D01*
Y54483D01*
X115400Y54400D01*
X115316D01*
X115400D01*
X115483Y54317D01*
Y54233D01*
X115400Y54150D01*
X115233D01*
X115150Y54233D01*
X118710Y54567D02*
X118793Y54650D01*
X118960D01*
X119043Y54567D01*
Y54483D01*
X118960Y54400D01*
X118877D01*
X118960D01*
X119043Y54317D01*
Y54233D01*
X118960Y54150D01*
X118793D01*
X118710Y54233D01*
X119543Y54650D02*
X119210D01*
Y54400D01*
X119376Y54483D01*
X119460D01*
X119543Y54400D01*
Y54233D01*
X119460Y54150D01*
X119293D01*
X119210Y54233D01*
X119710Y54150D02*
Y54483D01*
X119793D01*
X119876Y54400D01*
Y54150D01*
Y54400D01*
X119960Y54483D01*
X120043Y54400D01*
Y54150D01*
X120210D02*
X120376D01*
X120293D01*
Y54483D01*
X120210D01*
X120626Y54150D02*
X120793D01*
X120709D01*
Y54650D01*
X120626D01*
X124510Y54567D02*
X124593Y54650D01*
X124760D01*
X124843Y54567D01*
Y54233D01*
X124760Y54150D01*
X124593D01*
X124510Y54233D01*
Y54567D01*
X125010Y54150D02*
Y54233D01*
X125093D01*
Y54150D01*
X125010D01*
X125426Y54567D02*
X125510Y54650D01*
X125676D01*
X125760Y54567D01*
Y54483D01*
X125676Y54400D01*
X125760Y54317D01*
Y54233D01*
X125676Y54150D01*
X125510D01*
X125426Y54233D01*
Y54317D01*
X125510Y54400D01*
X125426Y54483D01*
Y54567D01*
X125510Y54400D02*
X125676D01*
X125926Y54567D02*
X126010Y54650D01*
X126176D01*
X126259Y54567D01*
Y54483D01*
X126176Y54400D01*
X126259Y54317D01*
Y54233D01*
X126176Y54150D01*
X126010D01*
X125926Y54233D01*
Y54317D01*
X126010Y54400D01*
X125926Y54483D01*
Y54567D01*
X126010Y54400D02*
X126176D01*
X126426Y54233D02*
X126509Y54150D01*
X126676D01*
X126759Y54233D01*
Y54567D01*
X126676Y54650D01*
X126509D01*
X126426Y54567D01*
Y54483D01*
X126509Y54400D01*
X126759D01*
X126926Y54150D02*
Y54483D01*
X127009D01*
X127093Y54400D01*
Y54150D01*
Y54400D01*
X127176Y54483D01*
X127259Y54400D01*
Y54150D01*
X127426D02*
Y54483D01*
X127509D01*
X127592Y54400D01*
Y54150D01*
Y54400D01*
X127676Y54483D01*
X127759Y54400D01*
Y54150D01*
X130310D02*
Y54650D01*
X130560D01*
X130643Y54567D01*
Y54400D01*
X130560Y54317D01*
X130310D01*
X130810Y54650D02*
X131143D01*
X130976D01*
Y54150D01*
X131310Y54650D02*
Y54150D01*
Y54400D01*
X131643D01*
Y54650D01*
Y54150D01*
X114650Y53150D02*
X114817D01*
X114733D01*
Y53650D01*
X114650Y53567D01*
X115067D02*
X115150Y53650D01*
X115316D01*
X115400Y53567D01*
Y53483D01*
X115316Y53400D01*
X115233D01*
X115316D01*
X115400Y53317D01*
Y53233D01*
X115316Y53150D01*
X115150D01*
X115067Y53233D01*
X118710Y53567D02*
X118793Y53650D01*
X118960D01*
X119043Y53567D01*
Y53483D01*
X118960Y53400D01*
X118877D01*
X118960D01*
X119043Y53317D01*
Y53233D01*
X118960Y53150D01*
X118793D01*
X118710Y53233D01*
X119210Y53567D02*
X119293Y53650D01*
X119460D01*
X119543Y53567D01*
Y53483D01*
X119460Y53400D01*
X119543Y53317D01*
Y53233D01*
X119460Y53150D01*
X119293D01*
X119210Y53233D01*
Y53317D01*
X119293Y53400D01*
X119210Y53483D01*
Y53567D01*
X119293Y53400D02*
X119460D01*
X119710Y53150D02*
Y53483D01*
X119793D01*
X119876Y53400D01*
Y53150D01*
Y53400D01*
X119960Y53483D01*
X120043Y53400D01*
Y53150D01*
X120210D02*
X120376D01*
X120293D01*
Y53483D01*
X120210D01*
X120626Y53150D02*
X120793D01*
X120709D01*
Y53650D01*
X120626D01*
X124510Y53567D02*
X124593Y53650D01*
X124760D01*
X124843Y53567D01*
Y53233D01*
X124760Y53150D01*
X124593D01*
X124510Y53233D01*
Y53567D01*
X125010Y53150D02*
Y53233D01*
X125093D01*
Y53150D01*
X125010D01*
X125426Y53233D02*
X125510Y53150D01*
X125676D01*
X125760Y53233D01*
Y53567D01*
X125676Y53650D01*
X125510D01*
X125426Y53567D01*
Y53483D01*
X125510Y53400D01*
X125760D01*
X126259Y53650D02*
X126093Y53567D01*
X125926Y53400D01*
Y53233D01*
X126010Y53150D01*
X126176D01*
X126259Y53233D01*
Y53317D01*
X126176Y53400D01*
X125926D01*
X126759Y53650D02*
X126426D01*
Y53400D01*
X126593Y53483D01*
X126676D01*
X126759Y53400D01*
Y53233D01*
X126676Y53150D01*
X126509D01*
X126426Y53233D01*
X127259Y53150D02*
X126926D01*
X127259Y53483D01*
Y53567D01*
X127176Y53650D01*
X127009D01*
X126926Y53567D01*
X127426Y53150D02*
Y53483D01*
X127509D01*
X127592Y53400D01*
Y53150D01*
Y53400D01*
X127676Y53483D01*
X127759Y53400D01*
Y53150D01*
X127926D02*
Y53483D01*
X128009D01*
X128092Y53400D01*
Y53150D01*
Y53400D01*
X128175Y53483D01*
X128259Y53400D01*
Y53150D01*
X130310D02*
Y53650D01*
X130560D01*
X130643Y53567D01*
Y53400D01*
X130560Y53317D01*
X130310D01*
X130810Y53650D02*
X131143D01*
X130976D01*
Y53150D01*
X131310Y53650D02*
Y53150D01*
Y53400D01*
X131643D01*
Y53650D01*
Y53150D01*
X114650Y52150D02*
X114817D01*
X114733D01*
Y52650D01*
X114650Y52567D01*
X115400Y52650D02*
X115067D01*
Y52400D01*
X115233Y52483D01*
X115316D01*
X115400Y52400D01*
Y52233D01*
X115316Y52150D01*
X115150D01*
X115067Y52233D01*
X118960Y52150D02*
Y52650D01*
X118710Y52400D01*
X119043D01*
X119543Y52150D02*
X119210D01*
X119543Y52483D01*
Y52567D01*
X119460Y52650D01*
X119293D01*
X119210Y52567D01*
X119710Y52150D02*
Y52483D01*
X119793D01*
X119876Y52400D01*
Y52150D01*
Y52400D01*
X119960Y52483D01*
X120043Y52400D01*
Y52150D01*
X120210D02*
X120376D01*
X120293D01*
Y52483D01*
X120210D01*
X120626Y52150D02*
X120793D01*
X120709D01*
Y52650D01*
X120626D01*
X124510Y52150D02*
X124677D01*
X124593D01*
Y52650D01*
X124510Y52567D01*
X124927Y52150D02*
Y52233D01*
X125010D01*
Y52150D01*
X124927D01*
X125343Y52567D02*
X125426Y52650D01*
X125593D01*
X125676Y52567D01*
Y52233D01*
X125593Y52150D01*
X125426D01*
X125343Y52233D01*
Y52567D01*
X126176Y52650D02*
X126010Y52567D01*
X125843Y52400D01*
Y52233D01*
X125926Y52150D01*
X126093D01*
X126176Y52233D01*
Y52317D01*
X126093Y52400D01*
X125843D01*
X126676Y52650D02*
X126509Y52567D01*
X126343Y52400D01*
Y52233D01*
X126426Y52150D01*
X126593D01*
X126676Y52233D01*
Y52317D01*
X126593Y52400D01*
X126343D01*
X126843Y52567D02*
X126926Y52650D01*
X127093D01*
X127176Y52567D01*
Y52483D01*
X127093Y52400D01*
X127176Y52317D01*
Y52233D01*
X127093Y52150D01*
X126926D01*
X126843Y52233D01*
Y52317D01*
X126926Y52400D01*
X126843Y52483D01*
Y52567D01*
X126926Y52400D02*
X127093D01*
X127342Y52150D02*
Y52483D01*
X127426D01*
X127509Y52400D01*
Y52150D01*
Y52400D01*
X127592Y52483D01*
X127676Y52400D01*
Y52150D01*
X127842D02*
Y52483D01*
X127926D01*
X128009Y52400D01*
Y52150D01*
Y52400D01*
X128092Y52483D01*
X128175Y52400D01*
Y52150D01*
X130310D02*
Y52650D01*
X130560D01*
X130643Y52567D01*
Y52400D01*
X130560Y52317D01*
X130310D01*
X130810Y52650D02*
X131143D01*
X130976D01*
Y52150D01*
X131310Y52650D02*
Y52150D01*
Y52400D01*
X131643D01*
Y52650D01*
Y52150D01*
X114983Y51150D02*
X114650D01*
X114983Y51483D01*
Y51567D01*
X114900Y51650D01*
X114733D01*
X114650Y51567D01*
X118710Y51150D02*
X118877D01*
X118793D01*
Y51650D01*
X118710Y51567D01*
X119127Y51150D02*
X119293D01*
X119210D01*
Y51650D01*
X119127Y51567D01*
X119543D02*
X119626Y51650D01*
X119793D01*
X119876Y51567D01*
Y51233D01*
X119793Y51150D01*
X119626D01*
X119543Y51233D01*
Y51567D01*
X120043Y51150D02*
Y51483D01*
X120126D01*
X120210Y51400D01*
Y51150D01*
Y51400D01*
X120293Y51483D01*
X120376Y51400D01*
Y51150D01*
X120543D02*
X120709D01*
X120626D01*
Y51483D01*
X120543D01*
X120959Y51150D02*
X121126D01*
X121043D01*
Y51650D01*
X120959D01*
X124843Y51150D02*
X124510D01*
X124843Y51483D01*
Y51567D01*
X124760Y51650D01*
X124593D01*
X124510Y51567D01*
X125010Y51150D02*
Y51233D01*
X125093D01*
Y51150D01*
X125010D01*
X125426Y51650D02*
X125760D01*
Y51567D01*
X125426Y51233D01*
Y51150D01*
X125926Y51233D02*
X126010Y51150D01*
X126176D01*
X126259Y51233D01*
Y51567D01*
X126176Y51650D01*
X126010D01*
X125926Y51567D01*
Y51483D01*
X126010Y51400D01*
X126259D01*
X126676Y51150D02*
Y51650D01*
X126426Y51400D01*
X126759D01*
X126926Y51150D02*
Y51483D01*
X127009D01*
X127093Y51400D01*
Y51150D01*
Y51400D01*
X127176Y51483D01*
X127259Y51400D01*
Y51150D01*
X127426D02*
Y51483D01*
X127509D01*
X127592Y51400D01*
Y51150D01*
Y51400D01*
X127676Y51483D01*
X127759Y51400D01*
Y51150D01*
X130310D02*
Y51650D01*
X130560D01*
X130643Y51567D01*
Y51400D01*
X130560Y51317D01*
X130310D01*
X130810Y51650D02*
X131143D01*
X130976D01*
Y51150D01*
X131310Y51650D02*
Y51150D01*
Y51400D01*
X131643D01*
Y51650D01*
Y51150D01*
X114983Y50150D02*
X114650D01*
X114983Y50483D01*
Y50567D01*
X114900Y50650D01*
X114733D01*
X114650Y50567D01*
X118710Y50150D02*
X118877D01*
X118793D01*
Y50650D01*
X118710Y50567D01*
X119460Y50150D02*
X119127D01*
X119460Y50483D01*
Y50567D01*
X119376Y50650D01*
X119210D01*
X119127Y50567D01*
X119626D02*
X119710Y50650D01*
X119876D01*
X119960Y50567D01*
Y50483D01*
X119876Y50400D01*
X119960Y50317D01*
Y50233D01*
X119876Y50150D01*
X119710D01*
X119626Y50233D01*
Y50317D01*
X119710Y50400D01*
X119626Y50483D01*
Y50567D01*
X119710Y50400D02*
X119876D01*
X120126Y50150D02*
Y50233D01*
X120210D01*
Y50150D01*
X120126D01*
X120876Y50650D02*
X120543D01*
Y50400D01*
X120709Y50483D01*
X120793D01*
X120876Y50400D01*
Y50233D01*
X120793Y50150D01*
X120626D01*
X120543Y50233D01*
X121043Y50150D02*
Y50483D01*
X121126D01*
X121209Y50400D01*
Y50150D01*
Y50400D01*
X121292Y50483D01*
X121376Y50400D01*
Y50150D01*
X121542D02*
X121709D01*
X121626D01*
Y50483D01*
X121542D01*
X121959Y50150D02*
X122126D01*
X122042D01*
Y50650D01*
X121959D01*
X124510Y50567D02*
X124593Y50650D01*
X124760D01*
X124843Y50567D01*
Y50483D01*
X124760Y50400D01*
X124677D01*
X124760D01*
X124843Y50317D01*
Y50233D01*
X124760Y50150D01*
X124593D01*
X124510Y50233D01*
X125010Y50150D02*
Y50233D01*
X125093D01*
Y50150D01*
X125010D01*
X125760D02*
X125426D01*
X125760Y50483D01*
Y50567D01*
X125676Y50650D01*
X125510D01*
X125426Y50567D01*
X126259Y50650D02*
X126093Y50567D01*
X125926Y50400D01*
Y50233D01*
X126010Y50150D01*
X126176D01*
X126259Y50233D01*
Y50317D01*
X126176Y50400D01*
X125926D01*
X126426Y50567D02*
X126509Y50650D01*
X126676D01*
X126759Y50567D01*
Y50483D01*
X126676Y50400D01*
X126593D01*
X126676D01*
X126759Y50317D01*
Y50233D01*
X126676Y50150D01*
X126509D01*
X126426Y50233D01*
X126926D02*
X127009Y50150D01*
X127176D01*
X127259Y50233D01*
Y50567D01*
X127176Y50650D01*
X127009D01*
X126926Y50567D01*
Y50483D01*
X127009Y50400D01*
X127259D01*
X127426Y50150D02*
Y50483D01*
X127509D01*
X127592Y50400D01*
Y50150D01*
Y50400D01*
X127676Y50483D01*
X127759Y50400D01*
Y50150D01*
X127926D02*
Y50483D01*
X128009D01*
X128092Y50400D01*
Y50150D01*
Y50400D01*
X128175Y50483D01*
X128259Y50400D01*
Y50150D01*
X130310D02*
Y50650D01*
X130560D01*
X130643Y50567D01*
Y50400D01*
X130560Y50317D01*
X130310D01*
X130810Y50650D02*
X131143D01*
X130976D01*
Y50150D01*
X131310Y50650D02*
Y50150D01*
Y50400D01*
X131643D01*
Y50650D01*
Y50150D01*
X114650Y49150D02*
X114817D01*
X114733D01*
Y49650D01*
X114650Y49567D01*
X115067D02*
X115150Y49650D01*
X115316D01*
X115400Y49567D01*
Y49233D01*
X115316Y49150D01*
X115150D01*
X115067Y49233D01*
Y49567D01*
X115566D02*
X115650Y49650D01*
X115816D01*
X115900Y49567D01*
Y49483D01*
X115816Y49400D01*
X115733D01*
X115816D01*
X115900Y49317D01*
Y49233D01*
X115816Y49150D01*
X115650D01*
X115566Y49233D01*
X118710Y49650D02*
X119043D01*
X118877D01*
Y49150D01*
X119293D02*
X119460D01*
X119543Y49233D01*
Y49400D01*
X119460Y49483D01*
X119293D01*
X119210Y49400D01*
Y49233D01*
X119293Y49150D01*
X119793Y49567D02*
Y49483D01*
X119710D01*
X119876D01*
X119793D01*
Y49233D01*
X119876Y49150D01*
X120210Y49483D02*
X120376D01*
X120459Y49400D01*
Y49150D01*
X120210D01*
X120126Y49233D01*
X120210Y49317D01*
X120459D01*
X120626Y49150D02*
X120793D01*
X120709D01*
Y49650D01*
X120626D01*
D40*
X110100Y77917D02*
X110183Y78000D01*
X110350D01*
X110433Y77917D01*
Y77833D01*
X110350Y77750D01*
X110267D01*
X110350D01*
X110433Y77667D01*
Y77583D01*
X110350Y77500D01*
X110183D01*
X110100Y77583D01*
X110933Y78000D02*
X110600D01*
Y77750D01*
X110766Y77833D01*
X110850D01*
X110933Y77750D01*
Y77583D01*
X110850Y77500D01*
X110683D01*
X110600Y77583D01*
X111100Y77917D02*
X111183Y78000D01*
X111350D01*
X111433Y77917D01*
Y77833D01*
X111350Y77750D01*
X111267D01*
X111350D01*
X111433Y77667D01*
Y77583D01*
X111350Y77500D01*
X111183D01*
X111100Y77583D01*
X111933Y78000D02*
X111600D01*
Y77750D01*
X111766Y77833D01*
X111850D01*
X111933Y77750D01*
Y77583D01*
X111850Y77500D01*
X111683D01*
X111600Y77583D01*
X112100Y77917D02*
X112183Y78000D01*
X112350D01*
X112433Y77917D01*
Y77833D01*
X112350Y77750D01*
X112267D01*
X112350D01*
X112433Y77667D01*
Y77583D01*
X112350Y77500D01*
X112183D01*
X112100Y77583D01*
X112933Y78000D02*
X112600D01*
Y77750D01*
X112766Y77833D01*
X112850D01*
X112933Y77750D01*
Y77583D01*
X112850Y77500D01*
X112683D01*
X112600Y77583D01*
X113100Y77917D02*
X113183Y78000D01*
X113350D01*
X113433Y77917D01*
Y77833D01*
X113350Y77750D01*
X113267D01*
X113350D01*
X113433Y77667D01*
Y77583D01*
X113350Y77500D01*
X113183D01*
X113100Y77583D01*
X113933Y78000D02*
X113600D01*
Y77750D01*
X113766Y77833D01*
X113850D01*
X113933Y77750D01*
Y77583D01*
X113850Y77500D01*
X113683D01*
X113600Y77583D01*
X114100Y77917D02*
X114183Y78000D01*
X114350D01*
X114433Y77917D01*
Y77833D01*
X114350Y77750D01*
X114267D01*
X114350D01*
X114433Y77667D01*
Y77583D01*
X114350Y77500D01*
X114183D01*
X114100Y77583D01*
X114933Y78000D02*
X114600D01*
Y77750D01*
X114766Y77833D01*
X114850D01*
X114933Y77750D01*
Y77583D01*
X114850Y77500D01*
X114683D01*
X114600Y77583D01*
X115100Y77917D02*
X115183Y78000D01*
X115350D01*
X115433Y77917D01*
Y77833D01*
X115350Y77750D01*
X115267D01*
X115350D01*
X115433Y77667D01*
Y77583D01*
X115350Y77500D01*
X115183D01*
X115100Y77583D01*
X115933Y78000D02*
X115600D01*
Y77750D01*
X115766Y77833D01*
X115850D01*
X115933Y77750D01*
Y77583D01*
X115850Y77500D01*
X115683D01*
X115600Y77583D01*
X116100Y77917D02*
X116183Y78000D01*
X116350D01*
X116433Y77917D01*
Y77833D01*
X116350Y77750D01*
X116267D01*
X116350D01*
X116433Y77667D01*
Y77583D01*
X116350Y77500D01*
X116183D01*
X116100Y77583D01*
X116933Y78000D02*
X116600D01*
Y77750D01*
X116766Y77833D01*
X116850D01*
X116933Y77750D01*
Y77583D01*
X116850Y77500D01*
X116683D01*
X116600Y77583D01*
X117100Y77917D02*
X117183Y78000D01*
X117350D01*
X117433Y77917D01*
Y77833D01*
X117350Y77750D01*
X117267D01*
X117350D01*
X117433Y77667D01*
Y77583D01*
X117350Y77500D01*
X117183D01*
X117100Y77583D01*
X117933Y78000D02*
X117600D01*
Y77750D01*
X117766Y77833D01*
X117850D01*
X117933Y77750D01*
Y77583D01*
X117850Y77500D01*
X117683D01*
X117600Y77583D01*
X117100Y80917D02*
X117183Y81000D01*
X117350D01*
X117433Y80917D01*
Y80833D01*
X117350Y80750D01*
X117267D01*
X117350D01*
X117433Y80667D01*
Y80583D01*
X117350Y80500D01*
X117183D01*
X117100Y80583D01*
X117933Y81000D02*
X117600D01*
Y80750D01*
X117766Y80833D01*
X117850D01*
X117933Y80750D01*
Y80583D01*
X117850Y80500D01*
X117683D01*
X117600Y80583D01*
X116100Y80917D02*
X116183Y81000D01*
X116350D01*
X116433Y80917D01*
Y80833D01*
X116350Y80750D01*
X116267D01*
X116350D01*
X116433Y80667D01*
Y80583D01*
X116350Y80500D01*
X116183D01*
X116100Y80583D01*
X116933Y81000D02*
X116600D01*
Y80750D01*
X116766Y80833D01*
X116850D01*
X116933Y80750D01*
Y80583D01*
X116850Y80500D01*
X116683D01*
X116600Y80583D01*
X115100Y80917D02*
X115183Y81000D01*
X115350D01*
X115433Y80917D01*
Y80833D01*
X115350Y80750D01*
X115267D01*
X115350D01*
X115433Y80667D01*
Y80583D01*
X115350Y80500D01*
X115183D01*
X115100Y80583D01*
X115933Y81000D02*
X115600D01*
Y80750D01*
X115766Y80833D01*
X115850D01*
X115933Y80750D01*
Y80583D01*
X115850Y80500D01*
X115683D01*
X115600Y80583D01*
X114100Y80917D02*
X114183Y81000D01*
X114350D01*
X114433Y80917D01*
Y80833D01*
X114350Y80750D01*
X114267D01*
X114350D01*
X114433Y80667D01*
Y80583D01*
X114350Y80500D01*
X114183D01*
X114100Y80583D01*
X114933Y81000D02*
X114600D01*
Y80750D01*
X114766Y80833D01*
X114850D01*
X114933Y80750D01*
Y80583D01*
X114850Y80500D01*
X114683D01*
X114600Y80583D01*
X113100Y80917D02*
X113183Y81000D01*
X113350D01*
X113433Y80917D01*
Y80833D01*
X113350Y80750D01*
X113267D01*
X113350D01*
X113433Y80667D01*
Y80583D01*
X113350Y80500D01*
X113183D01*
X113100Y80583D01*
X113933Y81000D02*
X113600D01*
Y80750D01*
X113766Y80833D01*
X113850D01*
X113933Y80750D01*
Y80583D01*
X113850Y80500D01*
X113683D01*
X113600Y80583D01*
X112100Y80917D02*
X112183Y81000D01*
X112350D01*
X112433Y80917D01*
Y80833D01*
X112350Y80750D01*
X112267D01*
X112350D01*
X112433Y80667D01*
Y80583D01*
X112350Y80500D01*
X112183D01*
X112100Y80583D01*
X112933Y81000D02*
X112600D01*
Y80750D01*
X112766Y80833D01*
X112850D01*
X112933Y80750D01*
Y80583D01*
X112850Y80500D01*
X112683D01*
X112600Y80583D01*
X111100Y80917D02*
X111183Y81000D01*
X111350D01*
X111433Y80917D01*
Y80833D01*
X111350Y80750D01*
X111267D01*
X111350D01*
X111433Y80667D01*
Y80583D01*
X111350Y80500D01*
X111183D01*
X111100Y80583D01*
X111933Y81000D02*
X111600D01*
Y80750D01*
X111766Y80833D01*
X111850D01*
X111933Y80750D01*
Y80583D01*
X111850Y80500D01*
X111683D01*
X111600Y80583D01*
X110100Y80917D02*
X110183Y81000D01*
X110350D01*
X110433Y80917D01*
Y80833D01*
X110350Y80750D01*
X110267D01*
X110350D01*
X110433Y80667D01*
Y80583D01*
X110350Y80500D01*
X110183D01*
X110100Y80583D01*
X110933Y81000D02*
X110600D01*
Y80750D01*
X110766Y80833D01*
X110850D01*
X110933Y80750D01*
Y80583D01*
X110850Y80500D01*
X110683D01*
X110600Y80583D01*
X108233Y84311D02*
X107900D01*
X108233Y84644D01*
Y84728D01*
X108150Y84811D01*
X107983D01*
X107900Y84728D01*
X108400D02*
X108483Y84811D01*
X108650D01*
X108733Y84728D01*
Y84644D01*
X108650Y84561D01*
X108733Y84478D01*
Y84394D01*
X108650Y84311D01*
X108483D01*
X108400Y84394D01*
Y84478D01*
X108483Y84561D01*
X108400Y84644D01*
Y84728D01*
X108483Y84561D02*
X108650D01*
X108233Y85689D02*
X107900D01*
X108233Y86022D01*
Y86106D01*
X108150Y86189D01*
X107983D01*
X107900Y86106D01*
X108400D02*
X108483Y86189D01*
X108650D01*
X108733Y86106D01*
Y86022D01*
X108650Y85939D01*
X108733Y85856D01*
Y85772D01*
X108650Y85689D01*
X108483D01*
X108400Y85772D01*
Y85856D01*
X108483Y85939D01*
X108400Y86022D01*
Y86106D01*
X108483Y85939D02*
X108650D01*
X113550Y69800D02*
X113717D01*
X113633D01*
Y70300D01*
X113550Y70217D01*
X113967Y69800D02*
X114133D01*
X114050D01*
Y70300D01*
X113967Y70217D01*
X114383D02*
X114466Y70300D01*
X114633D01*
X114716Y70217D01*
Y69883D01*
X114633Y69800D01*
X114466D01*
X114383Y69883D01*
Y70217D01*
X126650Y69800D02*
X126817D01*
X126733D01*
Y70300D01*
X126650Y70217D01*
X127067Y69800D02*
X127233D01*
X127150D01*
Y70300D01*
X127067Y70217D01*
X127483D02*
X127566Y70300D01*
X127733D01*
X127816Y70217D01*
Y69883D01*
X127733Y69800D01*
X127566D01*
X127483Y69883D01*
Y70217D01*
X119240Y69300D02*
Y69800D01*
X118990Y69550D01*
X119323D01*
X119823Y69300D02*
X119490D01*
X119823Y69633D01*
Y69717D01*
X119740Y69800D01*
X119573D01*
X119490Y69717D01*
X121420Y69300D02*
Y69800D01*
X121170Y69550D01*
X121503D01*
X122003Y69300D02*
X121670D01*
X122003Y69633D01*
Y69717D01*
X121920Y69800D01*
X121753D01*
X121670Y69717D01*
X122510Y69300D02*
Y69800D01*
X122260Y69550D01*
X122593D01*
X123093Y69300D02*
X122760D01*
X123093Y69633D01*
Y69717D01*
X123010Y69800D01*
X122843D01*
X122760Y69717D01*
X123600Y69300D02*
Y69800D01*
X123350Y69550D01*
X123683D01*
X124183Y69300D02*
X123850D01*
X124183Y69633D01*
Y69717D01*
X124100Y69800D01*
X123933D01*
X123850Y69717D01*
X118700Y70300D02*
Y70800D01*
X118450Y70550D01*
X118783D01*
X119283Y70300D02*
X118950D01*
X119283Y70633D01*
Y70717D01*
X119200Y70800D01*
X119033D01*
X118950Y70717D01*
X120880Y70300D02*
Y70800D01*
X120630Y70550D01*
X120963D01*
X121463Y70300D02*
X121130D01*
X121463Y70633D01*
Y70717D01*
X121380Y70800D01*
X121213D01*
X121130Y70717D01*
X124150Y70300D02*
Y70800D01*
X123900Y70550D01*
X124233D01*
X124733Y70300D02*
X124400D01*
X124733Y70633D01*
Y70717D01*
X124650Y70800D01*
X124483D01*
X124400Y70717D01*
X119790Y70300D02*
Y70800D01*
X119540Y70550D01*
X119873D01*
X120373Y70300D02*
X120040D01*
X120373Y70633D01*
Y70717D01*
X120290Y70800D01*
X120123D01*
X120040Y70717D01*
X117610Y70300D02*
Y70800D01*
X117360Y70550D01*
X117693D01*
X118193Y70300D02*
X117860D01*
X118193Y70633D01*
Y70717D01*
X118110Y70800D01*
X117943D01*
X117860Y70717D01*
X116520Y70300D02*
Y70800D01*
X116270Y70550D01*
X116603D01*
X117103Y70300D02*
X116770D01*
X117103Y70633D01*
Y70717D01*
X117020Y70800D01*
X116853D01*
X116770Y70717D01*
X121970Y70300D02*
Y70800D01*
X121720Y70550D01*
X122053D01*
X122553Y70300D02*
X122220D01*
X122553Y70633D01*
Y70717D01*
X122470Y70800D01*
X122303D01*
X122220Y70717D01*
X123060Y70300D02*
Y70800D01*
X122810Y70550D01*
X123143D01*
X123643Y70300D02*
X123310D01*
X123643Y70633D01*
Y70717D01*
X123560Y70800D01*
X123393D01*
X123310Y70717D01*
X118150Y69300D02*
Y69800D01*
X117900Y69550D01*
X118233D01*
X118733Y69300D02*
X118400D01*
X118733Y69633D01*
Y69717D01*
X118650Y69800D01*
X118483D01*
X118400Y69717D01*
X117060Y69300D02*
Y69800D01*
X116810Y69550D01*
X117143D01*
X117643Y69300D02*
X117310D01*
X117643Y69633D01*
Y69717D01*
X117560Y69800D01*
X117393D01*
X117310Y69717D01*
X120330Y69300D02*
Y69800D01*
X120080Y69550D01*
X120413D01*
X120913Y69300D02*
X120580D01*
X120913Y69633D01*
Y69717D01*
X120830Y69800D01*
X120663D01*
X120580Y69717D01*
X110850Y98500D02*
X111017D01*
X110933D01*
Y99000D01*
X110850Y98917D01*
X111600Y98500D02*
X111267D01*
X111600Y98833D01*
Y98917D01*
X111516Y99000D01*
X111350D01*
X111267Y98917D01*
X111766D02*
X111850Y99000D01*
X112016D01*
X112100Y98917D01*
Y98833D01*
X112016Y98750D01*
X112100Y98667D01*
Y98583D01*
X112016Y98500D01*
X111850D01*
X111766Y98583D01*
Y98667D01*
X111850Y98750D01*
X111766Y98833D01*
Y98917D01*
X111850Y98750D02*
X112016D01*
X112266Y98500D02*
Y98583D01*
X112350D01*
Y98500D01*
X112266D01*
X113016Y99000D02*
X112683D01*
Y98750D01*
X112849Y98833D01*
X112933D01*
X113016Y98750D01*
Y98583D01*
X112933Y98500D01*
X112766D01*
X112683Y98583D01*
X115350Y98500D02*
X115517D01*
X115433D01*
Y99000D01*
X115350Y98917D01*
X116100Y98500D02*
X115767D01*
X116100Y98833D01*
Y98917D01*
X116016Y99000D01*
X115850D01*
X115767Y98917D01*
X116266D02*
X116350Y99000D01*
X116516D01*
X116600Y98917D01*
Y98833D01*
X116516Y98750D01*
X116600Y98667D01*
Y98583D01*
X116516Y98500D01*
X116350D01*
X116266Y98583D01*
Y98667D01*
X116350Y98750D01*
X116266Y98833D01*
Y98917D01*
X116350Y98750D02*
X116516D01*
X116766Y98500D02*
Y98583D01*
X116850D01*
Y98500D01*
X116766D01*
X117516Y99000D02*
X117183D01*
Y98750D01*
X117349Y98833D01*
X117433D01*
X117516Y98750D01*
Y98583D01*
X117433Y98500D01*
X117266D01*
X117183Y98583D01*
X111850Y96417D02*
X111933Y96500D01*
X112100D01*
X112183Y96417D01*
Y96333D01*
X112100Y96250D01*
X112017D01*
X112100D01*
X112183Y96167D01*
Y96083D01*
X112100Y96000D01*
X111933D01*
X111850Y96083D01*
X112683Y96500D02*
X112350D01*
Y96250D01*
X112516Y96333D01*
X112600D01*
X112683Y96250D01*
Y96083D01*
X112600Y96000D01*
X112433D01*
X112350Y96083D01*
X111400Y95417D02*
X111483Y95500D01*
X111650D01*
X111733Y95417D01*
Y95333D01*
X111650Y95250D01*
X111567D01*
X111650D01*
X111733Y95167D01*
Y95083D01*
X111650Y95000D01*
X111483D01*
X111400Y95083D01*
X112233Y95500D02*
X111900D01*
Y95250D01*
X112066Y95333D01*
X112150D01*
X112233Y95250D01*
Y95083D01*
X112150Y95000D01*
X111983D01*
X111900Y95083D01*
X112350Y95417D02*
X112433Y95500D01*
X112600D01*
X112683Y95417D01*
Y95333D01*
X112600Y95250D01*
X112517D01*
X112600D01*
X112683Y95167D01*
Y95083D01*
X112600Y95000D01*
X112433D01*
X112350Y95083D01*
X113183Y95500D02*
X112850D01*
Y95250D01*
X113016Y95333D01*
X113100D01*
X113183Y95250D01*
Y95083D01*
X113100Y95000D01*
X112933D01*
X112850Y95083D01*
X113850Y96417D02*
X113933Y96500D01*
X114100D01*
X114183Y96417D01*
Y96333D01*
X114100Y96250D01*
X114017D01*
X114100D01*
X114183Y96167D01*
Y96083D01*
X114100Y96000D01*
X113933D01*
X113850Y96083D01*
X114683Y96500D02*
X114350D01*
Y96250D01*
X114516Y96333D01*
X114600D01*
X114683Y96250D01*
Y96083D01*
X114600Y96000D01*
X114433D01*
X114350Y96083D01*
X113350Y95417D02*
X113433Y95500D01*
X113600D01*
X113683Y95417D01*
Y95333D01*
X113600Y95250D01*
X113517D01*
X113600D01*
X113683Y95167D01*
Y95083D01*
X113600Y95000D01*
X113433D01*
X113350Y95083D01*
X114183Y95500D02*
X113850D01*
Y95250D01*
X114016Y95333D01*
X114100D01*
X114183Y95250D01*
Y95083D01*
X114100Y95000D01*
X113933D01*
X113850Y95083D01*
X112850Y96417D02*
X112933Y96500D01*
X113100D01*
X113183Y96417D01*
Y96333D01*
X113100Y96250D01*
X113017D01*
X113100D01*
X113183Y96167D01*
Y96083D01*
X113100Y96000D01*
X112933D01*
X112850Y96083D01*
X113683Y96500D02*
X113350D01*
Y96250D01*
X113516Y96333D01*
X113600D01*
X113683Y96250D01*
Y96083D01*
X113600Y96000D01*
X113433D01*
X113350Y96083D01*
X114850Y96417D02*
X114933Y96500D01*
X115100D01*
X115183Y96417D01*
Y96333D01*
X115100Y96250D01*
X115017D01*
X115100D01*
X115183Y96167D01*
Y96083D01*
X115100Y96000D01*
X114933D01*
X114850Y96083D01*
X115683Y96500D02*
X115350D01*
Y96250D01*
X115516Y96333D01*
X115600D01*
X115683Y96250D01*
Y96083D01*
X115600Y96000D01*
X115433D01*
X115350Y96083D01*
X114350Y95417D02*
X114433Y95500D01*
X114600D01*
X114683Y95417D01*
Y95333D01*
X114600Y95250D01*
X114517D01*
X114600D01*
X114683Y95167D01*
Y95083D01*
X114600Y95000D01*
X114433D01*
X114350Y95083D01*
X115183Y95500D02*
X114850D01*
Y95250D01*
X115016Y95333D01*
X115100D01*
X115183Y95250D01*
Y95083D01*
X115100Y95000D01*
X114933D01*
X114850Y95083D01*
X123100Y75167D02*
X123183Y75250D01*
X123350D01*
X123433Y75167D01*
Y75083D01*
X123350Y75000D01*
X123267D01*
X123350D01*
X123433Y74917D01*
Y74833D01*
X123350Y74750D01*
X123183D01*
X123100Y74833D01*
X123600Y75167D02*
X123683Y75250D01*
X123850D01*
X123933Y75167D01*
Y75083D01*
X123850Y75000D01*
X123933Y74917D01*
Y74833D01*
X123850Y74750D01*
X123683D01*
X123600Y74833D01*
Y74917D01*
X123683Y75000D01*
X123600Y75083D01*
Y75167D01*
X123683Y75000D02*
X123850D01*
X132300Y75167D02*
X132383Y75250D01*
X132550D01*
X132633Y75167D01*
Y75083D01*
X132550Y75000D01*
X132467D01*
X132550D01*
X132633Y74917D01*
Y74833D01*
X132550Y74750D01*
X132383D01*
X132300Y74833D01*
X132800Y75167D02*
X132883Y75250D01*
X133050D01*
X133133Y75167D01*
Y75083D01*
X133050Y75000D01*
X133133Y74917D01*
Y74833D01*
X133050Y74750D01*
X132883D01*
X132800Y74833D01*
Y74917D01*
X132883Y75000D01*
X132800Y75083D01*
Y75167D01*
X132883Y75000D02*
X133050D01*
X132300Y88417D02*
X132383Y88500D01*
X132550D01*
X132633Y88417D01*
Y88333D01*
X132550Y88250D01*
X132467D01*
X132550D01*
X132633Y88167D01*
Y88083D01*
X132550Y88000D01*
X132383D01*
X132300Y88083D01*
X132800Y88417D02*
X132883Y88500D01*
X133050D01*
X133133Y88417D01*
Y88333D01*
X133050Y88250D01*
X133133Y88167D01*
Y88083D01*
X133050Y88000D01*
X132883D01*
X132800Y88083D01*
Y88167D01*
X132883Y88250D01*
X132800Y88333D01*
Y88417D01*
X132883Y88250D02*
X133050D01*
X123100Y88417D02*
X123183Y88500D01*
X123350D01*
X123433Y88417D01*
Y88333D01*
X123350Y88250D01*
X123267D01*
X123350D01*
X123433Y88167D01*
Y88083D01*
X123350Y88000D01*
X123183D01*
X123100Y88083D01*
X123600Y88417D02*
X123683Y88500D01*
X123850D01*
X123933Y88417D01*
Y88333D01*
X123850Y88250D01*
X123933Y88167D01*
Y88083D01*
X123850Y88000D01*
X123683D01*
X123600Y88083D01*
Y88167D01*
X123683Y88250D01*
X123600Y88333D01*
Y88417D01*
X123683Y88250D02*
X123850D01*
X107700Y74617D02*
X107783Y74700D01*
X107950D01*
X108033Y74617D01*
Y74533D01*
X107950Y74450D01*
X107867D01*
X107950D01*
X108033Y74367D01*
Y74283D01*
X107950Y74200D01*
X107783D01*
X107700Y74283D01*
X108200Y74617D02*
X108283Y74700D01*
X108450D01*
X108533Y74617D01*
Y74533D01*
X108450Y74450D01*
X108533Y74367D01*
Y74283D01*
X108450Y74200D01*
X108283D01*
X108200Y74283D01*
Y74367D01*
X108283Y74450D01*
X108200Y74533D01*
Y74617D01*
X108283Y74450D02*
X108450D01*
X122900Y91917D02*
X122983Y92000D01*
X123150D01*
X123233Y91917D01*
Y91833D01*
X123150Y91750D01*
X123067D01*
X123150D01*
X123233Y91667D01*
Y91583D01*
X123150Y91500D01*
X122983D01*
X122900Y91583D01*
X123400Y91917D02*
X123483Y92000D01*
X123650D01*
X123733Y91917D01*
Y91833D01*
X123650Y91750D01*
X123733Y91667D01*
Y91583D01*
X123650Y91500D01*
X123483D01*
X123400Y91583D01*
Y91667D01*
X123483Y91750D01*
X123400Y91833D01*
Y91917D01*
X123483Y91750D02*
X123650D01*
X130300Y91917D02*
X130383Y92000D01*
X130550D01*
X130633Y91917D01*
Y91833D01*
X130550Y91750D01*
X130467D01*
X130550D01*
X130633Y91667D01*
Y91583D01*
X130550Y91500D01*
X130383D01*
X130300Y91583D01*
X130800Y91917D02*
X130883Y92000D01*
X131050D01*
X131133Y91917D01*
Y91833D01*
X131050Y91750D01*
X131133Y91667D01*
Y91583D01*
X131050Y91500D01*
X130883D01*
X130800Y91583D01*
Y91667D01*
X130883Y91750D01*
X130800Y91833D01*
Y91917D01*
X130883Y91750D02*
X131050D01*
X114100Y82917D02*
X114183Y83000D01*
X114350D01*
X114433Y82917D01*
Y82833D01*
X114350Y82750D01*
X114267D01*
X114350D01*
X114433Y82667D01*
Y82583D01*
X114350Y82500D01*
X114183D01*
X114100Y82583D01*
X114600Y82917D02*
X114683Y83000D01*
X114850D01*
X114933Y82917D01*
Y82833D01*
X114850Y82750D01*
X114933Y82667D01*
Y82583D01*
X114850Y82500D01*
X114683D01*
X114600Y82583D01*
Y82667D01*
X114683Y82750D01*
X114600Y82833D01*
Y82917D01*
X114683Y82750D02*
X114850D01*
X124100Y97717D02*
X124183Y97800D01*
X124350D01*
X124433Y97717D01*
Y97633D01*
X124350Y97550D01*
X124267D01*
X124350D01*
X124433Y97467D01*
Y97383D01*
X124350Y97300D01*
X124183D01*
X124100Y97383D01*
X124600Y97717D02*
X124683Y97800D01*
X124850D01*
X124933Y97717D01*
Y97633D01*
X124850Y97550D01*
X124933Y97467D01*
Y97383D01*
X124850Y97300D01*
X124683D01*
X124600Y97383D01*
Y97467D01*
X124683Y97550D01*
X124600Y97633D01*
Y97717D01*
X124683Y97550D02*
X124850D01*
X126900Y91917D02*
X126983Y92000D01*
X127150D01*
X127233Y91917D01*
Y91833D01*
X127150Y91750D01*
X127067D01*
X127150D01*
X127233Y91667D01*
Y91583D01*
X127150Y91500D01*
X126983D01*
X126900Y91583D01*
X127400Y91917D02*
X127483Y92000D01*
X127650D01*
X127733Y91917D01*
Y91833D01*
X127650Y91750D01*
X127733Y91667D01*
Y91583D01*
X127650Y91500D01*
X127483D01*
X127400Y91583D01*
Y91667D01*
X127483Y91750D01*
X127400Y91833D01*
Y91917D01*
X127483Y91750D02*
X127650D01*
X109933Y74900D02*
X109600D01*
X109933Y75233D01*
Y75317D01*
X109850Y75400D01*
X109683D01*
X109600Y75317D01*
X110100D02*
X110183Y75400D01*
X110350D01*
X110433Y75317D01*
Y75233D01*
X110350Y75150D01*
X110433Y75067D01*
Y74983D01*
X110350Y74900D01*
X110183D01*
X110100Y74983D01*
Y75067D01*
X110183Y75150D01*
X110100Y75233D01*
Y75317D01*
X110183Y75150D02*
X110350D01*
X110933Y74900D02*
X110600D01*
X110933Y75233D01*
Y75317D01*
X110850Y75400D01*
X110683D01*
X110600Y75317D01*
X111100D02*
X111183Y75400D01*
X111350D01*
X111433Y75317D01*
Y75233D01*
X111350Y75150D01*
X111433Y75067D01*
Y74983D01*
X111350Y74900D01*
X111183D01*
X111100Y74983D01*
Y75067D01*
X111183Y75150D01*
X111100Y75233D01*
Y75317D01*
X111183Y75150D02*
X111350D01*
X113233Y73500D02*
X112900D01*
X113233Y73833D01*
Y73917D01*
X113150Y74000D01*
X112983D01*
X112900Y73917D01*
X113400D02*
X113483Y74000D01*
X113650D01*
X113733Y73917D01*
Y73833D01*
X113650Y73750D01*
X113733Y73667D01*
Y73583D01*
X113650Y73500D01*
X113483D01*
X113400Y73583D01*
Y73667D01*
X113483Y73750D01*
X113400Y73833D01*
Y73917D01*
X113483Y73750D02*
X113650D01*
X112233Y73500D02*
X111900D01*
X112233Y73833D01*
Y73917D01*
X112150Y74000D01*
X111983D01*
X111900Y73917D01*
X112400D02*
X112483Y74000D01*
X112650D01*
X112733Y73917D01*
Y73833D01*
X112650Y73750D01*
X112733Y73667D01*
Y73583D01*
X112650Y73500D01*
X112483D01*
X112400Y73583D01*
Y73667D01*
X112483Y73750D01*
X112400Y73833D01*
Y73917D01*
X112483Y73750D02*
X112650D01*
X115533Y74900D02*
X115200D01*
X115533Y75233D01*
Y75317D01*
X115450Y75400D01*
X115283D01*
X115200Y75317D01*
X115700D02*
X115783Y75400D01*
X115950D01*
X116033Y75317D01*
Y75233D01*
X115950Y75150D01*
X116033Y75067D01*
Y74983D01*
X115950Y74900D01*
X115783D01*
X115700Y74983D01*
Y75067D01*
X115783Y75150D01*
X115700Y75233D01*
Y75317D01*
X115783Y75150D02*
X115950D01*
X114533Y74900D02*
X114200D01*
X114533Y75233D01*
Y75317D01*
X114450Y75400D01*
X114283D01*
X114200Y75317D01*
X114700D02*
X114783Y75400D01*
X114950D01*
X115033Y75317D01*
Y75233D01*
X114950Y75150D01*
X115033Y75067D01*
Y74983D01*
X114950Y74900D01*
X114783D01*
X114700Y74983D01*
Y75067D01*
X114783Y75150D01*
X114700Y75233D01*
Y75317D01*
X114783Y75150D02*
X114950D01*
X117333Y73000D02*
X117000D01*
X117333Y73333D01*
Y73417D01*
X117250Y73500D01*
X117083D01*
X117000Y73417D01*
X117500D02*
X117583Y73500D01*
X117750D01*
X117833Y73417D01*
Y73333D01*
X117750Y73250D01*
X117833Y73167D01*
Y73083D01*
X117750Y73000D01*
X117583D01*
X117500Y73083D01*
Y73167D01*
X117583Y73250D01*
X117500Y73333D01*
Y73417D01*
X117583Y73250D02*
X117750D01*
X117000Y74417D02*
X117083Y74500D01*
X117250D01*
X117333Y74417D01*
Y74333D01*
X117250Y74250D01*
X117167D01*
X117250D01*
X117333Y74167D01*
Y74083D01*
X117250Y74000D01*
X117083D01*
X117000Y74083D01*
X117833Y74500D02*
X117500D01*
Y74250D01*
X117666Y74333D01*
X117750D01*
X117833Y74250D01*
Y74083D01*
X117750Y74000D01*
X117583D01*
X117500Y74083D01*
X126350Y99817D02*
X126433Y99900D01*
X126600D01*
X126683Y99817D01*
Y99733D01*
X126600Y99650D01*
X126517D01*
X126600D01*
X126683Y99567D01*
Y99483D01*
X126600Y99400D01*
X126433D01*
X126350Y99483D01*
X127183Y99900D02*
X126850D01*
Y99650D01*
X127016Y99733D01*
X127100D01*
X127183Y99650D01*
Y99483D01*
X127100Y99400D01*
X126933D01*
X126850Y99483D01*
X126350Y98817D02*
X126433Y98900D01*
X126600D01*
X126683Y98817D01*
Y98733D01*
X126600Y98650D01*
X126517D01*
X126600D01*
X126683Y98567D01*
Y98483D01*
X126600Y98400D01*
X126433D01*
X126350Y98483D01*
X127183Y98900D02*
X126850D01*
Y98650D01*
X127016Y98733D01*
X127100D01*
X127183Y98650D01*
Y98483D01*
X127100Y98400D01*
X126933D01*
X126850Y98483D01*
X125350Y99817D02*
X125433Y99900D01*
X125600D01*
X125683Y99817D01*
Y99733D01*
X125600Y99650D01*
X125517D01*
X125600D01*
X125683Y99567D01*
Y99483D01*
X125600Y99400D01*
X125433D01*
X125350Y99483D01*
X126183Y99900D02*
X125850D01*
Y99650D01*
X126016Y99733D01*
X126100D01*
X126183Y99650D01*
Y99483D01*
X126100Y99400D01*
X125933D01*
X125850Y99483D01*
X125350Y98817D02*
X125433Y98900D01*
X125600D01*
X125683Y98817D01*
Y98733D01*
X125600Y98650D01*
X125517D01*
X125600D01*
X125683Y98567D01*
Y98483D01*
X125600Y98400D01*
X125433D01*
X125350Y98483D01*
X126183Y98900D02*
X125850D01*
Y98650D01*
X126016Y98733D01*
X126100D01*
X126183Y98650D01*
Y98483D01*
X126100Y98400D01*
X125933D01*
X125850Y98483D01*
X129050Y99817D02*
X129133Y99900D01*
X129300D01*
X129383Y99817D01*
Y99733D01*
X129300Y99650D01*
X129217D01*
X129300D01*
X129383Y99567D01*
Y99483D01*
X129300Y99400D01*
X129133D01*
X129050Y99483D01*
X129883Y99900D02*
X129550D01*
Y99650D01*
X129716Y99733D01*
X129800D01*
X129883Y99650D01*
Y99483D01*
X129800Y99400D01*
X129633D01*
X129550Y99483D01*
X129050Y98817D02*
X129133Y98900D01*
X129300D01*
X129383Y98817D01*
Y98733D01*
X129300Y98650D01*
X129217D01*
X129300D01*
X129383Y98567D01*
Y98483D01*
X129300Y98400D01*
X129133D01*
X129050Y98483D01*
X129883Y98900D02*
X129550D01*
Y98650D01*
X129716Y98733D01*
X129800D01*
X129883Y98650D01*
Y98483D01*
X129800Y98400D01*
X129633D01*
X129550Y98483D01*
X128050Y99817D02*
X128133Y99900D01*
X128300D01*
X128383Y99817D01*
Y99733D01*
X128300Y99650D01*
X128217D01*
X128300D01*
X128383Y99567D01*
Y99483D01*
X128300Y99400D01*
X128133D01*
X128050Y99483D01*
X128883Y99900D02*
X128550D01*
Y99650D01*
X128716Y99733D01*
X128800D01*
X128883Y99650D01*
Y99483D01*
X128800Y99400D01*
X128633D01*
X128550Y99483D01*
X128050Y98817D02*
X128133Y98900D01*
X128300D01*
X128383Y98817D01*
Y98733D01*
X128300Y98650D01*
X128217D01*
X128300D01*
X128383Y98567D01*
Y98483D01*
X128300Y98400D01*
X128133D01*
X128050Y98483D01*
X128883Y98900D02*
X128550D01*
Y98650D01*
X128716Y98733D01*
X128800D01*
X128883Y98650D01*
Y98483D01*
X128800Y98400D01*
X128633D01*
X128550Y98483D01*
X115600Y82917D02*
X115683Y83000D01*
X115850D01*
X115933Y82917D01*
Y82833D01*
X115850Y82750D01*
X115767D01*
X115850D01*
X115933Y82667D01*
Y82583D01*
X115850Y82500D01*
X115683D01*
X115600Y82583D01*
X116100Y82917D02*
X116183Y83000D01*
X116350D01*
X116433Y82917D01*
Y82833D01*
X116350Y82750D01*
X116433Y82667D01*
Y82583D01*
X116350Y82500D01*
X116183D01*
X116100Y82583D01*
Y82667D01*
X116183Y82750D01*
X116100Y82833D01*
Y82917D01*
X116183Y82750D02*
X116350D01*
X109100Y72417D02*
X109183Y72500D01*
X109350D01*
X109433Y72417D01*
Y72333D01*
X109350Y72250D01*
X109267D01*
X109350D01*
X109433Y72167D01*
Y72083D01*
X109350Y72000D01*
X109183D01*
X109100Y72083D01*
X109600Y72417D02*
X109683Y72500D01*
X109850D01*
X109933Y72417D01*
Y72333D01*
X109850Y72250D01*
X109933Y72167D01*
Y72083D01*
X109850Y72000D01*
X109683D01*
X109600Y72083D01*
Y72167D01*
X109683Y72250D01*
X109600Y72333D01*
Y72417D01*
X109683Y72250D02*
X109850D01*
X119500Y89217D02*
X119583Y89300D01*
X119750D01*
X119833Y89217D01*
Y89133D01*
X119750Y89050D01*
X119667D01*
X119750D01*
X119833Y88967D01*
Y88883D01*
X119750Y88800D01*
X119583D01*
X119500Y88883D01*
X120000Y89217D02*
X120083Y89300D01*
X120250D01*
X120333Y89217D01*
Y89133D01*
X120250Y89050D01*
X120333Y88967D01*
Y88883D01*
X120250Y88800D01*
X120083D01*
X120000Y88883D01*
Y88967D01*
X120083Y89050D01*
X120000Y89133D01*
Y89217D01*
X120083Y89050D02*
X120250D01*
X123143Y71690D02*
X122810D01*
X123143Y72023D01*
Y72107D01*
X123060Y72190D01*
X122893D01*
X122810Y72107D01*
X123310D02*
X123393Y72190D01*
X123560D01*
X123643Y72107D01*
Y72023D01*
X123560Y71940D01*
X123643Y71857D01*
Y71773D01*
X123560Y71690D01*
X123393D01*
X123310Y71773D01*
Y71857D01*
X123393Y71940D01*
X123310Y72023D01*
Y72107D01*
X123393Y71940D02*
X123560D01*
X122033Y71700D02*
X121700D01*
X122033Y72033D01*
Y72117D01*
X121950Y72200D01*
X121783D01*
X121700Y72117D01*
X122200D02*
X122283Y72200D01*
X122450D01*
X122533Y72117D01*
Y72033D01*
X122450Y71950D01*
X122533Y71867D01*
Y71783D01*
X122450Y71700D01*
X122283D01*
X122200Y71783D01*
Y71867D01*
X122283Y71950D01*
X122200Y72033D01*
Y72117D01*
X122283Y71950D02*
X122450D01*
X121933Y92400D02*
X121600D01*
X121933Y92733D01*
Y92817D01*
X121850Y92900D01*
X121683D01*
X121600Y92817D01*
X122100D02*
X122183Y92900D01*
X122350D01*
X122433Y92817D01*
Y92733D01*
X122350Y92650D01*
X122433Y92567D01*
Y92483D01*
X122350Y92400D01*
X122183D01*
X122100Y92483D01*
Y92567D01*
X122183Y92650D01*
X122100Y92733D01*
Y92817D01*
X122183Y92650D02*
X122350D01*
X122633Y95900D02*
X122300D01*
X122633Y96233D01*
Y96317D01*
X122550Y96400D01*
X122383D01*
X122300Y96317D01*
X122800D02*
X122883Y96400D01*
X123050D01*
X123133Y96317D01*
Y95983D01*
X123050Y95900D01*
X122883D01*
X122800Y95983D01*
Y96317D01*
X122633Y94900D02*
X122300D01*
X122633Y95233D01*
Y95317D01*
X122550Y95400D01*
X122383D01*
X122300Y95317D01*
X122800D02*
X122883Y95400D01*
X123050D01*
X123133Y95317D01*
Y94983D01*
X123050Y94900D01*
X122883D01*
X122800Y94983D01*
Y95317D01*
X116533Y84400D02*
X116200D01*
X116533Y84733D01*
Y84817D01*
X116450Y84900D01*
X116283D01*
X116200Y84817D01*
X116700D02*
X116783Y84900D01*
X116950D01*
X117033Y84817D01*
Y84733D01*
X116950Y84650D01*
X117033Y84567D01*
Y84483D01*
X116950Y84400D01*
X116783D01*
X116700Y84483D01*
Y84567D01*
X116783Y84650D01*
X116700Y84733D01*
Y84817D01*
X116783Y84650D02*
X116950D01*
X132033Y91500D02*
X131700D01*
X132033Y91833D01*
Y91917D01*
X131950Y92000D01*
X131783D01*
X131700Y91917D01*
X132200D02*
X132283Y92000D01*
X132450D01*
X132533Y91917D01*
Y91833D01*
X132450Y91750D01*
X132533Y91667D01*
Y91583D01*
X132450Y91500D01*
X132283D01*
X132200Y91583D01*
Y91667D01*
X132283Y91750D01*
X132200Y91833D01*
Y91917D01*
X132283Y91750D02*
X132450D01*
X108133Y88800D02*
X107800D01*
X108133Y89133D01*
Y89217D01*
X108050Y89300D01*
X107883D01*
X107800Y89217D01*
X108300D02*
X108383Y89300D01*
X108550D01*
X108633Y89217D01*
Y89133D01*
X108550Y89050D01*
X108633Y88967D01*
Y88883D01*
X108550Y88800D01*
X108383D01*
X108300Y88883D01*
Y88967D01*
X108383Y89050D01*
X108300Y89133D01*
Y89217D01*
X108383Y89050D02*
X108550D01*
X108233Y77700D02*
X107900D01*
X108233Y78033D01*
Y78117D01*
X108150Y78200D01*
X107983D01*
X107900Y78117D01*
X108400D02*
X108483Y78200D01*
X108650D01*
X108733Y78117D01*
Y78033D01*
X108650Y77950D01*
X108733Y77867D01*
Y77783D01*
X108650Y77700D01*
X108483D01*
X108400Y77783D01*
Y77867D01*
X108483Y77950D01*
X108400Y78033D01*
Y78117D01*
X108483Y77950D02*
X108650D01*
X113433Y85000D02*
X113100D01*
X113433Y85333D01*
Y85417D01*
X113350Y85500D01*
X113183D01*
X113100Y85417D01*
X113600D02*
X113683Y85500D01*
X113850D01*
X113933Y85417D01*
Y85333D01*
X113850Y85250D01*
X113933Y85167D01*
Y85083D01*
X113850Y85000D01*
X113683D01*
X113600Y85083D01*
Y85167D01*
X113683Y85250D01*
X113600Y85333D01*
Y85417D01*
X113683Y85250D02*
X113850D01*
X117633Y86500D02*
X117300D01*
X117633Y86833D01*
Y86917D01*
X117550Y87000D01*
X117383D01*
X117300Y86917D01*
X117800D02*
X117883Y87000D01*
X118050D01*
X118133Y86917D01*
Y86833D01*
X118050Y86750D01*
X118133Y86667D01*
Y86583D01*
X118050Y86500D01*
X117883D01*
X117800Y86583D01*
Y86667D01*
X117883Y86750D01*
X117800Y86833D01*
Y86917D01*
X117883Y86750D02*
X118050D01*
X114433Y87100D02*
X114100D01*
X114433Y87433D01*
Y87517D01*
X114350Y87600D01*
X114183D01*
X114100Y87517D01*
X114600D02*
X114683Y87600D01*
X114850D01*
X114933Y87517D01*
Y87433D01*
X114850Y87350D01*
X114933Y87267D01*
Y87183D01*
X114850Y87100D01*
X114683D01*
X114600Y87183D01*
Y87267D01*
X114683Y87350D01*
X114600Y87433D01*
Y87517D01*
X114683Y87350D02*
X114850D01*
X117133Y97000D02*
X116800D01*
X117133Y97333D01*
Y97417D01*
X117050Y97500D01*
X116883D01*
X116800Y97417D01*
X117300D02*
X117383Y97500D01*
X117550D01*
X117633Y97417D01*
Y97333D01*
X117550Y97250D01*
X117633Y97167D01*
Y97083D01*
X117550Y97000D01*
X117383D01*
X117300Y97083D01*
Y97167D01*
X117383Y97250D01*
X117300Y97333D01*
Y97417D01*
X117383Y97250D02*
X117550D01*
X129633Y96200D02*
X129300D01*
X129633Y96533D01*
Y96617D01*
X129550Y96700D01*
X129383D01*
X129300Y96617D01*
X129800D02*
X129883Y96700D01*
X130050D01*
X130133Y96617D01*
Y96533D01*
X130050Y96450D01*
X130133Y96367D01*
Y96283D01*
X130050Y96200D01*
X129883D01*
X129800Y96283D01*
Y96367D01*
X129883Y96450D01*
X129800Y96533D01*
Y96617D01*
X129883Y96450D02*
X130050D01*
X126202Y96669D02*
X125869D01*
X126202Y97002D01*
Y97085D01*
X126118Y97168D01*
X125952D01*
X125869Y97085D01*
X126368D02*
X126452Y97168D01*
X126618D01*
X126702Y97085D01*
Y97002D01*
X126618Y96918D01*
X126702Y96835D01*
Y96752D01*
X126618Y96669D01*
X126452D01*
X126368Y96752D01*
Y96835D01*
X126452Y96918D01*
X126368Y97002D01*
Y97085D01*
X126452Y96918D02*
X126618D01*
X128233Y95000D02*
X127900D01*
X128233Y95333D01*
Y95417D01*
X128150Y95500D01*
X127983D01*
X127900Y95417D01*
X128400D02*
X128483Y95500D01*
X128650D01*
X128733Y95417D01*
Y95333D01*
X128650Y95250D01*
X128733Y95167D01*
Y95083D01*
X128650Y95000D01*
X128483D01*
X128400Y95083D01*
Y95167D01*
X128483Y95250D01*
X128400Y95333D01*
Y95417D01*
X128483Y95250D02*
X128650D01*
X123633Y94500D02*
X123300D01*
X123633Y94833D01*
Y94917D01*
X123550Y95000D01*
X123383D01*
X123300Y94917D01*
X123800D02*
X123883Y95000D01*
X124050D01*
X124133Y94917D01*
Y94833D01*
X124050Y94750D01*
X124133Y94667D01*
Y94583D01*
X124050Y94500D01*
X123883D01*
X123800Y94583D01*
Y94667D01*
X123883Y94750D01*
X123800Y94833D01*
Y94917D01*
X123883Y94750D02*
X124050D01*
X111733Y87000D02*
X111400D01*
X111733Y87333D01*
Y87417D01*
X111650Y87500D01*
X111483D01*
X111400Y87417D01*
X111900D02*
X111983Y87500D01*
X112150D01*
X112233Y87417D01*
Y87333D01*
X112150Y87250D01*
X112233Y87167D01*
Y87083D01*
X112150Y87000D01*
X111983D01*
X111900Y87083D01*
Y87167D01*
X111983Y87250D01*
X111900Y87333D01*
Y87417D01*
X111983Y87250D02*
X112150D01*
X110933Y87000D02*
X110600D01*
X110933Y87333D01*
Y87417D01*
X110850Y87500D01*
X110683D01*
X110600Y87417D01*
X111100D02*
X111183Y87500D01*
X111350D01*
X111433Y87417D01*
Y87333D01*
X111350Y87250D01*
X111433Y87167D01*
Y87083D01*
X111350Y87000D01*
X111183D01*
X111100Y87083D01*
Y87167D01*
X111183Y87250D01*
X111100Y87333D01*
Y87417D01*
X111183Y87250D02*
X111350D01*
X110933Y82900D02*
X110600D01*
X110933Y83233D01*
Y83317D01*
X110850Y83400D01*
X110683D01*
X110600Y83317D01*
X111100D02*
X111183Y83400D01*
X111350D01*
X111433Y83317D01*
Y83233D01*
X111350Y83150D01*
X111433Y83067D01*
Y82983D01*
X111350Y82900D01*
X111183D01*
X111100Y82983D01*
Y83067D01*
X111183Y83150D01*
X111100Y83233D01*
Y83317D01*
X111183Y83150D02*
X111350D01*
X111733Y82900D02*
X111400D01*
X111733Y83233D01*
Y83317D01*
X111650Y83400D01*
X111483D01*
X111400Y83317D01*
X111900D02*
X111983Y83400D01*
X112150D01*
X112233Y83317D01*
Y83233D01*
X112150Y83150D01*
X112233Y83067D01*
Y82983D01*
X112150Y82900D01*
X111983D01*
X111900Y82983D01*
Y83067D01*
X111983Y83150D01*
X111900Y83233D01*
Y83317D01*
X111983Y83150D02*
X112150D01*
X118133Y91600D02*
X117800D01*
X118133Y91933D01*
Y92017D01*
X118050Y92100D01*
X117883D01*
X117800Y92017D01*
X118300D02*
X118383Y92100D01*
X118550D01*
X118633Y92017D01*
Y91933D01*
X118550Y91850D01*
X118633Y91767D01*
Y91683D01*
X118550Y91600D01*
X118383D01*
X118300Y91683D01*
Y91767D01*
X118383Y91850D01*
X118300Y91933D01*
Y92017D01*
X118383Y91850D02*
X118550D01*
X114033Y89600D02*
X113700D01*
X114033Y89933D01*
Y90017D01*
X113950Y90100D01*
X113783D01*
X113700Y90017D01*
X114200D02*
X114283Y90100D01*
X114450D01*
X114533Y90017D01*
Y89933D01*
X114450Y89850D01*
X114533Y89767D01*
Y89683D01*
X114450Y89600D01*
X114283D01*
X114200Y89683D01*
Y89767D01*
X114283Y89850D01*
X114200Y89933D01*
Y90017D01*
X114283Y89850D02*
X114450D01*
X112665Y90969D02*
X112331D01*
X112665Y91302D01*
Y91385D01*
X112581Y91468D01*
X112415D01*
X112331Y91385D01*
X112831D02*
X112915Y91468D01*
X113081D01*
X113165Y91385D01*
Y91302D01*
X113081Y91218D01*
X113165Y91135D01*
Y91052D01*
X113081Y90969D01*
X112915D01*
X112831Y91052D01*
Y91135D01*
X112915Y91218D01*
X112831Y91302D01*
Y91385D01*
X112915Y91218D02*
X113081D01*
X121433Y74800D02*
X121100D01*
X121433Y75133D01*
Y75217D01*
X121350Y75300D01*
X121183D01*
X121100Y75217D01*
X121600D02*
X121683Y75300D01*
X121850D01*
X121933Y75217D01*
Y75133D01*
X121850Y75050D01*
X121933Y74967D01*
Y74883D01*
X121850Y74800D01*
X121683D01*
X121600Y74883D01*
Y74967D01*
X121683Y75050D01*
X121600Y75133D01*
Y75217D01*
X121683Y75050D02*
X121850D01*
X113033Y87000D02*
X112700D01*
X113033Y87333D01*
Y87417D01*
X112950Y87500D01*
X112783D01*
X112700Y87417D01*
X113200D02*
X113283Y87500D01*
X113450D01*
X113533Y87417D01*
Y87083D01*
X113450Y87000D01*
X113283D01*
X113200Y87083D01*
Y87417D01*
X113033Y88300D02*
X112700D01*
X113033Y88633D01*
Y88717D01*
X112950Y88800D01*
X112783D01*
X112700Y88717D01*
X113200D02*
X113283Y88800D01*
X113450D01*
X113533Y88717D01*
Y88383D01*
X113450Y88300D01*
X113283D01*
X113200Y88383D01*
Y88717D01*
X115933Y88200D02*
X115600D01*
X115933Y88533D01*
Y88617D01*
X115850Y88700D01*
X115683D01*
X115600Y88617D01*
X116100D02*
X116183Y88700D01*
X116350D01*
X116433Y88617D01*
Y88283D01*
X116350Y88200D01*
X116183D01*
X116100Y88283D01*
Y88617D01*
X115933Y86500D02*
X115600D01*
X115933Y86833D01*
Y86917D01*
X115850Y87000D01*
X115683D01*
X115600Y86917D01*
X116100D02*
X116183Y87000D01*
X116350D01*
X116433Y86917D01*
Y86583D01*
X116350Y86500D01*
X116183D01*
X116100Y86583D01*
Y86917D01*
X111750Y56150D02*
X111917D01*
X111833D01*
Y56650D01*
X111750Y56567D01*
X112500Y56150D02*
X112167D01*
X112500Y56483D01*
Y56567D01*
X112416Y56650D01*
X112250D01*
X112167Y56567D01*
X112666D02*
X112750Y56650D01*
X112916D01*
X113000Y56567D01*
Y56483D01*
X112916Y56400D01*
X113000Y56317D01*
Y56233D01*
X112916Y56150D01*
X112750D01*
X112666Y56233D01*
Y56317D01*
X112750Y56400D01*
X112666Y56483D01*
Y56567D01*
X112750Y56400D02*
X112916D01*
X113166Y56150D02*
Y56233D01*
X113250D01*
Y56150D01*
X113166D01*
X113916Y56650D02*
X113583D01*
Y56400D01*
X113749Y56483D01*
X113833D01*
X113916Y56400D01*
Y56233D01*
X113833Y56150D01*
X113666D01*
X113583Y56233D01*
X112083Y55150D02*
X111750D01*
X112083Y55483D01*
Y55567D01*
X112000Y55650D01*
X111833D01*
X111750Y55567D01*
X112250D02*
X112333Y55650D01*
X112500D01*
X112583Y55567D01*
Y55483D01*
X112500Y55400D01*
X112583Y55317D01*
Y55233D01*
X112500Y55150D01*
X112333D01*
X112250Y55233D01*
Y55317D01*
X112333Y55400D01*
X112250Y55483D01*
Y55567D01*
X112333Y55400D02*
X112500D01*
X112083Y54150D02*
X111750D01*
X112083Y54483D01*
Y54567D01*
X112000Y54650D01*
X111833D01*
X111750Y54567D01*
X112250D02*
X112333Y54650D01*
X112500D01*
X112583Y54567D01*
Y54233D01*
X112500Y54150D01*
X112333D01*
X112250Y54233D01*
Y54567D01*
X111750Y53150D02*
X111917D01*
X111833D01*
Y53650D01*
X111750Y53567D01*
X112167Y53150D02*
X112333D01*
X112250D01*
Y53650D01*
X112167Y53567D01*
X112583D02*
X112666Y53650D01*
X112833D01*
X112916Y53567D01*
Y53233D01*
X112833Y53150D01*
X112666D01*
X112583Y53233D01*
Y53567D01*
X111750Y52567D02*
X111833Y52650D01*
X112000D01*
X112083Y52567D01*
Y52483D01*
X112000Y52400D01*
X111917D01*
X112000D01*
X112083Y52317D01*
Y52233D01*
X112000Y52150D01*
X111833D01*
X111750Y52233D01*
X112250Y52567D02*
X112333Y52650D01*
X112500D01*
X112583Y52567D01*
Y52483D01*
X112500Y52400D01*
X112583Y52317D01*
Y52233D01*
X112500Y52150D01*
X112333D01*
X112250Y52233D01*
Y52317D01*
X112333Y52400D01*
X112250Y52483D01*
Y52567D01*
X112333Y52400D02*
X112500D01*
X111750Y51567D02*
X111833Y51650D01*
X112000D01*
X112083Y51567D01*
Y51483D01*
X112000Y51400D01*
X111917D01*
X112000D01*
X112083Y51317D01*
Y51233D01*
X112000Y51150D01*
X111833D01*
X111750Y51233D01*
X112583Y51650D02*
X112250D01*
Y51400D01*
X112416Y51483D01*
X112500D01*
X112583Y51400D01*
Y51233D01*
X112500Y51150D01*
X112333D01*
X112250Y51233D01*
X112000Y50150D02*
Y50650D01*
X111750Y50400D01*
X112083D01*
X112583Y50150D02*
X112250D01*
X112583Y50483D01*
Y50567D01*
X112500Y50650D01*
X112333D01*
X112250Y50567D01*
D60*
X80000Y50200D02*
Y49000D01*
X80600D01*
X80800Y49200D01*
Y50000D01*
X80600Y50200D01*
X80000D01*
X81200Y49000D02*
Y50200D01*
X81799D01*
X81999Y50000D01*
Y49600D01*
X81799Y49400D01*
X81200D01*
X81599D02*
X81999Y49000D01*
X82399Y50200D02*
X82799D01*
X82599D01*
Y49000D01*
X82399D01*
X82799D01*
X83399Y50200D02*
Y49000D01*
X84199D01*
X84599Y50200D02*
Y49000D01*
X85398D01*
X86998Y50200D02*
Y49000D01*
X87598D01*
X87797Y49200D01*
Y50000D01*
X87598Y50200D01*
X86998D01*
X88197Y49000D02*
Y50200D01*
X88797D01*
X88997Y50000D01*
Y49600D01*
X88797Y49400D01*
X88197D01*
X88597D02*
X88997Y49000D01*
X89397D02*
Y49800D01*
X89797Y50200D01*
X90197Y49800D01*
Y49000D01*
Y49600D01*
X89397D01*
X90597Y50200D02*
Y49000D01*
X90996Y49400D01*
X91396Y49000D01*
Y50200D01*
X91796D02*
X92196D01*
X91996D01*
Y49000D01*
X91796D01*
X92196D01*
X92796D02*
Y50200D01*
X93596Y49000D01*
Y50200D01*
X94795Y50000D02*
X94595Y50200D01*
X94195D01*
X93995Y50000D01*
Y49200D01*
X94195Y49000D01*
X94595D01*
X94795Y49200D01*
Y49600D01*
X94395D01*
X96000Y50200D02*
Y49000D01*
X96600D01*
X96800Y49200D01*
Y50000D01*
X96600Y50200D01*
X96000D01*
X97799D02*
X97400D01*
X97200Y50000D01*
Y49200D01*
X97400Y49000D01*
X97799D01*
X97999Y49200D01*
Y50000D01*
X97799Y50200D01*
X99599Y49000D02*
Y50200D01*
X100399Y49000D01*
Y50200D01*
X101398D02*
X100998D01*
X100798Y50000D01*
Y49200D01*
X100998Y49000D01*
X101398D01*
X101598Y49200D01*
Y50000D01*
X101398Y50200D01*
X101998D02*
X102798D01*
X102398D01*
Y49000D01*
X105197Y50200D02*
X104397D01*
Y49600D01*
X104797D01*
X104397D01*
Y49000D01*
X105597D02*
Y49800D01*
X105997Y50200D01*
X106397Y49800D01*
Y49000D01*
Y49600D01*
X105597D01*
X106797Y50200D02*
Y49000D01*
X107396D01*
X107596Y49200D01*
Y49400D01*
X107396Y49600D01*
X106797D01*
X107396D01*
X107596Y49800D01*
Y50000D01*
X107396Y50200D01*
X106797D01*
X107996Y49400D02*
Y50400D01*
Y49200D02*
Y49000D01*
M02*
