%FSLAX24Y24*%
%MOIN*%
G70*
G01*
G75*
%ADD10R,0.0500X0.0600*%
%ADD11R,0.0320X0.0950*%
%ADD12R,0.0600X0.0500*%
%ADD13R,0.0360X0.0360*%
%ADD14R,0.0500X0.0360*%
%ADD15C,0.0200*%
%ADD16C,0.0500*%
%ADD17C,0.0150*%
%ADD18C,0.0300*%
%ADD19R,0.1000X0.6600*%
%ADD20C,0.0700*%
%ADD21O,0.0600X0.0750*%
%ADD22C,0.1280*%
%ADD23C,0.1000*%
%ADD24R,0.0700X0.0700*%
%ADD25C,0.0500*%
%ADD26C,0.0400*%
%ADD27C,0.0120*%
%ADD28C,0.0400*%
%ADD29R,0.1000X0.3500*%
%ADD30C,0.0080*%
%ADD31C,0.0079*%
%ADD32C,0.0100*%
%ADD33C,0.0000*%
%ADD34R,0.0580X0.0680*%
%ADD35R,0.0400X0.1030*%
%ADD36R,0.0680X0.0580*%
%ADD37R,0.0440X0.0440*%
%ADD38R,0.0580X0.0440*%
%ADD39C,0.0780*%
%ADD40O,0.0680X0.0830*%
%ADD41C,0.1360*%
%ADD42C,0.1080*%
%ADD43R,0.0780X0.0780*%
%ADD44C,0.0580*%
%ADD45C,0.0480*%
D17*
X134200Y75800D02*
Y76200D01*
Y76000D01*
X134800D01*
Y76400D02*
X134200D01*
X134400Y76600D01*
X134200Y76800D01*
X134800D01*
Y77000D02*
X134400D01*
X134200Y77200D01*
X134400Y77399D01*
X134800D01*
X134500D01*
Y77000D01*
X134300Y77999D02*
X134200Y77899D01*
Y77699D01*
X134300Y77599D01*
X134400D01*
X134500Y77699D01*
Y77899D01*
X134600Y77999D01*
X134700D01*
X134800Y77899D01*
Y77699D01*
X134700Y77599D01*
X134200Y78199D02*
X134800D01*
X134600D01*
X134200Y78599D01*
X134500Y78299D01*
X134800Y78599D01*
D34*
X120100Y95500D02*
D03*
Y94600D02*
D03*
X115000Y89400D02*
D03*
Y88500D02*
D03*
X125300Y95500D02*
D03*
X121300Y94580D02*
D03*
Y95480D02*
D03*
X122500Y95450D02*
D03*
X111700Y88500D02*
D03*
X129400Y94600D02*
D03*
X122500Y94550D02*
D03*
X125300Y94600D02*
D03*
X129400Y95500D02*
D03*
X111700Y89400D02*
D03*
X108000Y89400D02*
D03*
Y88500D02*
D03*
X113800Y89400D02*
D03*
Y88500D02*
D03*
X124100Y95500D02*
D03*
X124100Y94600D02*
D03*
D35*
X117600Y88000D02*
D03*
X116100Y89969D02*
D03*
X116600D02*
D03*
X117100D02*
D03*
X117100Y88000D02*
D03*
X109100Y89969D02*
D03*
X110100D02*
D03*
X109600D02*
D03*
X109100Y88000D02*
D03*
X116100D02*
D03*
X116600Y88000D02*
D03*
X109600D02*
D03*
X110100D02*
D03*
X110600Y88000D02*
D03*
X117600Y89969D02*
D03*
X110600D02*
D03*
X127400Y94000D02*
D03*
X126400Y94000D02*
D03*
X127900Y95969D02*
D03*
X127400D02*
D03*
X126900D02*
D03*
X126400D02*
D03*
X127900Y94000D02*
D03*
X126900Y94000D02*
D03*
D36*
X130600Y97800D02*
D03*
X116400Y91500D02*
D03*
X117300D02*
D03*
X131500Y97800D02*
D03*
X110300Y91500D02*
D03*
X109400D02*
D03*
X123750Y99400D02*
D03*
X130600Y99000D02*
D03*
X131500D02*
D03*
X122850Y99400D02*
D03*
Y98200D02*
D03*
X123750D02*
D03*
D37*
X121550Y99450D02*
D03*
Y98700D02*
D03*
D38*
X120750Y99080D02*
D03*
D39*
X119600Y99000D02*
D03*
X121100Y74000D02*
D03*
X130800Y93300D02*
D03*
Y95000D02*
D03*
X121100Y86800D02*
D03*
Y88000D02*
D03*
X110200Y70000D02*
D03*
Y67500D02*
D03*
X125350Y98400D02*
D03*
X126350Y99400D02*
D03*
Y98400D02*
D03*
X125350Y99400D02*
D03*
X128850Y99400D02*
D03*
Y98400D02*
D03*
X127850Y99400D02*
D03*
Y98400D02*
D03*
X124100Y70000D02*
D03*
Y71000D02*
D03*
Y72000D02*
D03*
Y73000D02*
D03*
X130100Y88000D02*
D03*
Y89000D02*
D03*
Y78000D02*
D03*
X124100Y74000D02*
D03*
X130100Y86000D02*
D03*
Y87000D02*
D03*
Y82000D02*
D03*
Y83000D02*
D03*
Y84000D02*
D03*
Y85000D02*
D03*
Y80000D02*
D03*
Y81000D02*
D03*
Y75000D02*
D03*
Y76000D02*
D03*
Y77000D02*
D03*
X124100Y81000D02*
D03*
Y77000D02*
D03*
Y78000D02*
D03*
Y79000D02*
D03*
Y80000D02*
D03*
X130100Y70000D02*
D03*
X124100Y82000D02*
D03*
Y83000D02*
D03*
Y84000D02*
D03*
Y85000D02*
D03*
Y86000D02*
D03*
Y87000D02*
D03*
Y88000D02*
D03*
X130100Y79000D02*
D03*
X124100Y76000D02*
D03*
Y75000D02*
D03*
X130100Y71000D02*
D03*
Y72000D02*
D03*
Y73000D02*
D03*
Y74000D02*
D03*
D40*
X112350Y95000D02*
D03*
X113850Y96000D02*
D03*
X112850Y96000D02*
D03*
X113350Y95000D02*
D03*
X114350D02*
D03*
X114850Y96000D02*
D03*
X111850D02*
D03*
X111400Y95000D02*
D03*
D41*
X115350Y98500D02*
D03*
X110850D02*
D03*
D42*
X112350Y67500D02*
D03*
X113850D02*
D03*
D43*
X124100Y89000D02*
D03*
D44*
X122300Y92250D02*
D03*
X120700Y97500D02*
D03*
X123300Y93250D02*
D03*
X129400Y96400D02*
D03*
X127900Y95000D02*
D03*
X125750Y96500D02*
D03*
X124100Y93700D02*
D03*
X113800Y87600D02*
D03*
X118200Y90000D02*
D03*
X111300Y90400D02*
D03*
X116500Y97200D02*
D03*
X122300Y97300D02*
D03*
X108350Y87550D02*
D03*
D45*
X125600Y93700D02*
D03*
X119200Y88000D02*
D03*
Y86800D02*
D03*
X113400D02*
D03*
X112200D02*
D03*
X121550Y98200D02*
D03*
M02*
