%FSLAX24Y24*%
%MOIN*%
G70*
G01*
G75*
%ADD10R,0.0500X0.0600*%
%ADD11R,0.0320X0.0950*%
%ADD12R,0.0600X0.0500*%
%ADD13R,0.0360X0.0360*%
%ADD14R,0.0500X0.0360*%
%ADD15C,0.0200*%
%ADD16C,0.0500*%
%ADD17C,0.0150*%
%ADD18C,0.0300*%
%ADD19R,0.1000X0.6600*%
%ADD20C,0.0700*%
%ADD21O,0.0600X0.0750*%
%ADD22C,0.1280*%
%ADD23C,0.1000*%
%ADD24R,0.0700X0.0700*%
%ADD25C,0.0500*%
%ADD26C,0.0400*%
%ADD27C,0.0120*%
%ADD28C,0.0400*%
%ADD29R,0.1000X0.3500*%
%ADD30C,0.0080*%
%ADD31C,0.0079*%
%ADD32C,0.0100*%
%ADD33C,0.0000*%
%ADD34R,0.0580X0.0680*%
%ADD35R,0.0400X0.1030*%
%ADD36R,0.0680X0.0580*%
%ADD37R,0.0440X0.0440*%
%ADD38R,0.0580X0.0440*%
%ADD39C,0.0780*%
%ADD40O,0.0680X0.0830*%
%ADD41C,0.1360*%
%ADD42C,0.1080*%
%ADD43R,0.0780X0.0780*%
%ADD44C,0.0580*%
%ADD45C,0.0480*%
%ADD46C,0.0040*%
D30*
X114983Y55650D02*
X114817Y55567D01*
X114650Y55400D01*
Y55233D01*
X114733Y55150D01*
X114900D01*
X114983Y55233D01*
Y55317D01*
X114900Y55400D01*
X114650D01*
X119043Y55150D02*
X118710D01*
X119043Y55483D01*
Y55567D01*
X118960Y55650D01*
X118793D01*
X118710Y55567D01*
X119210D02*
X119293Y55650D01*
X119460D01*
X119543Y55567D01*
Y55233D01*
X119460Y55150D01*
X119293D01*
X119210Y55233D01*
Y55567D01*
X119710Y55150D02*
Y55483D01*
X119793D01*
X119876Y55400D01*
Y55150D01*
Y55400D01*
X119960Y55483D01*
X120043Y55400D01*
Y55150D01*
X120210D02*
X120376D01*
X120293D01*
Y55483D01*
X120210D01*
X120626Y55150D02*
X120793D01*
X120709D01*
Y55650D01*
X120626D01*
X124510Y55567D02*
X124593Y55650D01*
X124760D01*
X124843Y55567D01*
Y55233D01*
X124760Y55150D01*
X124593D01*
X124510Y55233D01*
Y55567D01*
X125010Y55150D02*
Y55233D01*
X125093D01*
Y55150D01*
X125010D01*
X125760Y55650D02*
X125426D01*
Y55400D01*
X125593Y55483D01*
X125676D01*
X125760Y55400D01*
Y55233D01*
X125676Y55150D01*
X125510D01*
X125426Y55233D01*
X125926Y55567D02*
X126010Y55650D01*
X126176D01*
X126259Y55567D01*
Y55233D01*
X126176Y55150D01*
X126010D01*
X125926Y55233D01*
Y55567D01*
X126426D02*
X126509Y55650D01*
X126676D01*
X126759Y55567D01*
Y55483D01*
X126676Y55400D01*
X126759Y55317D01*
Y55233D01*
X126676Y55150D01*
X126509D01*
X126426Y55233D01*
Y55317D01*
X126509Y55400D01*
X126426Y55483D01*
Y55567D01*
X126509Y55400D02*
X126676D01*
X126926Y55150D02*
Y55483D01*
X127009D01*
X127093Y55400D01*
Y55150D01*
Y55400D01*
X127176Y55483D01*
X127259Y55400D01*
Y55150D01*
X127426D02*
Y55483D01*
X127509D01*
X127592Y55400D01*
Y55150D01*
Y55400D01*
X127676Y55483D01*
X127759Y55400D01*
Y55150D01*
X130310D02*
Y55650D01*
X130560D01*
X130643Y55567D01*
Y55400D01*
X130560Y55317D01*
X130310D01*
X130810Y55650D02*
X131143D01*
X130976D01*
Y55150D01*
X131310Y55650D02*
Y55150D01*
Y55400D01*
X131643D01*
Y55650D01*
Y55150D01*
X114650Y54150D02*
X114817D01*
X114733D01*
Y54650D01*
X114650Y54567D01*
X115067D02*
X115150Y54650D01*
X115316D01*
X115400Y54567D01*
Y54483D01*
X115316Y54400D01*
X115233D01*
X115316D01*
X115400Y54317D01*
Y54233D01*
X115316Y54150D01*
X115150D01*
X115067Y54233D01*
X119043Y54150D02*
X118710D01*
X119043Y54483D01*
Y54567D01*
X118960Y54650D01*
X118793D01*
X118710Y54567D01*
X119210D02*
X119293Y54650D01*
X119460D01*
X119543Y54567D01*
Y54483D01*
X119460Y54400D01*
X119543Y54317D01*
Y54233D01*
X119460Y54150D01*
X119293D01*
X119210Y54233D01*
Y54317D01*
X119293Y54400D01*
X119210Y54483D01*
Y54567D01*
X119293Y54400D02*
X119460D01*
X119710Y54150D02*
Y54483D01*
X119793D01*
X119876Y54400D01*
Y54150D01*
Y54400D01*
X119960Y54483D01*
X120043Y54400D01*
Y54150D01*
X120210D02*
X120376D01*
X120293D01*
Y54483D01*
X120210D01*
X120626Y54150D02*
X120793D01*
X120709D01*
Y54650D01*
X120626D01*
X124510Y54567D02*
X124593Y54650D01*
X124760D01*
X124843Y54567D01*
Y54233D01*
X124760Y54150D01*
X124593D01*
X124510Y54233D01*
Y54567D01*
X125010Y54150D02*
Y54233D01*
X125093D01*
Y54150D01*
X125010D01*
X125426Y54650D02*
X125760D01*
Y54567D01*
X125426Y54233D01*
Y54150D01*
X125926D02*
X126093D01*
X126010D01*
Y54650D01*
X125926Y54567D01*
X126343Y54150D02*
X126509D01*
X126426D01*
Y54650D01*
X126343Y54567D01*
X127093Y54150D02*
X126759D01*
X127093Y54483D01*
Y54567D01*
X127009Y54650D01*
X126843D01*
X126759Y54567D01*
X127259Y54150D02*
Y54483D01*
X127342D01*
X127426Y54400D01*
Y54150D01*
Y54400D01*
X127509Y54483D01*
X127592Y54400D01*
Y54150D01*
X127759D02*
Y54483D01*
X127842D01*
X127926Y54400D01*
Y54150D01*
Y54400D01*
X128009Y54483D01*
X128092Y54400D01*
Y54150D01*
X130310D02*
Y54650D01*
X130560D01*
X130643Y54567D01*
Y54400D01*
X130560Y54317D01*
X130310D01*
X130810Y54650D02*
X131143D01*
X130976D01*
Y54150D01*
X131310Y54650D02*
Y54150D01*
Y54400D01*
X131643D01*
Y54650D01*
Y54150D01*
X114983Y53650D02*
X114650D01*
Y53400D01*
X114817Y53483D01*
X114900D01*
X114983Y53400D01*
Y53233D01*
X114900Y53150D01*
X114733D01*
X114650Y53233D01*
X115483Y53650D02*
X115316Y53567D01*
X115150Y53400D01*
Y53233D01*
X115233Y53150D01*
X115400D01*
X115483Y53233D01*
Y53317D01*
X115400Y53400D01*
X115150D01*
X118710Y53567D02*
X118793Y53650D01*
X118960D01*
X119043Y53567D01*
Y53483D01*
X118960Y53400D01*
X118877D01*
X118960D01*
X119043Y53317D01*
Y53233D01*
X118960Y53150D01*
X118793D01*
X118710Y53233D01*
X119543Y53650D02*
X119210D01*
Y53400D01*
X119376Y53483D01*
X119460D01*
X119543Y53400D01*
Y53233D01*
X119460Y53150D01*
X119293D01*
X119210Y53233D01*
X119710Y53150D02*
Y53483D01*
X119793D01*
X119876Y53400D01*
Y53150D01*
Y53400D01*
X119960Y53483D01*
X120043Y53400D01*
Y53150D01*
X120210D02*
X120376D01*
X120293D01*
Y53483D01*
X120210D01*
X120626Y53150D02*
X120793D01*
X120709D01*
Y53650D01*
X120626D01*
X124510Y53567D02*
X124593Y53650D01*
X124760D01*
X124843Y53567D01*
Y53233D01*
X124760Y53150D01*
X124593D01*
X124510Y53233D01*
Y53567D01*
X125010Y53150D02*
Y53233D01*
X125093D01*
Y53150D01*
X125010D01*
X125426Y53567D02*
X125510Y53650D01*
X125676D01*
X125760Y53567D01*
Y53483D01*
X125676Y53400D01*
X125760Y53317D01*
Y53233D01*
X125676Y53150D01*
X125510D01*
X125426Y53233D01*
Y53317D01*
X125510Y53400D01*
X125426Y53483D01*
Y53567D01*
X125510Y53400D02*
X125676D01*
X125926Y53567D02*
X126010Y53650D01*
X126176D01*
X126259Y53567D01*
Y53483D01*
X126176Y53400D01*
X126259Y53317D01*
Y53233D01*
X126176Y53150D01*
X126010D01*
X125926Y53233D01*
Y53317D01*
X126010Y53400D01*
X125926Y53483D01*
Y53567D01*
X126010Y53400D02*
X126176D01*
X126426Y53233D02*
X126509Y53150D01*
X126676D01*
X126759Y53233D01*
Y53567D01*
X126676Y53650D01*
X126509D01*
X126426Y53567D01*
Y53483D01*
X126509Y53400D01*
X126759D01*
X126926Y53150D02*
Y53483D01*
X127009D01*
X127093Y53400D01*
Y53150D01*
Y53400D01*
X127176Y53483D01*
X127259Y53400D01*
Y53150D01*
X127426D02*
Y53483D01*
X127509D01*
X127592Y53400D01*
Y53150D01*
Y53400D01*
X127676Y53483D01*
X127759Y53400D01*
Y53150D01*
X130310D02*
Y53650D01*
X130560D01*
X130643Y53567D01*
Y53400D01*
X130560Y53317D01*
X130310D01*
X130810Y53650D02*
X131143D01*
X130976D01*
Y53150D01*
X131310Y53650D02*
Y53150D01*
Y53400D01*
X131643D01*
Y53650D01*
Y53150D01*
X114650Y52567D02*
X114733Y52650D01*
X114900D01*
X114983Y52567D01*
Y52483D01*
X114900Y52400D01*
X114983Y52317D01*
Y52233D01*
X114900Y52150D01*
X114733D01*
X114650Y52233D01*
Y52317D01*
X114733Y52400D01*
X114650Y52483D01*
Y52567D01*
X114733Y52400D02*
X114900D01*
X118710Y52567D02*
X118793Y52650D01*
X118960D01*
X119043Y52567D01*
Y52483D01*
X118960Y52400D01*
X118877D01*
X118960D01*
X119043Y52317D01*
Y52233D01*
X118960Y52150D01*
X118793D01*
X118710Y52233D01*
X119210Y52567D02*
X119293Y52650D01*
X119460D01*
X119543Y52567D01*
Y52483D01*
X119460Y52400D01*
X119543Y52317D01*
Y52233D01*
X119460Y52150D01*
X119293D01*
X119210Y52233D01*
Y52317D01*
X119293Y52400D01*
X119210Y52483D01*
Y52567D01*
X119293Y52400D02*
X119460D01*
X119710Y52150D02*
Y52483D01*
X119793D01*
X119876Y52400D01*
Y52150D01*
Y52400D01*
X119960Y52483D01*
X120043Y52400D01*
Y52150D01*
X120210D02*
X120376D01*
X120293D01*
Y52483D01*
X120210D01*
X120626Y52150D02*
X120793D01*
X120709D01*
Y52650D01*
X120626D01*
X124510Y52567D02*
X124593Y52650D01*
X124760D01*
X124843Y52567D01*
Y52233D01*
X124760Y52150D01*
X124593D01*
X124510Y52233D01*
Y52567D01*
X125010Y52150D02*
Y52233D01*
X125093D01*
Y52150D01*
X125010D01*
X125426Y52233D02*
X125510Y52150D01*
X125676D01*
X125760Y52233D01*
Y52567D01*
X125676Y52650D01*
X125510D01*
X125426Y52567D01*
Y52483D01*
X125510Y52400D01*
X125760D01*
X126259Y52650D02*
X126093Y52567D01*
X125926Y52400D01*
Y52233D01*
X126010Y52150D01*
X126176D01*
X126259Y52233D01*
Y52317D01*
X126176Y52400D01*
X125926D01*
X126759Y52650D02*
X126426D01*
Y52400D01*
X126593Y52483D01*
X126676D01*
X126759Y52400D01*
Y52233D01*
X126676Y52150D01*
X126509D01*
X126426Y52233D01*
X127259Y52150D02*
X126926D01*
X127259Y52483D01*
Y52567D01*
X127176Y52650D01*
X127009D01*
X126926Y52567D01*
X127426Y52150D02*
Y52483D01*
X127509D01*
X127592Y52400D01*
Y52150D01*
Y52400D01*
X127676Y52483D01*
X127759Y52400D01*
Y52150D01*
X127926D02*
Y52483D01*
X128009D01*
X128092Y52400D01*
Y52150D01*
Y52400D01*
X128175Y52483D01*
X128259Y52400D01*
Y52150D01*
X130310D02*
Y52650D01*
X130560D01*
X130643Y52567D01*
Y52400D01*
X130560Y52317D01*
X130310D01*
X130810Y52650D02*
X131143D01*
X130976D01*
Y52150D01*
X131310Y52650D02*
Y52150D01*
Y52400D01*
X131643D01*
Y52650D01*
Y52150D01*
X114983Y51150D02*
X114650D01*
X114983Y51483D01*
Y51567D01*
X114900Y51650D01*
X114733D01*
X114650Y51567D01*
X119043Y51650D02*
X118710D01*
Y51400D01*
X118877Y51483D01*
X118960D01*
X119043Y51400D01*
Y51233D01*
X118960Y51150D01*
X118793D01*
X118710Y51233D01*
X119210D02*
X119293Y51150D01*
X119460D01*
X119543Y51233D01*
Y51567D01*
X119460Y51650D01*
X119293D01*
X119210Y51567D01*
Y51483D01*
X119293Y51400D01*
X119543D01*
X119710Y51150D02*
Y51233D01*
X119793D01*
Y51150D01*
X119710D01*
X120459Y51650D02*
X120126D01*
Y51400D01*
X120293Y51483D01*
X120376D01*
X120459Y51400D01*
Y51233D01*
X120376Y51150D01*
X120210D01*
X120126Y51233D01*
X120626Y51150D02*
Y51483D01*
X120709D01*
X120793Y51400D01*
Y51150D01*
Y51400D01*
X120876Y51483D01*
X120959Y51400D01*
Y51150D01*
X121126D02*
X121292D01*
X121209D01*
Y51483D01*
X121126D01*
X121542Y51150D02*
X121709D01*
X121626D01*
Y51650D01*
X121542D01*
X124510Y51150D02*
X124677D01*
X124593D01*
Y51650D01*
X124510Y51567D01*
X124927Y51150D02*
Y51233D01*
X125010D01*
Y51150D01*
X124927D01*
X125676Y51650D02*
X125343D01*
Y51400D01*
X125510Y51483D01*
X125593D01*
X125676Y51400D01*
Y51233D01*
X125593Y51150D01*
X125426D01*
X125343Y51233D01*
X125843Y51150D02*
X126010D01*
X125926D01*
Y51650D01*
X125843Y51567D01*
X126259Y51150D02*
X126426D01*
X126343D01*
Y51650D01*
X126259Y51567D01*
X126676D02*
X126759Y51650D01*
X126926D01*
X127009Y51567D01*
Y51483D01*
X126926Y51400D01*
X126843D01*
X126926D01*
X127009Y51317D01*
Y51233D01*
X126926Y51150D01*
X126759D01*
X126676Y51233D01*
X127176Y51150D02*
Y51483D01*
X127259D01*
X127342Y51400D01*
Y51150D01*
Y51400D01*
X127426Y51483D01*
X127509Y51400D01*
Y51150D01*
X127676D02*
Y51483D01*
X127759D01*
X127842Y51400D01*
Y51150D01*
Y51400D01*
X127926Y51483D01*
X128009Y51400D01*
Y51150D01*
X130310D02*
Y51650D01*
X130560D01*
X130643Y51567D01*
Y51400D01*
X130560Y51317D01*
X130310D01*
X130810Y51650D02*
X131143D01*
X130976D01*
Y51150D01*
X131310Y51650D02*
Y51150D01*
Y51400D01*
X131643D01*
Y51650D01*
Y51150D01*
X114983Y50150D02*
X114650D01*
X114983Y50483D01*
Y50567D01*
X114900Y50650D01*
X114733D01*
X114650Y50567D01*
X118710Y50150D02*
X118877D01*
X118793D01*
Y50650D01*
X118710Y50567D01*
X119460Y50150D02*
X119127D01*
X119460Y50483D01*
Y50567D01*
X119376Y50650D01*
X119210D01*
X119127Y50567D01*
X119626D02*
X119710Y50650D01*
X119876D01*
X119960Y50567D01*
Y50483D01*
X119876Y50400D01*
X119960Y50317D01*
Y50233D01*
X119876Y50150D01*
X119710D01*
X119626Y50233D01*
Y50317D01*
X119710Y50400D01*
X119626Y50483D01*
Y50567D01*
X119710Y50400D02*
X119876D01*
X120126Y50150D02*
Y50233D01*
X120210D01*
Y50150D01*
X120126D01*
X120876Y50650D02*
X120543D01*
Y50400D01*
X120709Y50483D01*
X120793D01*
X120876Y50400D01*
Y50233D01*
X120793Y50150D01*
X120626D01*
X120543Y50233D01*
X121043Y50150D02*
Y50483D01*
X121126D01*
X121209Y50400D01*
Y50150D01*
Y50400D01*
X121292Y50483D01*
X121376Y50400D01*
Y50150D01*
X121542D02*
X121709D01*
X121626D01*
Y50483D01*
X121542D01*
X121959Y50150D02*
X122126D01*
X122042D01*
Y50650D01*
X121959D01*
X124510Y50567D02*
X124593Y50650D01*
X124760D01*
X124843Y50567D01*
Y50483D01*
X124760Y50400D01*
X124677D01*
X124760D01*
X124843Y50317D01*
Y50233D01*
X124760Y50150D01*
X124593D01*
X124510Y50233D01*
X125010Y50150D02*
Y50233D01*
X125093D01*
Y50150D01*
X125010D01*
X125760D02*
X125426D01*
X125760Y50483D01*
Y50567D01*
X125676Y50650D01*
X125510D01*
X125426Y50567D01*
X126259Y50650D02*
X126093Y50567D01*
X125926Y50400D01*
Y50233D01*
X126010Y50150D01*
X126176D01*
X126259Y50233D01*
Y50317D01*
X126176Y50400D01*
X125926D01*
X126426Y50567D02*
X126509Y50650D01*
X126676D01*
X126759Y50567D01*
Y50483D01*
X126676Y50400D01*
X126593D01*
X126676D01*
X126759Y50317D01*
Y50233D01*
X126676Y50150D01*
X126509D01*
X126426Y50233D01*
X126926D02*
X127009Y50150D01*
X127176D01*
X127259Y50233D01*
Y50567D01*
X127176Y50650D01*
X127009D01*
X126926Y50567D01*
Y50483D01*
X127009Y50400D01*
X127259D01*
X127426Y50150D02*
Y50483D01*
X127509D01*
X127592Y50400D01*
Y50150D01*
Y50400D01*
X127676Y50483D01*
X127759Y50400D01*
Y50150D01*
X127926D02*
Y50483D01*
X128009D01*
X128092Y50400D01*
Y50150D01*
Y50400D01*
X128175Y50483D01*
X128259Y50400D01*
Y50150D01*
X130310D02*
Y50650D01*
X130560D01*
X130643Y50567D01*
Y50400D01*
X130560Y50317D01*
X130310D01*
X130810Y50650D02*
X131143D01*
X130976D01*
Y50150D01*
X131310Y50650D02*
Y50150D01*
Y50400D01*
X131643D01*
Y50650D01*
Y50150D01*
X114650Y49567D02*
X114733Y49650D01*
X114900D01*
X114983Y49567D01*
Y49483D01*
X114900Y49400D01*
X114983Y49317D01*
Y49233D01*
X114900Y49150D01*
X114733D01*
X114650Y49233D01*
Y49317D01*
X114733Y49400D01*
X114650Y49483D01*
Y49567D01*
X114733Y49400D02*
X114900D01*
X115150Y49650D02*
X115483D01*
Y49567D01*
X115150Y49233D01*
Y49150D01*
X118710Y49650D02*
X119043D01*
X118877D01*
Y49150D01*
X119293D02*
X119460D01*
X119543Y49233D01*
Y49400D01*
X119460Y49483D01*
X119293D01*
X119210Y49400D01*
Y49233D01*
X119293Y49150D01*
X119793Y49567D02*
Y49483D01*
X119710D01*
X119876D01*
X119793D01*
Y49233D01*
X119876Y49150D01*
X120210Y49483D02*
X120376D01*
X120459Y49400D01*
Y49150D01*
X120210D01*
X120126Y49233D01*
X120210Y49317D01*
X120459D01*
X120626Y49150D02*
X120793D01*
X120709D01*
Y49650D01*
X120626D01*
D33*
X119600Y99417D02*
X119683Y99500D01*
X119850D01*
X119933Y99417D01*
Y99333D01*
X119850Y99250D01*
X119767D01*
X119850D01*
X119933Y99167D01*
Y99083D01*
X119850Y99000D01*
X119683D01*
X119600Y99083D01*
X120100Y99417D02*
X120183Y99500D01*
X120350D01*
X120433Y99417D01*
Y99333D01*
X120350Y99250D01*
X120433Y99167D01*
Y99083D01*
X120350Y99000D01*
X120183D01*
X120100Y99083D01*
Y99167D01*
X120183Y99250D01*
X120100Y99333D01*
Y99417D01*
X120183Y99250D02*
X120350D01*
X121100Y74417D02*
X121183Y74500D01*
X121350D01*
X121433Y74417D01*
Y74333D01*
X121350Y74250D01*
X121267D01*
X121350D01*
X121433Y74167D01*
Y74083D01*
X121350Y74000D01*
X121183D01*
X121100Y74083D01*
X121600Y74417D02*
X121683Y74500D01*
X121850D01*
X121933Y74417D01*
Y74333D01*
X121850Y74250D01*
X121933Y74167D01*
Y74083D01*
X121850Y74000D01*
X121683D01*
X121600Y74083D01*
Y74167D01*
X121683Y74250D01*
X121600Y74333D01*
Y74417D01*
X121683Y74250D02*
X121850D01*
X130800Y93717D02*
X130883Y93800D01*
X131050D01*
X131133Y93717D01*
Y93633D01*
X131050Y93550D01*
X130967D01*
X131050D01*
X131133Y93467D01*
Y93383D01*
X131050Y93300D01*
X130883D01*
X130800Y93383D01*
X131300Y93717D02*
X131383Y93800D01*
X131550D01*
X131633Y93717D01*
Y93633D01*
X131550Y93550D01*
X131633Y93467D01*
Y93383D01*
X131550Y93300D01*
X131383D01*
X131300Y93383D01*
Y93467D01*
X131383Y93550D01*
X131300Y93633D01*
Y93717D01*
X131383Y93550D02*
X131550D01*
X130800Y95417D02*
X130883Y95500D01*
X131050D01*
X131133Y95417D01*
Y95333D01*
X131050Y95250D01*
X130967D01*
X131050D01*
X131133Y95167D01*
Y95083D01*
X131050Y95000D01*
X130883D01*
X130800Y95083D01*
X131300Y95417D02*
X131383Y95500D01*
X131550D01*
X131633Y95417D01*
Y95333D01*
X131550Y95250D01*
X131633Y95167D01*
Y95083D01*
X131550Y95000D01*
X131383D01*
X131300Y95083D01*
Y95167D01*
X131383Y95250D01*
X131300Y95333D01*
Y95417D01*
X131383Y95250D02*
X131550D01*
X121100Y87217D02*
X121183Y87300D01*
X121350D01*
X121433Y87217D01*
Y87133D01*
X121350Y87050D01*
X121267D01*
X121350D01*
X121433Y86967D01*
Y86883D01*
X121350Y86800D01*
X121183D01*
X121100Y86883D01*
X121600Y87217D02*
X121683Y87300D01*
X121850D01*
X121933Y87217D01*
Y87133D01*
X121850Y87050D01*
X121933Y86967D01*
Y86883D01*
X121850Y86800D01*
X121683D01*
X121600Y86883D01*
Y86967D01*
X121683Y87050D01*
X121600Y87133D01*
Y87217D01*
X121683Y87050D02*
X121850D01*
X121100Y88417D02*
X121183Y88500D01*
X121350D01*
X121433Y88417D01*
Y88333D01*
X121350Y88250D01*
X121267D01*
X121350D01*
X121433Y88167D01*
Y88083D01*
X121350Y88000D01*
X121183D01*
X121100Y88083D01*
X121600Y88417D02*
X121683Y88500D01*
X121850D01*
X121933Y88417D01*
Y88333D01*
X121850Y88250D01*
X121933Y88167D01*
Y88083D01*
X121850Y88000D01*
X121683D01*
X121600Y88083D01*
Y88167D01*
X121683Y88250D01*
X121600Y88333D01*
Y88417D01*
X121683Y88250D02*
X121850D01*
X110200Y70417D02*
X110283Y70500D01*
X110450D01*
X110533Y70417D01*
Y70333D01*
X110450Y70250D01*
X110367D01*
X110450D01*
X110533Y70167D01*
Y70083D01*
X110450Y70000D01*
X110283D01*
X110200Y70083D01*
X110700Y70417D02*
X110783Y70500D01*
X110950D01*
X111033Y70417D01*
Y70333D01*
X110950Y70250D01*
X111033Y70167D01*
Y70083D01*
X110950Y70000D01*
X110783D01*
X110700Y70083D01*
Y70167D01*
X110783Y70250D01*
X110700Y70333D01*
Y70417D01*
X110783Y70250D02*
X110950D01*
X110200Y67917D02*
X110283Y68000D01*
X110450D01*
X110533Y67917D01*
Y67833D01*
X110450Y67750D01*
X110367D01*
X110450D01*
X110533Y67667D01*
Y67583D01*
X110450Y67500D01*
X110283D01*
X110200Y67583D01*
X110700Y67917D02*
X110783Y68000D01*
X110950D01*
X111033Y67917D01*
Y67833D01*
X110950Y67750D01*
X111033Y67667D01*
Y67583D01*
X110950Y67500D01*
X110783D01*
X110700Y67583D01*
Y67667D01*
X110783Y67750D01*
X110700Y67833D01*
Y67917D01*
X110783Y67750D02*
X110950D01*
X112350Y95417D02*
X112433Y95500D01*
X112600D01*
X112683Y95417D01*
Y95333D01*
X112600Y95250D01*
X112517D01*
X112600D01*
X112683Y95167D01*
Y95083D01*
X112600Y95000D01*
X112433D01*
X112350Y95083D01*
X113183Y95500D02*
X112850D01*
Y95250D01*
X113016Y95333D01*
X113100D01*
X113183Y95250D01*
Y95083D01*
X113100Y95000D01*
X112933D01*
X112850Y95083D01*
X113850Y96417D02*
X113933Y96500D01*
X114100D01*
X114183Y96417D01*
Y96333D01*
X114100Y96250D01*
X114017D01*
X114100D01*
X114183Y96167D01*
Y96083D01*
X114100Y96000D01*
X113933D01*
X113850Y96083D01*
X114683Y96500D02*
X114350D01*
Y96250D01*
X114516Y96333D01*
X114600D01*
X114683Y96250D01*
Y96083D01*
X114600Y96000D01*
X114433D01*
X114350Y96083D01*
X112850Y96417D02*
X112933Y96500D01*
X113100D01*
X113183Y96417D01*
Y96333D01*
X113100Y96250D01*
X113017D01*
X113100D01*
X113183Y96167D01*
Y96083D01*
X113100Y96000D01*
X112933D01*
X112850Y96083D01*
X113683Y96500D02*
X113350D01*
Y96250D01*
X113516Y96333D01*
X113600D01*
X113683Y96250D01*
Y96083D01*
X113600Y96000D01*
X113433D01*
X113350Y96083D01*
X113350Y95417D02*
X113433Y95500D01*
X113600D01*
X113683Y95417D01*
Y95333D01*
X113600Y95250D01*
X113517D01*
X113600D01*
X113683Y95167D01*
Y95083D01*
X113600Y95000D01*
X113433D01*
X113350Y95083D01*
X114183Y95500D02*
X113850D01*
Y95250D01*
X114016Y95333D01*
X114100D01*
X114183Y95250D01*
Y95083D01*
X114100Y95000D01*
X113933D01*
X113850Y95083D01*
X114350Y95417D02*
X114433Y95500D01*
X114600D01*
X114683Y95417D01*
Y95333D01*
X114600Y95250D01*
X114517D01*
X114600D01*
X114683Y95167D01*
Y95083D01*
X114600Y95000D01*
X114433D01*
X114350Y95083D01*
X115183Y95500D02*
X114850D01*
Y95250D01*
X115016Y95333D01*
X115100D01*
X115183Y95250D01*
Y95083D01*
X115100Y95000D01*
X114933D01*
X114850Y95083D01*
X114850Y96417D02*
X114933Y96500D01*
X115100D01*
X115183Y96417D01*
Y96333D01*
X115100Y96250D01*
X115017D01*
X115100D01*
X115183Y96167D01*
Y96083D01*
X115100Y96000D01*
X114933D01*
X114850Y96083D01*
X115683Y96500D02*
X115350D01*
Y96250D01*
X115516Y96333D01*
X115600D01*
X115683Y96250D01*
Y96083D01*
X115600Y96000D01*
X115433D01*
X115350Y96083D01*
X115350Y98500D02*
X115517D01*
X115433D01*
Y99000D01*
X115350Y98917D01*
X116100Y98500D02*
X115767D01*
X116100Y98833D01*
Y98917D01*
X116016Y99000D01*
X115850D01*
X115767Y98917D01*
X116266D02*
X116350Y99000D01*
X116516D01*
X116600Y98917D01*
Y98833D01*
X116516Y98750D01*
X116600Y98667D01*
Y98583D01*
X116516Y98500D01*
X116350D01*
X116266Y98583D01*
Y98667D01*
X116350Y98750D01*
X116266Y98833D01*
Y98917D01*
X116350Y98750D02*
X116516D01*
X116766Y98500D02*
Y98583D01*
X116850D01*
Y98500D01*
X116766D01*
X117516Y99000D02*
X117183D01*
Y98750D01*
X117349Y98833D01*
X117433D01*
X117516Y98750D01*
Y98583D01*
X117433Y98500D01*
X117266D01*
X117183Y98583D01*
X110850Y98500D02*
X111017D01*
X110933D01*
Y99000D01*
X110850Y98917D01*
X111600Y98500D02*
X111267D01*
X111600Y98833D01*
Y98917D01*
X111516Y99000D01*
X111350D01*
X111267Y98917D01*
X111766D02*
X111850Y99000D01*
X112016D01*
X112100Y98917D01*
Y98833D01*
X112016Y98750D01*
X112100Y98667D01*
Y98583D01*
X112016Y98500D01*
X111850D01*
X111766Y98583D01*
Y98667D01*
X111850Y98750D01*
X111766Y98833D01*
Y98917D01*
X111850Y98750D02*
X112016D01*
X112266Y98500D02*
Y98583D01*
X112350D01*
Y98500D01*
X112266D01*
X113016Y99000D02*
X112683D01*
Y98750D01*
X112849Y98833D01*
X112933D01*
X113016Y98750D01*
Y98583D01*
X112933Y98500D01*
X112766D01*
X112683Y98583D01*
X111850Y96417D02*
X111933Y96500D01*
X112100D01*
X112183Y96417D01*
Y96333D01*
X112100Y96250D01*
X112017D01*
X112100D01*
X112183Y96167D01*
Y96083D01*
X112100Y96000D01*
X111933D01*
X111850Y96083D01*
X112683Y96500D02*
X112350D01*
Y96250D01*
X112516Y96333D01*
X112600D01*
X112683Y96250D01*
Y96083D01*
X112600Y96000D01*
X112433D01*
X112350Y96083D01*
X111400Y95417D02*
X111483Y95500D01*
X111650D01*
X111733Y95417D01*
Y95333D01*
X111650Y95250D01*
X111567D01*
X111650D01*
X111733Y95167D01*
Y95083D01*
X111650Y95000D01*
X111483D01*
X111400Y95083D01*
X112233Y95500D02*
X111900D01*
Y95250D01*
X112066Y95333D01*
X112150D01*
X112233Y95250D01*
Y95083D01*
X112150Y95000D01*
X111983D01*
X111900Y95083D01*
X125350Y98817D02*
X125433Y98900D01*
X125600D01*
X125683Y98817D01*
Y98733D01*
X125600Y98650D01*
X125517D01*
X125600D01*
X125683Y98567D01*
Y98483D01*
X125600Y98400D01*
X125433D01*
X125350Y98483D01*
X126183Y98900D02*
X125850D01*
Y98650D01*
X126016Y98733D01*
X126100D01*
X126183Y98650D01*
Y98483D01*
X126100Y98400D01*
X125933D01*
X125850Y98483D01*
X126350Y99817D02*
X126433Y99900D01*
X126600D01*
X126683Y99817D01*
Y99733D01*
X126600Y99650D01*
X126517D01*
X126600D01*
X126683Y99567D01*
Y99483D01*
X126600Y99400D01*
X126433D01*
X126350Y99483D01*
X127183Y99900D02*
X126850D01*
Y99650D01*
X127016Y99733D01*
X127100D01*
X127183Y99650D01*
Y99483D01*
X127100Y99400D01*
X126933D01*
X126850Y99483D01*
X126350Y98817D02*
X126433Y98900D01*
X126600D01*
X126683Y98817D01*
Y98733D01*
X126600Y98650D01*
X126517D01*
X126600D01*
X126683Y98567D01*
Y98483D01*
X126600Y98400D01*
X126433D01*
X126350Y98483D01*
X127183Y98900D02*
X126850D01*
Y98650D01*
X127016Y98733D01*
X127100D01*
X127183Y98650D01*
Y98483D01*
X127100Y98400D01*
X126933D01*
X126850Y98483D01*
X125350Y99817D02*
X125433Y99900D01*
X125600D01*
X125683Y99817D01*
Y99733D01*
X125600Y99650D01*
X125517D01*
X125600D01*
X125683Y99567D01*
Y99483D01*
X125600Y99400D01*
X125433D01*
X125350Y99483D01*
X126183Y99900D02*
X125850D01*
Y99650D01*
X126016Y99733D01*
X126100D01*
X126183Y99650D01*
Y99483D01*
X126100Y99400D01*
X125933D01*
X125850Y99483D01*
X128850Y99817D02*
X128933Y99900D01*
X129100D01*
X129183Y99817D01*
Y99733D01*
X129100Y99650D01*
X129017D01*
X129100D01*
X129183Y99567D01*
Y99483D01*
X129100Y99400D01*
X128933D01*
X128850Y99483D01*
X129683Y99900D02*
X129350D01*
Y99650D01*
X129516Y99733D01*
X129600D01*
X129683Y99650D01*
Y99483D01*
X129600Y99400D01*
X129433D01*
X129350Y99483D01*
X128850Y98817D02*
X128933Y98900D01*
X129100D01*
X129183Y98817D01*
Y98733D01*
X129100Y98650D01*
X129017D01*
X129100D01*
X129183Y98567D01*
Y98483D01*
X129100Y98400D01*
X128933D01*
X128850Y98483D01*
X129683Y98900D02*
X129350D01*
Y98650D01*
X129516Y98733D01*
X129600D01*
X129683Y98650D01*
Y98483D01*
X129600Y98400D01*
X129433D01*
X129350Y98483D01*
X127850Y99817D02*
X127933Y99900D01*
X128100D01*
X128183Y99817D01*
Y99733D01*
X128100Y99650D01*
X128017D01*
X128100D01*
X128183Y99567D01*
Y99483D01*
X128100Y99400D01*
X127933D01*
X127850Y99483D01*
X128683Y99900D02*
X128350D01*
Y99650D01*
X128516Y99733D01*
X128600D01*
X128683Y99650D01*
Y99483D01*
X128600Y99400D01*
X128433D01*
X128350Y99483D01*
X127850Y98817D02*
X127933Y98900D01*
X128100D01*
X128183Y98817D01*
Y98733D01*
X128100Y98650D01*
X128017D01*
X128100D01*
X128183Y98567D01*
Y98483D01*
X128100Y98400D01*
X127933D01*
X127850Y98483D01*
X128683Y98900D02*
X128350D01*
Y98650D01*
X128516Y98733D01*
X128600D01*
X128683Y98650D01*
Y98483D01*
X128600Y98400D01*
X128433D01*
X128350Y98483D01*
X112683Y68000D02*
X112350D01*
Y67750D01*
X112517Y67833D01*
X112600D01*
X112683Y67750D01*
Y67583D01*
X112600Y67500D01*
X112433D01*
X112350Y67583D01*
X112850D02*
X112933Y67500D01*
X113100D01*
X113183Y67583D01*
Y67917D01*
X113100Y68000D01*
X112933D01*
X112850Y67917D01*
Y67833D01*
X112933Y67750D01*
X113183D01*
X113350Y67500D02*
Y67583D01*
X113433D01*
Y67500D01*
X113350D01*
X114099Y68000D02*
X113766D01*
Y67750D01*
X113933Y67833D01*
X114016D01*
X114099Y67750D01*
Y67583D01*
X114016Y67500D01*
X113850D01*
X113766Y67583D01*
X114183Y68000D02*
X113850D01*
Y67750D01*
X114017Y67833D01*
X114100D01*
X114183Y67750D01*
Y67583D01*
X114100Y67500D01*
X113933D01*
X113850Y67583D01*
X114350D02*
X114433Y67500D01*
X114600D01*
X114683Y67583D01*
Y67917D01*
X114600Y68000D01*
X114433D01*
X114350Y67917D01*
Y67833D01*
X114433Y67750D01*
X114683D01*
X114850Y67500D02*
Y67583D01*
X114933D01*
Y67500D01*
X114850D01*
X115599Y68000D02*
X115266D01*
Y67750D01*
X115433Y67833D01*
X115516D01*
X115599Y67750D01*
Y67583D01*
X115516Y67500D01*
X115350D01*
X115266Y67583D01*
X124100Y70417D02*
X124183Y70500D01*
X124350D01*
X124433Y70417D01*
Y70333D01*
X124350Y70250D01*
X124267D01*
X124350D01*
X124433Y70167D01*
Y70083D01*
X124350Y70000D01*
X124183D01*
X124100Y70083D01*
X124933Y70500D02*
X124600D01*
Y70250D01*
X124766Y70333D01*
X124850D01*
X124933Y70250D01*
Y70083D01*
X124850Y70000D01*
X124683D01*
X124600Y70083D01*
X124100Y71417D02*
X124183Y71500D01*
X124350D01*
X124433Y71417D01*
Y71333D01*
X124350Y71250D01*
X124267D01*
X124350D01*
X124433Y71167D01*
Y71083D01*
X124350Y71000D01*
X124183D01*
X124100Y71083D01*
X124933Y71500D02*
X124600D01*
Y71250D01*
X124766Y71333D01*
X124850D01*
X124933Y71250D01*
Y71083D01*
X124850Y71000D01*
X124683D01*
X124600Y71083D01*
X124100Y72417D02*
X124183Y72500D01*
X124350D01*
X124433Y72417D01*
Y72333D01*
X124350Y72250D01*
X124267D01*
X124350D01*
X124433Y72167D01*
Y72083D01*
X124350Y72000D01*
X124183D01*
X124100Y72083D01*
X124933Y72500D02*
X124600D01*
Y72250D01*
X124766Y72333D01*
X124850D01*
X124933Y72250D01*
Y72083D01*
X124850Y72000D01*
X124683D01*
X124600Y72083D01*
X124100Y73417D02*
X124183Y73500D01*
X124350D01*
X124433Y73417D01*
Y73333D01*
X124350Y73250D01*
X124267D01*
X124350D01*
X124433Y73167D01*
Y73083D01*
X124350Y73000D01*
X124183D01*
X124100Y73083D01*
X124933Y73500D02*
X124600D01*
Y73250D01*
X124766Y73333D01*
X124850D01*
X124933Y73250D01*
Y73083D01*
X124850Y73000D01*
X124683D01*
X124600Y73083D01*
X130100Y88417D02*
X130183Y88500D01*
X130350D01*
X130433Y88417D01*
Y88333D01*
X130350Y88250D01*
X130267D01*
X130350D01*
X130433Y88167D01*
Y88083D01*
X130350Y88000D01*
X130183D01*
X130100Y88083D01*
X130933Y88500D02*
X130600D01*
Y88250D01*
X130766Y88333D01*
X130850D01*
X130933Y88250D01*
Y88083D01*
X130850Y88000D01*
X130683D01*
X130600Y88083D01*
X130100Y89417D02*
X130183Y89500D01*
X130350D01*
X130433Y89417D01*
Y89333D01*
X130350Y89250D01*
X130267D01*
X130350D01*
X130433Y89167D01*
Y89083D01*
X130350Y89000D01*
X130183D01*
X130100Y89083D01*
X130933Y89500D02*
X130600D01*
Y89250D01*
X130766Y89333D01*
X130850D01*
X130933Y89250D01*
Y89083D01*
X130850Y89000D01*
X130683D01*
X130600Y89083D01*
X130100Y78417D02*
X130183Y78500D01*
X130350D01*
X130433Y78417D01*
Y78333D01*
X130350Y78250D01*
X130267D01*
X130350D01*
X130433Y78167D01*
Y78083D01*
X130350Y78000D01*
X130183D01*
X130100Y78083D01*
X130933Y78500D02*
X130600D01*
Y78250D01*
X130766Y78333D01*
X130850D01*
X130933Y78250D01*
Y78083D01*
X130850Y78000D01*
X130683D01*
X130600Y78083D01*
X124100Y74417D02*
X124183Y74500D01*
X124350D01*
X124433Y74417D01*
Y74333D01*
X124350Y74250D01*
X124267D01*
X124350D01*
X124433Y74167D01*
Y74083D01*
X124350Y74000D01*
X124183D01*
X124100Y74083D01*
X124933Y74500D02*
X124600D01*
Y74250D01*
X124766Y74333D01*
X124850D01*
X124933Y74250D01*
Y74083D01*
X124850Y74000D01*
X124683D01*
X124600Y74083D01*
X130100Y86417D02*
X130183Y86500D01*
X130350D01*
X130433Y86417D01*
Y86333D01*
X130350Y86250D01*
X130267D01*
X130350D01*
X130433Y86167D01*
Y86083D01*
X130350Y86000D01*
X130183D01*
X130100Y86083D01*
X130933Y86500D02*
X130600D01*
Y86250D01*
X130766Y86333D01*
X130850D01*
X130933Y86250D01*
Y86083D01*
X130850Y86000D01*
X130683D01*
X130600Y86083D01*
X130100Y87417D02*
X130183Y87500D01*
X130350D01*
X130433Y87417D01*
Y87333D01*
X130350Y87250D01*
X130267D01*
X130350D01*
X130433Y87167D01*
Y87083D01*
X130350Y87000D01*
X130183D01*
X130100Y87083D01*
X130933Y87500D02*
X130600D01*
Y87250D01*
X130766Y87333D01*
X130850D01*
X130933Y87250D01*
Y87083D01*
X130850Y87000D01*
X130683D01*
X130600Y87083D01*
X130100Y82417D02*
X130183Y82500D01*
X130350D01*
X130433Y82417D01*
Y82333D01*
X130350Y82250D01*
X130267D01*
X130350D01*
X130433Y82167D01*
Y82083D01*
X130350Y82000D01*
X130183D01*
X130100Y82083D01*
X130933Y82500D02*
X130600D01*
Y82250D01*
X130766Y82333D01*
X130850D01*
X130933Y82250D01*
Y82083D01*
X130850Y82000D01*
X130683D01*
X130600Y82083D01*
X130100Y83417D02*
X130183Y83500D01*
X130350D01*
X130433Y83417D01*
Y83333D01*
X130350Y83250D01*
X130267D01*
X130350D01*
X130433Y83167D01*
Y83083D01*
X130350Y83000D01*
X130183D01*
X130100Y83083D01*
X130933Y83500D02*
X130600D01*
Y83250D01*
X130766Y83333D01*
X130850D01*
X130933Y83250D01*
Y83083D01*
X130850Y83000D01*
X130683D01*
X130600Y83083D01*
X130100Y84417D02*
X130183Y84500D01*
X130350D01*
X130433Y84417D01*
Y84333D01*
X130350Y84250D01*
X130267D01*
X130350D01*
X130433Y84167D01*
Y84083D01*
X130350Y84000D01*
X130183D01*
X130100Y84083D01*
X130933Y84500D02*
X130600D01*
Y84250D01*
X130766Y84333D01*
X130850D01*
X130933Y84250D01*
Y84083D01*
X130850Y84000D01*
X130683D01*
X130600Y84083D01*
X130100Y85417D02*
X130183Y85500D01*
X130350D01*
X130433Y85417D01*
Y85333D01*
X130350Y85250D01*
X130267D01*
X130350D01*
X130433Y85167D01*
Y85083D01*
X130350Y85000D01*
X130183D01*
X130100Y85083D01*
X130933Y85500D02*
X130600D01*
Y85250D01*
X130766Y85333D01*
X130850D01*
X130933Y85250D01*
Y85083D01*
X130850Y85000D01*
X130683D01*
X130600Y85083D01*
X130100Y80417D02*
X130183Y80500D01*
X130350D01*
X130433Y80417D01*
Y80333D01*
X130350Y80250D01*
X130267D01*
X130350D01*
X130433Y80167D01*
Y80083D01*
X130350Y80000D01*
X130183D01*
X130100Y80083D01*
X130933Y80500D02*
X130600D01*
Y80250D01*
X130766Y80333D01*
X130850D01*
X130933Y80250D01*
Y80083D01*
X130850Y80000D01*
X130683D01*
X130600Y80083D01*
X130100Y81417D02*
X130183Y81500D01*
X130350D01*
X130433Y81417D01*
Y81333D01*
X130350Y81250D01*
X130267D01*
X130350D01*
X130433Y81167D01*
Y81083D01*
X130350Y81000D01*
X130183D01*
X130100Y81083D01*
X130933Y81500D02*
X130600D01*
Y81250D01*
X130766Y81333D01*
X130850D01*
X130933Y81250D01*
Y81083D01*
X130850Y81000D01*
X130683D01*
X130600Y81083D01*
X130100Y75417D02*
X130183Y75500D01*
X130350D01*
X130433Y75417D01*
Y75333D01*
X130350Y75250D01*
X130267D01*
X130350D01*
X130433Y75167D01*
Y75083D01*
X130350Y75000D01*
X130183D01*
X130100Y75083D01*
X130933Y75500D02*
X130600D01*
Y75250D01*
X130766Y75333D01*
X130850D01*
X130933Y75250D01*
Y75083D01*
X130850Y75000D01*
X130683D01*
X130600Y75083D01*
X130100Y76417D02*
X130183Y76500D01*
X130350D01*
X130433Y76417D01*
Y76333D01*
X130350Y76250D01*
X130267D01*
X130350D01*
X130433Y76167D01*
Y76083D01*
X130350Y76000D01*
X130183D01*
X130100Y76083D01*
X130933Y76500D02*
X130600D01*
Y76250D01*
X130766Y76333D01*
X130850D01*
X130933Y76250D01*
Y76083D01*
X130850Y76000D01*
X130683D01*
X130600Y76083D01*
X130100Y77417D02*
X130183Y77500D01*
X130350D01*
X130433Y77417D01*
Y77333D01*
X130350Y77250D01*
X130267D01*
X130350D01*
X130433Y77167D01*
Y77083D01*
X130350Y77000D01*
X130183D01*
X130100Y77083D01*
X130933Y77500D02*
X130600D01*
Y77250D01*
X130766Y77333D01*
X130850D01*
X130933Y77250D01*
Y77083D01*
X130850Y77000D01*
X130683D01*
X130600Y77083D01*
X124100Y81417D02*
X124183Y81500D01*
X124350D01*
X124433Y81417D01*
Y81333D01*
X124350Y81250D01*
X124267D01*
X124350D01*
X124433Y81167D01*
Y81083D01*
X124350Y81000D01*
X124183D01*
X124100Y81083D01*
X124933Y81500D02*
X124600D01*
Y81250D01*
X124766Y81333D01*
X124850D01*
X124933Y81250D01*
Y81083D01*
X124850Y81000D01*
X124683D01*
X124600Y81083D01*
X124100Y77417D02*
X124183Y77500D01*
X124350D01*
X124433Y77417D01*
Y77333D01*
X124350Y77250D01*
X124267D01*
X124350D01*
X124433Y77167D01*
Y77083D01*
X124350Y77000D01*
X124183D01*
X124100Y77083D01*
X124933Y77500D02*
X124600D01*
Y77250D01*
X124766Y77333D01*
X124850D01*
X124933Y77250D01*
Y77083D01*
X124850Y77000D01*
X124683D01*
X124600Y77083D01*
X124100Y78417D02*
X124183Y78500D01*
X124350D01*
X124433Y78417D01*
Y78333D01*
X124350Y78250D01*
X124267D01*
X124350D01*
X124433Y78167D01*
Y78083D01*
X124350Y78000D01*
X124183D01*
X124100Y78083D01*
X124933Y78500D02*
X124600D01*
Y78250D01*
X124766Y78333D01*
X124850D01*
X124933Y78250D01*
Y78083D01*
X124850Y78000D01*
X124683D01*
X124600Y78083D01*
X124100Y79417D02*
X124183Y79500D01*
X124350D01*
X124433Y79417D01*
Y79333D01*
X124350Y79250D01*
X124267D01*
X124350D01*
X124433Y79167D01*
Y79083D01*
X124350Y79000D01*
X124183D01*
X124100Y79083D01*
X124933Y79500D02*
X124600D01*
Y79250D01*
X124766Y79333D01*
X124850D01*
X124933Y79250D01*
Y79083D01*
X124850Y79000D01*
X124683D01*
X124600Y79083D01*
X124100Y80417D02*
X124183Y80500D01*
X124350D01*
X124433Y80417D01*
Y80333D01*
X124350Y80250D01*
X124267D01*
X124350D01*
X124433Y80167D01*
Y80083D01*
X124350Y80000D01*
X124183D01*
X124100Y80083D01*
X124933Y80500D02*
X124600D01*
Y80250D01*
X124766Y80333D01*
X124850D01*
X124933Y80250D01*
Y80083D01*
X124850Y80000D01*
X124683D01*
X124600Y80083D01*
X130100Y70417D02*
X130183Y70500D01*
X130350D01*
X130433Y70417D01*
Y70333D01*
X130350Y70250D01*
X130267D01*
X130350D01*
X130433Y70167D01*
Y70083D01*
X130350Y70000D01*
X130183D01*
X130100Y70083D01*
X130933Y70500D02*
X130600D01*
Y70250D01*
X130766Y70333D01*
X130850D01*
X130933Y70250D01*
Y70083D01*
X130850Y70000D01*
X130683D01*
X130600Y70083D01*
X124100Y82417D02*
X124183Y82500D01*
X124350D01*
X124433Y82417D01*
Y82333D01*
X124350Y82250D01*
X124267D01*
X124350D01*
X124433Y82167D01*
Y82083D01*
X124350Y82000D01*
X124183D01*
X124100Y82083D01*
X124933Y82500D02*
X124600D01*
Y82250D01*
X124766Y82333D01*
X124850D01*
X124933Y82250D01*
Y82083D01*
X124850Y82000D01*
X124683D01*
X124600Y82083D01*
X124100Y83417D02*
X124183Y83500D01*
X124350D01*
X124433Y83417D01*
Y83333D01*
X124350Y83250D01*
X124267D01*
X124350D01*
X124433Y83167D01*
Y83083D01*
X124350Y83000D01*
X124183D01*
X124100Y83083D01*
X124933Y83500D02*
X124600D01*
Y83250D01*
X124766Y83333D01*
X124850D01*
X124933Y83250D01*
Y83083D01*
X124850Y83000D01*
X124683D01*
X124600Y83083D01*
X124100Y84417D02*
X124183Y84500D01*
X124350D01*
X124433Y84417D01*
Y84333D01*
X124350Y84250D01*
X124267D01*
X124350D01*
X124433Y84167D01*
Y84083D01*
X124350Y84000D01*
X124183D01*
X124100Y84083D01*
X124933Y84500D02*
X124600D01*
Y84250D01*
X124766Y84333D01*
X124850D01*
X124933Y84250D01*
Y84083D01*
X124850Y84000D01*
X124683D01*
X124600Y84083D01*
X124100Y85417D02*
X124183Y85500D01*
X124350D01*
X124433Y85417D01*
Y85333D01*
X124350Y85250D01*
X124267D01*
X124350D01*
X124433Y85167D01*
Y85083D01*
X124350Y85000D01*
X124183D01*
X124100Y85083D01*
X124933Y85500D02*
X124600D01*
Y85250D01*
X124766Y85333D01*
X124850D01*
X124933Y85250D01*
Y85083D01*
X124850Y85000D01*
X124683D01*
X124600Y85083D01*
X124100Y86417D02*
X124183Y86500D01*
X124350D01*
X124433Y86417D01*
Y86333D01*
X124350Y86250D01*
X124267D01*
X124350D01*
X124433Y86167D01*
Y86083D01*
X124350Y86000D01*
X124183D01*
X124100Y86083D01*
X124933Y86500D02*
X124600D01*
Y86250D01*
X124766Y86333D01*
X124850D01*
X124933Y86250D01*
Y86083D01*
X124850Y86000D01*
X124683D01*
X124600Y86083D01*
X124100Y87417D02*
X124183Y87500D01*
X124350D01*
X124433Y87417D01*
Y87333D01*
X124350Y87250D01*
X124267D01*
X124350D01*
X124433Y87167D01*
Y87083D01*
X124350Y87000D01*
X124183D01*
X124100Y87083D01*
X124933Y87500D02*
X124600D01*
Y87250D01*
X124766Y87333D01*
X124850D01*
X124933Y87250D01*
Y87083D01*
X124850Y87000D01*
X124683D01*
X124600Y87083D01*
X124100Y88417D02*
X124183Y88500D01*
X124350D01*
X124433Y88417D01*
Y88333D01*
X124350Y88250D01*
X124267D01*
X124350D01*
X124433Y88167D01*
Y88083D01*
X124350Y88000D01*
X124183D01*
X124100Y88083D01*
X124933Y88500D02*
X124600D01*
Y88250D01*
X124766Y88333D01*
X124850D01*
X124933Y88250D01*
Y88083D01*
X124850Y88000D01*
X124683D01*
X124600Y88083D01*
X124100Y89417D02*
X124183Y89500D01*
X124350D01*
X124433Y89417D01*
Y89333D01*
X124350Y89250D01*
X124267D01*
X124350D01*
X124433Y89167D01*
Y89083D01*
X124350Y89000D01*
X124183D01*
X124100Y89083D01*
X124933Y89500D02*
X124600D01*
Y89250D01*
X124766Y89333D01*
X124850D01*
X124933Y89250D01*
Y89083D01*
X124850Y89000D01*
X124683D01*
X124600Y89083D01*
X130100Y79417D02*
X130183Y79500D01*
X130350D01*
X130433Y79417D01*
Y79333D01*
X130350Y79250D01*
X130267D01*
X130350D01*
X130433Y79167D01*
Y79083D01*
X130350Y79000D01*
X130183D01*
X130100Y79083D01*
X130933Y79500D02*
X130600D01*
Y79250D01*
X130766Y79333D01*
X130850D01*
X130933Y79250D01*
Y79083D01*
X130850Y79000D01*
X130683D01*
X130600Y79083D01*
X124100Y76417D02*
X124183Y76500D01*
X124350D01*
X124433Y76417D01*
Y76333D01*
X124350Y76250D01*
X124267D01*
X124350D01*
X124433Y76167D01*
Y76083D01*
X124350Y76000D01*
X124183D01*
X124100Y76083D01*
X124933Y76500D02*
X124600D01*
Y76250D01*
X124766Y76333D01*
X124850D01*
X124933Y76250D01*
Y76083D01*
X124850Y76000D01*
X124683D01*
X124600Y76083D01*
X124100Y75417D02*
X124183Y75500D01*
X124350D01*
X124433Y75417D01*
Y75333D01*
X124350Y75250D01*
X124267D01*
X124350D01*
X124433Y75167D01*
Y75083D01*
X124350Y75000D01*
X124183D01*
X124100Y75083D01*
X124933Y75500D02*
X124600D01*
Y75250D01*
X124766Y75333D01*
X124850D01*
X124933Y75250D01*
Y75083D01*
X124850Y75000D01*
X124683D01*
X124600Y75083D01*
X130100Y71417D02*
X130183Y71500D01*
X130350D01*
X130433Y71417D01*
Y71333D01*
X130350Y71250D01*
X130267D01*
X130350D01*
X130433Y71167D01*
Y71083D01*
X130350Y71000D01*
X130183D01*
X130100Y71083D01*
X130933Y71500D02*
X130600D01*
Y71250D01*
X130766Y71333D01*
X130850D01*
X130933Y71250D01*
Y71083D01*
X130850Y71000D01*
X130683D01*
X130600Y71083D01*
X130100Y72417D02*
X130183Y72500D01*
X130350D01*
X130433Y72417D01*
Y72333D01*
X130350Y72250D01*
X130267D01*
X130350D01*
X130433Y72167D01*
Y72083D01*
X130350Y72000D01*
X130183D01*
X130100Y72083D01*
X130933Y72500D02*
X130600D01*
Y72250D01*
X130766Y72333D01*
X130850D01*
X130933Y72250D01*
Y72083D01*
X130850Y72000D01*
X130683D01*
X130600Y72083D01*
X130100Y73417D02*
X130183Y73500D01*
X130350D01*
X130433Y73417D01*
Y73333D01*
X130350Y73250D01*
X130267D01*
X130350D01*
X130433Y73167D01*
Y73083D01*
X130350Y73000D01*
X130183D01*
X130100Y73083D01*
X130933Y73500D02*
X130600D01*
Y73250D01*
X130766Y73333D01*
X130850D01*
X130933Y73250D01*
Y73083D01*
X130850Y73000D01*
X130683D01*
X130600Y73083D01*
X130100Y74417D02*
X130183Y74500D01*
X130350D01*
X130433Y74417D01*
Y74333D01*
X130350Y74250D01*
X130267D01*
X130350D01*
X130433Y74167D01*
Y74083D01*
X130350Y74000D01*
X130183D01*
X130100Y74083D01*
X130933Y74500D02*
X130600D01*
Y74250D01*
X130766Y74333D01*
X130850D01*
X130933Y74250D01*
Y74083D01*
X130850Y74000D01*
X130683D01*
X130600Y74083D01*
X122633Y92250D02*
X122300D01*
X122633Y92583D01*
Y92667D01*
X122550Y92750D01*
X122383D01*
X122300Y92667D01*
X122800D02*
X122883Y92750D01*
X123050D01*
X123133Y92667D01*
Y92583D01*
X123050Y92500D01*
X123133Y92417D01*
Y92333D01*
X123050Y92250D01*
X122883D01*
X122800Y92333D01*
Y92417D01*
X122883Y92500D01*
X122800Y92583D01*
Y92667D01*
X122883Y92500D02*
X123050D01*
X121033Y97500D02*
X120700D01*
X121033Y97833D01*
Y97917D01*
X120950Y98000D01*
X120783D01*
X120700Y97917D01*
X121200D02*
X121283Y98000D01*
X121450D01*
X121533Y97917D01*
Y97833D01*
X121450Y97750D01*
X121533Y97667D01*
Y97583D01*
X121450Y97500D01*
X121283D01*
X121200Y97583D01*
Y97667D01*
X121283Y97750D01*
X121200Y97833D01*
Y97917D01*
X121283Y97750D02*
X121450D01*
X123633Y93250D02*
X123300D01*
X123633Y93583D01*
Y93667D01*
X123550Y93750D01*
X123383D01*
X123300Y93667D01*
X123800D02*
X123883Y93750D01*
X124050D01*
X124133Y93667D01*
Y93583D01*
X124050Y93500D01*
X124133Y93417D01*
Y93333D01*
X124050Y93250D01*
X123883D01*
X123800Y93333D01*
Y93417D01*
X123883Y93500D01*
X123800Y93583D01*
Y93667D01*
X123883Y93500D02*
X124050D01*
X129733Y96400D02*
X129400D01*
X129733Y96733D01*
Y96817D01*
X129650Y96900D01*
X129483D01*
X129400Y96817D01*
X129900D02*
X129983Y96900D01*
X130150D01*
X130233Y96817D01*
Y96733D01*
X130150Y96650D01*
X130233Y96567D01*
Y96483D01*
X130150Y96400D01*
X129983D01*
X129900Y96483D01*
Y96567D01*
X129983Y96650D01*
X129900Y96733D01*
Y96817D01*
X129983Y96650D02*
X130150D01*
X128233Y95000D02*
X127900D01*
X128233Y95333D01*
Y95417D01*
X128150Y95500D01*
X127983D01*
X127900Y95417D01*
X128400D02*
X128483Y95500D01*
X128650D01*
X128733Y95417D01*
Y95333D01*
X128650Y95250D01*
X128733Y95167D01*
Y95083D01*
X128650Y95000D01*
X128483D01*
X128400Y95083D01*
Y95167D01*
X128483Y95250D01*
X128400Y95333D01*
Y95417D01*
X128483Y95250D02*
X128650D01*
X126083Y96500D02*
X125750D01*
X126083Y96833D01*
Y96917D01*
X126000Y97000D01*
X125833D01*
X125750Y96917D01*
X126250D02*
X126333Y97000D01*
X126500D01*
X126583Y96917D01*
Y96833D01*
X126500Y96750D01*
X126583Y96667D01*
Y96583D01*
X126500Y96500D01*
X126333D01*
X126250Y96583D01*
Y96667D01*
X126333Y96750D01*
X126250Y96833D01*
Y96917D01*
X126333Y96750D02*
X126500D01*
X125933Y93700D02*
X125600D01*
X125933Y94033D01*
Y94117D01*
X125850Y94200D01*
X125683D01*
X125600Y94117D01*
X126100D02*
X126183Y94200D01*
X126350D01*
X126433Y94117D01*
Y93783D01*
X126350Y93700D01*
X126183D01*
X126100Y93783D01*
Y94117D01*
X124433Y93700D02*
X124100D01*
X124433Y94033D01*
Y94117D01*
X124350Y94200D01*
X124183D01*
X124100Y94117D01*
X124600D02*
X124683Y94200D01*
X124850D01*
X124933Y94117D01*
Y94033D01*
X124850Y93950D01*
X124933Y93867D01*
Y93783D01*
X124850Y93700D01*
X124683D01*
X124600Y93783D01*
Y93867D01*
X124683Y93950D01*
X124600Y94033D01*
Y94117D01*
X124683Y93950D02*
X124850D01*
X114133Y87600D02*
X113800D01*
X114133Y87933D01*
Y88017D01*
X114050Y88100D01*
X113883D01*
X113800Y88017D01*
X114300D02*
X114383Y88100D01*
X114550D01*
X114633Y88017D01*
Y87933D01*
X114550Y87850D01*
X114633Y87767D01*
Y87683D01*
X114550Y87600D01*
X114383D01*
X114300Y87683D01*
Y87767D01*
X114383Y87850D01*
X114300Y87933D01*
Y88017D01*
X114383Y87850D02*
X114550D01*
X118533Y90000D02*
X118200D01*
X118533Y90333D01*
Y90417D01*
X118450Y90500D01*
X118283D01*
X118200Y90417D01*
X118700D02*
X118783Y90500D01*
X118950D01*
X119033Y90417D01*
Y90333D01*
X118950Y90250D01*
X119033Y90167D01*
Y90083D01*
X118950Y90000D01*
X118783D01*
X118700Y90083D01*
Y90167D01*
X118783Y90250D01*
X118700Y90333D01*
Y90417D01*
X118783Y90250D02*
X118950D01*
X111633Y90400D02*
X111300D01*
X111633Y90733D01*
Y90817D01*
X111550Y90900D01*
X111383D01*
X111300Y90817D01*
X111800D02*
X111883Y90900D01*
X112050D01*
X112133Y90817D01*
Y90733D01*
X112050Y90650D01*
X112133Y90567D01*
Y90483D01*
X112050Y90400D01*
X111883D01*
X111800Y90483D01*
Y90567D01*
X111883Y90650D01*
X111800Y90733D01*
Y90817D01*
X111883Y90650D02*
X112050D01*
X119533Y88000D02*
X119200D01*
X119533Y88333D01*
Y88417D01*
X119450Y88500D01*
X119283D01*
X119200Y88417D01*
X119700D02*
X119783Y88500D01*
X119950D01*
X120033Y88417D01*
Y88083D01*
X119950Y88000D01*
X119783D01*
X119700Y88083D01*
Y88417D01*
X119533Y86800D02*
X119200D01*
X119533Y87133D01*
Y87217D01*
X119450Y87300D01*
X119283D01*
X119200Y87217D01*
X119700D02*
X119783Y87300D01*
X119950D01*
X120033Y87217D01*
Y86883D01*
X119950Y86800D01*
X119783D01*
X119700Y86883D01*
Y87217D01*
X113733Y86800D02*
X113400D01*
X113733Y87133D01*
Y87217D01*
X113650Y87300D01*
X113483D01*
X113400Y87217D01*
X113900D02*
X113983Y87300D01*
X114150D01*
X114233Y87217D01*
Y86883D01*
X114150Y86800D01*
X113983D01*
X113900Y86883D01*
Y87217D01*
X112533Y86800D02*
X112200D01*
X112533Y87133D01*
Y87217D01*
X112450Y87300D01*
X112283D01*
X112200Y87217D01*
X112700D02*
X112783Y87300D01*
X112950D01*
X113033Y87217D01*
Y86883D01*
X112950Y86800D01*
X112783D01*
X112700Y86883D01*
Y87217D01*
X116833Y97200D02*
X116500D01*
X116833Y97533D01*
Y97617D01*
X116750Y97700D01*
X116583D01*
X116500Y97617D01*
X117000D02*
X117083Y97700D01*
X117250D01*
X117333Y97617D01*
Y97533D01*
X117250Y97450D01*
X117333Y97367D01*
Y97283D01*
X117250Y97200D01*
X117083D01*
X117000Y97283D01*
Y97367D01*
X117083Y97450D01*
X117000Y97533D01*
Y97617D01*
X117083Y97450D02*
X117250D01*
X121883Y98200D02*
X121550D01*
X121883Y98533D01*
Y98617D01*
X121800Y98700D01*
X121633D01*
X121550Y98617D01*
X122050D02*
X122133Y98700D01*
X122300D01*
X122383Y98617D01*
Y98283D01*
X122300Y98200D01*
X122133D01*
X122050Y98283D01*
Y98617D01*
X122633Y97300D02*
X122300D01*
X122633Y97633D01*
Y97717D01*
X122550Y97800D01*
X122383D01*
X122300Y97717D01*
X122800D02*
X122883Y97800D01*
X123050D01*
X123133Y97717D01*
Y97633D01*
X123050Y97550D01*
X123133Y97467D01*
Y97383D01*
X123050Y97300D01*
X122883D01*
X122800Y97383D01*
Y97467D01*
X122883Y97550D01*
X122800Y97633D01*
Y97717D01*
X122883Y97550D02*
X123050D01*
X108683Y87550D02*
X108350D01*
X108683Y87883D01*
Y87967D01*
X108600Y88050D01*
X108433D01*
X108350Y87967D01*
X108850D02*
X108933Y88050D01*
X109100D01*
X109183Y87967D01*
Y87883D01*
X109100Y87800D01*
X109183Y87717D01*
Y87633D01*
X109100Y87550D01*
X108933D01*
X108850Y87633D01*
Y87717D01*
X108933Y87800D01*
X108850Y87883D01*
Y87967D01*
X108933Y87800D02*
X109100D01*
X111750Y55150D02*
X111917D01*
X111833D01*
Y55650D01*
X111750Y55567D01*
X112500Y55150D02*
X112167D01*
X112500Y55483D01*
Y55567D01*
X112416Y55650D01*
X112250D01*
X112167Y55567D01*
X112666D02*
X112750Y55650D01*
X112916D01*
X113000Y55567D01*
Y55483D01*
X112916Y55400D01*
X113000Y55317D01*
Y55233D01*
X112916Y55150D01*
X112750D01*
X112666Y55233D01*
Y55317D01*
X112750Y55400D01*
X112666Y55483D01*
Y55567D01*
X112750Y55400D02*
X112916D01*
X113166Y55150D02*
Y55233D01*
X113250D01*
Y55150D01*
X113166D01*
X113916Y55650D02*
X113583D01*
Y55400D01*
X113749Y55483D01*
X113833D01*
X113916Y55400D01*
Y55233D01*
X113833Y55150D01*
X113666D01*
X113583Y55233D01*
X112083Y54650D02*
X111750D01*
Y54400D01*
X111917Y54483D01*
X112000D01*
X112083Y54400D01*
Y54233D01*
X112000Y54150D01*
X111833D01*
X111750Y54233D01*
X112250D02*
X112333Y54150D01*
X112500D01*
X112583Y54233D01*
Y54567D01*
X112500Y54650D01*
X112333D01*
X112250Y54567D01*
Y54483D01*
X112333Y54400D01*
X112583D01*
X112750Y54150D02*
Y54233D01*
X112833D01*
Y54150D01*
X112750D01*
X113499Y54650D02*
X113166D01*
Y54400D01*
X113333Y54483D01*
X113416D01*
X113499Y54400D01*
Y54233D01*
X113416Y54150D01*
X113250D01*
X113166Y54233D01*
X112083Y53150D02*
X111750D01*
X112083Y53483D01*
Y53567D01*
X112000Y53650D01*
X111833D01*
X111750Y53567D01*
X112250D02*
X112333Y53650D01*
X112500D01*
X112583Y53567D01*
Y53483D01*
X112500Y53400D01*
X112583Y53317D01*
Y53233D01*
X112500Y53150D01*
X112333D01*
X112250Y53233D01*
Y53317D01*
X112333Y53400D01*
X112250Y53483D01*
Y53567D01*
X112333Y53400D02*
X112500D01*
X112083Y52150D02*
X111750D01*
X112083Y52483D01*
Y52567D01*
X112000Y52650D01*
X111833D01*
X111750Y52567D01*
X112250D02*
X112333Y52650D01*
X112500D01*
X112583Y52567D01*
Y52233D01*
X112500Y52150D01*
X112333D01*
X112250Y52233D01*
Y52567D01*
X111750Y51567D02*
X111833Y51650D01*
X112000D01*
X112083Y51567D01*
Y51483D01*
X112000Y51400D01*
X111917D01*
X112000D01*
X112083Y51317D01*
Y51233D01*
X112000Y51150D01*
X111833D01*
X111750Y51233D01*
X112250Y51567D02*
X112333Y51650D01*
X112500D01*
X112583Y51567D01*
Y51483D01*
X112500Y51400D01*
X112583Y51317D01*
Y51233D01*
X112500Y51150D01*
X112333D01*
X112250Y51233D01*
Y51317D01*
X112333Y51400D01*
X112250Y51483D01*
Y51567D01*
X112333Y51400D02*
X112500D01*
X111750Y50567D02*
X111833Y50650D01*
X112000D01*
X112083Y50567D01*
Y50483D01*
X112000Y50400D01*
X111917D01*
X112000D01*
X112083Y50317D01*
Y50233D01*
X112000Y50150D01*
X111833D01*
X111750Y50233D01*
X112583Y50650D02*
X112250D01*
Y50400D01*
X112416Y50483D01*
X112500D01*
X112583Y50400D01*
Y50233D01*
X112500Y50150D01*
X112333D01*
X112250Y50233D01*
D46*
X80000Y50200D02*
Y49000D01*
X80600D01*
X80800Y49200D01*
Y50000D01*
X80600Y50200D01*
X80000D01*
X81200Y49000D02*
Y50200D01*
X81799D01*
X81999Y50000D01*
Y49600D01*
X81799Y49400D01*
X81200D01*
X81599D02*
X81999Y49000D01*
X82399Y50200D02*
X82799D01*
X82599D01*
Y49000D01*
X82399D01*
X82799D01*
X83399Y50200D02*
Y49000D01*
X84199D01*
X84599Y50200D02*
Y49000D01*
X85398D01*
X86998Y50200D02*
Y49000D01*
X87598D01*
X87797Y49200D01*
Y50000D01*
X87598Y50200D01*
X86998D01*
X88197Y49000D02*
Y50200D01*
X88797D01*
X88997Y50000D01*
Y49600D01*
X88797Y49400D01*
X88197D01*
X88597D02*
X88997Y49000D01*
X89397D02*
Y49800D01*
X89797Y50200D01*
X90197Y49800D01*
Y49000D01*
Y49600D01*
X89397D01*
X90597Y50200D02*
Y49000D01*
X90996Y49400D01*
X91396Y49000D01*
Y50200D01*
X91796D02*
X92196D01*
X91996D01*
Y49000D01*
X91796D01*
X92196D01*
X92796D02*
Y50200D01*
X93596Y49000D01*
Y50200D01*
X94795Y50000D02*
X94595Y50200D01*
X94195D01*
X93995Y50000D01*
Y49200D01*
X94195Y49000D01*
X94595D01*
X94795Y49200D01*
Y49600D01*
X94395D01*
X96000Y50200D02*
Y49000D01*
X96600D01*
X96800Y49200D01*
Y50000D01*
X96600Y50200D01*
X96000D01*
X97799D02*
X97400D01*
X97200Y50000D01*
Y49200D01*
X97400Y49000D01*
X97799D01*
X97999Y49200D01*
Y50000D01*
X97799Y50200D01*
X99599Y49000D02*
Y50200D01*
X100399Y49000D01*
Y50200D01*
X101398D02*
X100998D01*
X100798Y50000D01*
Y49200D01*
X100998Y49000D01*
X101398D01*
X101598Y49200D01*
Y50000D01*
X101398Y50200D01*
X101998D02*
X102798D01*
X102398D01*
Y49000D01*
X105197Y50200D02*
X104397D01*
Y49600D01*
X104797D01*
X104397D01*
Y49000D01*
X105597D02*
Y49800D01*
X105997Y50200D01*
X106397Y49800D01*
Y49000D01*
Y49600D01*
X105597D01*
X106797Y50200D02*
Y49000D01*
X107396D01*
X107596Y49200D01*
Y49400D01*
X107396Y49600D01*
X106797D01*
X107396D01*
X107596Y49800D01*
Y50000D01*
X107396Y50200D01*
X106797D01*
X107996Y49400D02*
Y50400D01*
Y49200D02*
Y49000D01*
M02*
