%FSLAX24Y24*%
%MOIN*%
G70*
G01*
G75*
%ADD10R,0.0500X0.0600*%
%ADD11R,0.0320X0.0950*%
%ADD12R,0.0600X0.0500*%
%ADD13R,0.0360X0.0360*%
%ADD14R,0.0500X0.0360*%
%ADD15C,0.0200*%
%ADD16C,0.0500*%
%ADD17C,0.0150*%
%ADD18C,0.0300*%
%ADD19R,0.1000X0.6600*%
%ADD20C,0.0700*%
%ADD21O,0.0600X0.0750*%
%ADD22C,0.1280*%
%ADD23C,0.1000*%
%ADD24R,0.0700X0.0700*%
%ADD25C,0.0500*%
%ADD26C,0.0400*%
%ADD27C,0.0120*%
%ADD28C,0.0400*%
%ADD29R,0.1000X0.3500*%
%ADD30C,0.0080*%
%ADD31C,0.0079*%
%ADD32C,0.0100*%
%ADD33C,0.0000*%
D15*
X108500Y83700D02*
Y82200D01*
Y83700D02*
X109000D01*
X109214Y83628D01*
X109357Y83485D01*
X109428Y83343D01*
X109500Y83128D01*
Y82771D01*
X109428Y82557D01*
X109357Y82414D01*
X109214Y82271D01*
X109000Y82200D01*
X108500D01*
X110764Y83700D02*
X109835D01*
Y82200D01*
X110764D01*
X109835Y82986D02*
X110407D01*
X111014Y83700D02*
Y82200D01*
Y83700D02*
X111656D01*
X111871Y83628D01*
X111942Y83557D01*
X112014Y83414D01*
Y83271D01*
X111942Y83128D01*
X111871Y83057D01*
X111656Y82986D01*
X111014D01*
X111514D02*
X112014Y82200D01*
X112349Y83700D02*
Y82200D01*
Y83700D02*
X112992D01*
X113206Y83628D01*
X113278Y83557D01*
X113349Y83414D01*
Y83271D01*
X113278Y83128D01*
X113206Y83057D01*
X112992Y82986D01*
X112349D02*
X112992D01*
X113206Y82914D01*
X113278Y82843D01*
X113349Y82700D01*
Y82486D01*
X113278Y82343D01*
X113206Y82271D01*
X112992Y82200D01*
X112349D01*
X113685Y83700D02*
X114256Y82986D01*
Y82200D01*
X114827Y83700D02*
X114256Y82986D01*
X116198Y83700D02*
Y82200D01*
X117055D01*
X117220Y83700D02*
Y82200D01*
X117534Y83700D02*
Y82200D01*
Y83700D02*
X118534Y82200D01*
Y83700D02*
Y82200D01*
X118948Y83700D02*
Y82200D01*
X119948Y83700D02*
X118948Y82700D01*
X119305Y83057D02*
X119948Y82200D01*
D17*
X134200Y72500D02*
Y72900D01*
Y72700D01*
X134800D01*
X134300Y73500D02*
X134200Y73400D01*
Y73200D01*
X134300Y73100D01*
X134400D01*
X134500Y73200D01*
Y73400D01*
X134600Y73500D01*
X134700D01*
X134800Y73400D01*
Y73200D01*
X134700Y73100D01*
X134200Y73700D02*
Y73900D01*
Y73800D01*
X134800D01*
Y73700D01*
Y73900D01*
X134200Y74199D02*
X134800D01*
Y74599D01*
X134200Y74799D02*
X134800D01*
X134600D01*
X134200Y75199D01*
X134500Y74899D01*
X134800Y75199D01*
D27*
X119650Y94100D02*
Y94850D01*
X120550Y94100D02*
Y94850D01*
Y95250D02*
Y96000D01*
X119650Y95250D02*
Y96000D01*
Y94100D02*
X120550D01*
X119650Y96000D02*
X120550D01*
X128950Y94100D02*
X129850D01*
X128950Y96000D02*
X129850D01*
Y94100D02*
X129850Y94850D01*
X128950D02*
X128950Y94100D01*
Y95250D02*
Y96000D01*
X129850Y95250D02*
Y96000D01*
X122050Y94050D02*
Y94800D01*
X122950Y94050D02*
Y94800D01*
Y95200D02*
Y95950D01*
X122050Y95200D02*
Y95950D01*
Y94050D02*
X122950D01*
X122050Y95950D02*
X122950Y95950D01*
X131250Y97350D02*
X132000D01*
X131250Y98250D02*
X132000D01*
X130100D02*
X130850D01*
X130100Y97350D02*
X130850D01*
X132000D02*
Y98250D01*
X130100Y97350D02*
X130100Y98250D01*
X124850Y94100D02*
Y94850D01*
X125750D02*
X125750Y94100D01*
Y95250D02*
Y96000D01*
X124850Y95250D02*
Y96000D01*
Y94100D02*
X125750D01*
X124850Y96000D02*
X125750Y96000D01*
X121750Y95230D02*
Y95980D01*
X120850Y95230D02*
Y95980D01*
Y94080D02*
Y94830D01*
X121750Y94080D02*
Y94830D01*
X120850Y95980D02*
X121750D01*
X120850Y94080D02*
X121750Y94080D01*
X131250Y98550D02*
X132000D01*
X131250Y99450D02*
X132000D01*
X130100D02*
X130850D01*
X130100Y98550D02*
X130850D01*
X132000D02*
Y99450D01*
X130100Y98550D02*
X130100Y99450D01*
X112150Y89150D02*
Y89900D01*
X111250Y89150D02*
Y89900D01*
X111250Y88000D02*
Y88750D01*
X112150Y88000D02*
Y88750D01*
X111250Y89900D02*
X112150D01*
X111250Y88000D02*
X112150Y88000D01*
X110050Y91050D02*
X110800D01*
X110050Y91950D02*
X110800D01*
X108900D02*
X109650Y91950D01*
X108900Y91050D02*
X109650D01*
X110800D02*
Y91950D01*
X108900Y91050D02*
Y91950D01*
X115900Y91950D02*
X116650D01*
X115900Y91050D02*
X116650D01*
X117050D02*
X117800D01*
X117050Y91950D02*
X117800D01*
X115900Y91050D02*
Y91950D01*
X117800Y91050D02*
X117800Y91950D01*
X122350Y98650D02*
X123100D01*
X122350Y97750D02*
X123100D01*
X123500D02*
X124250D01*
X123500Y98650D02*
X124250D01*
X122350D02*
X122350Y97750D01*
X124250D02*
X124250Y98650D01*
X122350Y99850D02*
X123100D01*
X122350Y98950D02*
X123100D01*
X123500D02*
X124250D01*
X123500Y99850D02*
X124250D01*
X122350Y98950D02*
Y99850D01*
X124250Y98950D02*
X124250Y99850D01*
X114550Y88000D02*
Y88750D01*
X115450Y88000D02*
Y88750D01*
Y89150D02*
Y89900D01*
X114550Y89150D02*
Y89900D01*
X114550Y88000D02*
X115450D01*
X114550Y89900D02*
X115450Y89900D01*
X120700Y98500D02*
Y98700D01*
X121600Y99050D02*
Y99100D01*
X120700Y99450D02*
Y99650D01*
Y98500D02*
X121150D01*
X120700Y99650D02*
X121150D01*
X107550Y88000D02*
X108450Y88000D01*
X107550Y89900D02*
X108450D01*
Y88000D02*
Y88750D01*
X107550Y88750D02*
X107550Y88000D01*
Y89150D02*
Y89900D01*
X108450Y89150D02*
Y89900D01*
X113350Y88000D02*
X114250Y88000D01*
X113350Y89900D02*
X114250D01*
X114250Y88000D02*
Y88750D01*
X113350Y88000D02*
Y88750D01*
Y89150D02*
Y89900D01*
X114250Y89150D02*
Y89900D01*
X123650Y94100D02*
X124550D01*
X123650Y96000D02*
X124550Y96000D01*
Y94100D02*
X124550Y94850D01*
X123650Y94100D02*
Y94850D01*
X123650Y95250D02*
X123650Y96000D01*
X124550Y95250D02*
X124550Y96000D01*
X126700Y84200D02*
Y83700D01*
X126800Y83600D01*
X127000D01*
X127100Y83700D01*
Y84200D01*
X127300Y83600D02*
X127500D01*
X127400D01*
Y84200D01*
X127300Y84100D01*
X112050Y68800D02*
Y69500D01*
X111700Y69150D01*
X112167D01*
X112400Y69383D02*
X112516Y69500D01*
X112750D01*
X112866Y69383D01*
Y69267D01*
X112750Y69150D01*
X112866Y69033D01*
Y68917D01*
X112750Y68800D01*
X112516D01*
X112400Y68917D01*
Y69033D01*
X112516Y69150D01*
X112400Y69267D01*
Y69383D01*
X112516Y69150D02*
X112750D01*
X113100Y69500D02*
Y69033D01*
X113333Y68800D01*
X113566Y69033D01*
Y69500D01*
X114499D02*
X114732D01*
X114616D01*
Y68800D01*
X114499D01*
X114732D01*
X115082D02*
Y69500D01*
X115549Y68800D01*
Y69500D01*
X108700Y81300D02*
Y80500D01*
Y81300D02*
X109195D01*
X108700Y80919D02*
X109005D01*
X109782Y81300D02*
X109287D01*
Y80500D01*
X109782D01*
X109287Y80919D02*
X109591D01*
X109915Y81300D02*
Y80500D01*
Y81300D02*
X110258D01*
X110372Y81262D01*
X110410Y81224D01*
X110448Y81147D01*
Y81071D01*
X110410Y80995D01*
X110372Y80957D01*
X110258Y80919D01*
X109915D02*
X110258D01*
X110372Y80881D01*
X110410Y80843D01*
X110448Y80767D01*
Y80652D01*
X110410Y80576D01*
X110372Y80538D01*
X110258Y80500D01*
X109915D01*
X111294Y81109D02*
Y81147D01*
X111332Y81224D01*
X111370Y81262D01*
X111446Y81300D01*
X111598D01*
X111675Y81262D01*
X111713Y81224D01*
X111751Y81147D01*
Y81071D01*
X111713Y80995D01*
X111637Y80881D01*
X111256Y80500D01*
X111789D01*
X112196Y81300D02*
X112082Y81262D01*
X112006Y81147D01*
X111968Y80957D01*
Y80843D01*
X112006Y80652D01*
X112082Y80538D01*
X112196Y80500D01*
X112273D01*
X112387Y80538D01*
X112463Y80652D01*
X112501Y80843D01*
Y80957D01*
X112463Y81147D01*
X112387Y81262D01*
X112273Y81300D01*
X112196D01*
X112680Y81147D02*
X112756Y81186D01*
X112871Y81300D01*
Y80500D01*
X113724Y81300D02*
X113343D01*
X113305Y80957D01*
X113343Y80995D01*
X113457Y81033D01*
X113571D01*
X113686Y80995D01*
X113762Y80919D01*
X113800Y80805D01*
Y80729D01*
X113762Y80614D01*
X113686Y80538D01*
X113571Y80500D01*
X113457D01*
X113343Y80538D01*
X113305Y80576D01*
X113267Y80652D01*
X114722Y81300D02*
Y80652D01*
X114760Y80538D01*
X114836Y80500D01*
X114912D01*
X114607Y81033D02*
X114874D01*
X115217D02*
X115141Y80995D01*
X115064Y80919D01*
X115026Y80805D01*
Y80729D01*
X115064Y80614D01*
X115141Y80538D01*
X115217Y80500D01*
X115331D01*
X115407Y80538D01*
X115483Y80614D01*
X115521Y80729D01*
Y80805D01*
X115483Y80919D01*
X115407Y80995D01*
X115331Y81033D01*
X115217D01*
X115697D02*
Y80500D01*
Y80881D02*
X115811Y80995D01*
X115887Y81033D01*
X116001D01*
X116077Y80995D01*
X116116Y80881D01*
Y80500D01*
Y80881D02*
X116230Y80995D01*
X116306Y81033D01*
X116420D01*
X116496Y80995D01*
X116535Y80881D01*
Y80500D01*
X117243Y80919D02*
X117167Y80995D01*
X117091Y81033D01*
X116976D01*
X116900Y80995D01*
X116824Y80919D01*
X116786Y80805D01*
Y80729D01*
X116824Y80614D01*
X116900Y80538D01*
X116976Y80500D01*
X117091D01*
X117167Y80538D01*
X117243Y80614D01*
X117491Y81300D02*
X117529Y81262D01*
X117567Y81300D01*
X117529Y81338D01*
X117491Y81300D01*
X117529Y81033D02*
Y80500D01*
X117708Y81033D02*
Y80500D01*
Y80805D02*
X117746Y80919D01*
X117822Y80995D01*
X117898Y81033D01*
X118012D01*
X118542Y80919D02*
X118466Y80995D01*
X118389Y81033D01*
X118275D01*
X118199Y80995D01*
X118123Y80919D01*
X118085Y80805D01*
Y80729D01*
X118123Y80614D01*
X118199Y80538D01*
X118275Y80500D01*
X118389D01*
X118466Y80538D01*
X118542Y80614D01*
X118713Y81033D02*
Y80652D01*
X118751Y80538D01*
X118827Y80500D01*
X118942D01*
X119018Y80538D01*
X119132Y80652D01*
Y81033D02*
Y80500D01*
X119418Y81300D02*
X119456Y81262D01*
X119494Y81300D01*
X119456Y81338D01*
X119418Y81300D01*
X119456Y81033D02*
Y80500D01*
X119749Y81300D02*
Y80652D01*
X119787Y80538D01*
X119863Y80500D01*
X119939D01*
X119635Y81033D02*
X119901D01*
X117600Y68181D02*
X117943D01*
X118057Y68219D01*
X118095Y68257D01*
X118133Y68333D01*
Y68447D01*
X118095Y68524D01*
X118057Y68562D01*
X117943Y68600D01*
X117600D01*
Y67800D01*
X118884Y68409D02*
X118845Y68486D01*
X118769Y68562D01*
X118693Y68600D01*
X118541D01*
X118465Y68562D01*
X118388Y68486D01*
X118350Y68409D01*
X118312Y68295D01*
Y68105D01*
X118350Y67990D01*
X118388Y67914D01*
X118465Y67838D01*
X118541Y67800D01*
X118693D01*
X118769Y67838D01*
X118845Y67914D01*
X118884Y67990D01*
X120270Y68486D02*
X120194Y68562D01*
X120079Y68600D01*
X119927D01*
X119813Y68562D01*
X119737Y68486D01*
Y68409D01*
X119775Y68333D01*
X119813Y68295D01*
X119889Y68257D01*
X120118Y68181D01*
X120194Y68143D01*
X120232Y68105D01*
X120270Y68029D01*
Y67914D01*
X120194Y67838D01*
X120079Y67800D01*
X119927D01*
X119813Y67838D01*
X119737Y67914D01*
X120449Y68600D02*
Y67800D01*
X120617Y68600D02*
Y67800D01*
Y68600D02*
X120883D01*
X120997Y68562D01*
X121074Y68486D01*
X121112Y68409D01*
X121150Y68295D01*
Y68105D01*
X121112Y67990D01*
X121074Y67914D01*
X120997Y67838D01*
X120883Y67800D01*
X120617D01*
X121824Y68600D02*
X121329D01*
Y67800D01*
X121824D01*
X121329Y68219D02*
X121633D01*
X131800Y67867D02*
Y67400D01*
X132150D01*
Y67633D01*
Y67400D01*
X132500D01*
X131800Y68100D02*
Y68566D01*
Y68333D01*
X132500D01*
X131800Y68800D02*
X132500D01*
Y69149D01*
X132383Y69266D01*
X131917D01*
X131800Y69149D01*
Y68800D01*
Y69499D02*
Y69733D01*
Y69616D01*
X132500D01*
Y69499D01*
Y69733D01*
X131800Y70782D02*
X132383D01*
X132500Y70899D01*
Y71132D01*
X132383Y71249D01*
X131800D01*
X131917Y71949D02*
X131800Y71832D01*
Y71599D01*
X131917Y71482D01*
X132033D01*
X132150Y71599D01*
Y71832D01*
X132267Y71949D01*
X132383D01*
X132500Y71832D01*
Y71599D01*
X132383Y71482D01*
X131800Y72182D02*
X132500D01*
Y72532D01*
X132383Y72648D01*
X132267D01*
X132150Y72532D01*
Y72182D01*
Y72532D01*
X132033Y72648D01*
X131917D01*
X131800Y72532D01*
Y72182D01*
Y73581D02*
X132500D01*
Y73931D01*
X132383Y74048D01*
X131917D01*
X131800Y73931D01*
Y73581D01*
X132500Y74281D02*
X131800D01*
Y74631D01*
X131917Y74748D01*
X132150D01*
X132267Y74631D01*
Y74281D01*
Y74514D02*
X132500Y74748D01*
X131800Y74981D02*
Y75214D01*
Y75098D01*
X132500D01*
Y74981D01*
Y75214D01*
X131800Y75564D02*
X132267D01*
X132500Y75797D01*
X132267Y76031D01*
X131800D01*
Y76730D02*
Y76264D01*
X132500D01*
Y76730D01*
X132150Y76264D02*
Y76497D01*
X132500Y76964D02*
X131800D01*
Y77313D01*
X131917Y77430D01*
X132150D01*
X132267Y77313D01*
Y76964D01*
Y77197D02*
X132500Y77430D01*
X131917Y78130D02*
X131800Y78013D01*
Y77780D01*
X131917Y77663D01*
X132033D01*
X132150Y77780D01*
Y78013D01*
X132267Y78130D01*
X132383D01*
X132500Y78013D01*
Y77780D01*
X132383Y77663D01*
X132033Y79763D02*
X132383D01*
X132500Y79879D01*
X132383Y79996D01*
X132500Y80113D01*
X132383Y80229D01*
X132033D01*
Y80462D02*
X132383D01*
X132500Y80579D01*
X132383Y80696D01*
X132500Y80812D01*
X132383Y80929D01*
X132033D01*
Y81162D02*
X132383D01*
X132500Y81279D01*
X132383Y81395D01*
X132500Y81512D01*
X132383Y81629D01*
X132033D01*
X132500Y81862D02*
X132383D01*
Y81979D01*
X132500D01*
Y81862D01*
Y82562D02*
X131917D01*
X132150D01*
Y82445D01*
Y82678D01*
Y82562D01*
X131917D01*
X131800Y82678D01*
X131917Y83145D02*
X132033D01*
Y83028D01*
Y83262D01*
Y83145D01*
X132383D01*
X132500Y83262D01*
X131800Y84078D02*
X132500D01*
Y83728D01*
X132383Y83611D01*
X132150D01*
X132033Y83728D01*
Y84078D01*
X132500Y84311D02*
Y84544D01*
Y84428D01*
X132033D01*
Y84311D01*
Y85361D02*
Y85011D01*
X132150Y84894D01*
X132383D01*
X132500Y85011D01*
Y85361D01*
X131800Y85594D02*
X132500D01*
X132150D01*
X132033Y85711D01*
Y85944D01*
X132150Y86061D01*
X132500D01*
Y86294D02*
Y86527D01*
Y86411D01*
X132033D01*
Y86294D01*
X132733Y86877D02*
X132033D01*
Y87227D01*
X132150Y87344D01*
X132383D01*
X132500Y87227D01*
Y86877D01*
Y87577D02*
X132383D01*
Y87693D01*
X132500D01*
Y87577D01*
X132033Y88626D02*
Y88277D01*
X132150Y88160D01*
X132383D01*
X132500Y88277D01*
Y88626D01*
Y88976D02*
Y89210D01*
X132383Y89326D01*
X132150D01*
X132033Y89210D01*
Y88976D01*
X132150Y88860D01*
X132383D01*
X132500Y88976D01*
Y89560D02*
X132033D01*
Y89676D01*
X132150Y89793D01*
X132500D01*
X132150D01*
X132033Y89909D01*
X132150Y90026D01*
X132500D01*
D30*
X126450Y101800D02*
X126442Y101899D01*
X126417Y101995D01*
X126378Y102086D01*
X126323Y102169D01*
X126256Y102241D01*
X126178Y102302D01*
X126091Y102349D01*
X125997Y102382D01*
X125900Y102398D01*
X125800D01*
X125703Y102382D01*
X125609Y102349D01*
X125522Y102302D01*
X125444Y102241D01*
X125377Y102169D01*
X125322Y102086D01*
X125283Y101995D01*
X125258Y101899D01*
X125250Y101800D01*
X128950D02*
X128942Y101899D01*
X128917Y101995D01*
X128878Y102086D01*
X128823Y102169D01*
X128756Y102241D01*
X128678Y102302D01*
X128591Y102349D01*
X128497Y102382D01*
X128400Y102398D01*
X128300D01*
X128203Y102382D01*
X128109Y102349D01*
X128022Y102302D01*
X127944Y102241D01*
X127877Y102169D01*
X127822Y102086D01*
X127783Y101995D01*
X127758Y101899D01*
X127750Y101800D01*
X124850Y101400D02*
X126850D01*
Y97800D02*
Y101400D01*
X124850Y97800D02*
X126850D01*
X124850D02*
Y101400D01*
X126450Y101400D02*
X126450Y101800D01*
X125250D02*
X125250Y101400D01*
X127350Y101400D02*
X129350D01*
Y97800D02*
Y101400D01*
X127350Y97800D02*
X129350D01*
X127350D02*
Y101400D01*
X128950Y101400D02*
X128950Y101800D01*
X127750D02*
X127750Y101400D01*
X115600Y96100D02*
X115450D01*
X115525D01*
Y95650D01*
X115600Y95725D01*
X110800Y94825D02*
X110725Y94750D01*
X110575D01*
X110500Y94825D01*
Y94900D01*
X110575Y94975D01*
X110500Y95050D01*
Y95125D01*
X110575Y95200D01*
X110725D01*
X110800Y95125D01*
Y95050D01*
X110725Y94975D01*
X110800Y94900D01*
Y94825D01*
X110725Y94975D02*
X110575D01*
X124850Y88750D02*
X125000D01*
X124925D01*
Y89200D01*
X124850Y89125D01*
X126100Y65750D02*
Y65375D01*
X126175Y65300D01*
X126325D01*
X126400Y65375D01*
Y65750D01*
X126850Y65675D02*
X126775Y65750D01*
X126625D01*
X126550Y65675D01*
Y65600D01*
X126625Y65525D01*
X126775D01*
X126850Y65450D01*
Y65375D01*
X126775Y65300D01*
X126625D01*
X126550Y65375D01*
X127000Y65750D02*
Y65300D01*
X127225D01*
X127300Y65375D01*
Y65450D01*
X127225Y65525D01*
X127000D01*
X127225D01*
X127300Y65600D01*
Y65675D01*
X127225Y65750D01*
X127000D01*
X127450Y65525D02*
X127749D01*
X127899Y65750D02*
Y65300D01*
X128124D01*
X128199Y65375D01*
Y65450D01*
X128124Y65525D01*
X127899D01*
X128124D01*
X128199Y65600D01*
Y65675D01*
X128124Y65750D01*
X127899D01*
X109900Y76000D02*
X110050D01*
X109975D01*
Y76450D01*
X109900Y76375D01*
X110275Y76225D02*
X110575D01*
X111025Y76000D02*
X110725D01*
X111025Y76300D01*
Y76375D01*
X110950Y76450D01*
X110800D01*
X110725Y76375D01*
X111624Y76000D02*
Y76450D01*
X111849D01*
X111924Y76375D01*
Y76225D01*
X111849Y76150D01*
X111624D01*
X111774D02*
X111924Y76000D01*
X112374Y76375D02*
X112299Y76450D01*
X112149D01*
X112074Y76375D01*
Y76300D01*
X112149Y76225D01*
X112299D01*
X112374Y76150D01*
Y76075D01*
X112299Y76000D01*
X112149D01*
X112074Y76075D01*
X112749Y76000D02*
Y76450D01*
X112524Y76225D01*
X112824D01*
X113274Y76000D02*
X112974D01*
X113274Y76300D01*
Y76375D01*
X113199Y76450D01*
X113049D01*
X112974Y76375D01*
X113724Y76000D02*
X113424D01*
X113724Y76300D01*
Y76375D01*
X113649Y76450D01*
X113499D01*
X113424Y76375D01*
X114324Y76450D02*
X114623D01*
X114474D01*
Y76000D01*
X114998Y76450D02*
X114848D01*
X114773Y76375D01*
Y76075D01*
X114848Y76000D01*
X114998D01*
X115073Y76075D01*
Y76375D01*
X114998Y76450D01*
X115673D02*
X115973D01*
X115823D01*
Y76000D01*
X116123Y76450D02*
X116273D01*
X116198D01*
Y76000D01*
X116123D01*
X116273D01*
X116498D02*
Y76450D01*
X116648Y76300D01*
X116798Y76450D01*
Y76000D01*
X117248Y76450D02*
X116948D01*
Y76000D01*
X117248D01*
X116948Y76225D02*
X117098D01*
X117398Y76000D02*
Y76450D01*
X117623D01*
X117697Y76375D01*
Y76225D01*
X117623Y76150D01*
X117398D01*
X117548D02*
X117697Y76000D01*
X109900Y75395D02*
X109975Y75470D01*
X110125D01*
X110200Y75395D01*
Y75320D01*
X110125Y75245D01*
X110050D01*
X110125D01*
X110200Y75170D01*
Y75095D01*
X110125Y75020D01*
X109975D01*
X109900Y75095D01*
X110350Y75245D02*
X110650D01*
X111100Y75470D02*
X110950Y75395D01*
X110800Y75245D01*
Y75095D01*
X110875Y75020D01*
X111025D01*
X111100Y75095D01*
Y75170D01*
X111025Y75245D01*
X110800D01*
X111699Y75020D02*
Y75470D01*
X111924D01*
X111999Y75395D01*
Y75245D01*
X111924Y75170D01*
X111699D01*
X111849D02*
X111999Y75020D01*
X112449Y75395D02*
X112374Y75470D01*
X112224D01*
X112149Y75395D01*
Y75320D01*
X112224Y75245D01*
X112374D01*
X112449Y75170D01*
Y75095D01*
X112374Y75020D01*
X112224D01*
X112149Y75095D01*
X112824Y75020D02*
Y75470D01*
X112599Y75245D01*
X112899D01*
X113349Y75020D02*
X113049D01*
X113349Y75320D01*
Y75395D01*
X113274Y75470D01*
X113124D01*
X113049Y75395D01*
X113799Y75020D02*
X113499D01*
X113799Y75320D01*
Y75395D01*
X113724Y75470D01*
X113574D01*
X113499Y75395D01*
X114698Y75470D02*
X114399D01*
Y75245D01*
X114549D01*
X114399D01*
Y75020D01*
X114848D02*
Y75470D01*
X115073D01*
X115148Y75395D01*
Y75245D01*
X115073Y75170D01*
X114848D01*
X114998D02*
X115148Y75020D01*
X115523Y75470D02*
X115373D01*
X115298Y75395D01*
Y75095D01*
X115373Y75020D01*
X115523D01*
X115598Y75095D01*
Y75395D01*
X115523Y75470D01*
X115748Y75020D02*
Y75470D01*
X115898Y75320D01*
X116048Y75470D01*
Y75020D01*
X116648Y75470D02*
X116948D01*
X116798D01*
Y75020D01*
X117098Y75470D02*
X117248D01*
X117173D01*
Y75020D01*
X117098D01*
X117248D01*
X117473D02*
Y75470D01*
X117623Y75320D01*
X117772Y75470D01*
Y75020D01*
X118222Y75470D02*
X117922D01*
Y75020D01*
X118222D01*
X117922Y75245D02*
X118072D01*
X118372Y75020D02*
Y75470D01*
X118597D01*
X118672Y75395D01*
Y75245D01*
X118597Y75170D01*
X118372D01*
X118522D02*
X118672Y75020D01*
X110125Y74000D02*
Y74450D01*
X109900Y74225D01*
X110200D01*
X110350D02*
X110650D01*
X111100Y74450D02*
X110800D01*
Y74225D01*
X110950Y74300D01*
X111025D01*
X111100Y74225D01*
Y74075D01*
X111025Y74000D01*
X110875D01*
X110800Y74075D01*
X111924Y74000D02*
Y74450D01*
X111699Y74225D01*
X111999D01*
X112149Y74375D02*
X112224Y74450D01*
X112374D01*
X112449Y74375D01*
Y74300D01*
X112374Y74225D01*
X112449Y74150D01*
Y74075D01*
X112374Y74000D01*
X112224D01*
X112149Y74075D01*
Y74150D01*
X112224Y74225D01*
X112149Y74300D01*
Y74375D01*
X112224Y74225D02*
X112374D01*
X113049Y74450D02*
Y74150D01*
X113199Y74000D01*
X113349Y74150D01*
Y74450D01*
X113724D02*
X113574D01*
X113499Y74375D01*
Y74075D01*
X113574Y74000D01*
X113724D01*
X113799Y74075D01*
Y74375D01*
X113724Y74450D01*
X113949D02*
Y74000D01*
X114249D01*
X114399Y74450D02*
X114698D01*
X114549D01*
Y74000D01*
X115148Y74375D02*
X115073Y74450D01*
X114923D01*
X114848Y74375D01*
Y74300D01*
X114923Y74225D01*
X115073D01*
X115148Y74150D01*
Y74075D01*
X115073Y74000D01*
X114923D01*
X114848Y74075D01*
X115748Y74450D02*
Y74000D01*
X115973D01*
X116048Y74075D01*
Y74375D01*
X115973Y74450D01*
X115748D01*
X116498Y74375D02*
X116423Y74450D01*
X116273D01*
X116198Y74375D01*
Y74075D01*
X116273Y74000D01*
X116423D01*
X116498Y74075D01*
X109900Y73450D02*
X110200D01*
Y73375D01*
X109900Y73075D01*
Y73000D01*
X110350Y73225D02*
X110650D01*
X110800Y73375D02*
X110875Y73450D01*
X111025D01*
X111100Y73375D01*
Y73300D01*
X111025Y73225D01*
X111100Y73150D01*
Y73075D01*
X111025Y73000D01*
X110875D01*
X110800Y73075D01*
Y73150D01*
X110875Y73225D01*
X110800Y73300D01*
Y73375D01*
X110875Y73225D02*
X111025D01*
X111999Y73375D02*
X111924Y73450D01*
X111774D01*
X111699Y73375D01*
Y73075D01*
X111774Y73000D01*
X111924D01*
X111999Y73075D01*
Y73225D01*
X111849D01*
X112149Y73000D02*
Y73450D01*
X112374D01*
X112449Y73375D01*
Y73225D01*
X112374Y73150D01*
X112149D01*
X112299D02*
X112449Y73000D01*
X112824Y73450D02*
X112674D01*
X112599Y73375D01*
Y73075D01*
X112674Y73000D01*
X112824D01*
X112899Y73075D01*
Y73375D01*
X112824Y73450D01*
X113049D02*
Y73075D01*
X113124Y73000D01*
X113274D01*
X113349Y73075D01*
Y73450D01*
X113499Y73000D02*
Y73450D01*
X113799Y73000D01*
Y73450D01*
X113949D02*
Y73000D01*
X114174D01*
X114249Y73075D01*
Y73375D01*
X114174Y73450D01*
X113949D01*
D31*
X115748Y88734D02*
X115843Y88753D01*
X115924Y88807D01*
X115979Y88889D01*
X115998Y88984D01*
X115979Y89080D01*
X115924Y89161D01*
X115843Y89215D01*
X115748Y89234D01*
X108748Y88734D02*
X108843Y88753D01*
X108924Y88807D01*
X108979Y88889D01*
X108998Y88984D01*
X108979Y89080D01*
X108924Y89161D01*
X108843Y89215D01*
X108748Y89234D01*
X126048Y94734D02*
X126143Y94753D01*
X126224Y94807D01*
X126279Y94889D01*
X126298Y94984D01*
X126279Y95080D01*
X126224Y95161D01*
X126143Y95215D01*
X126048Y95234D01*
X111328Y67972D02*
X114872D01*
X111328Y64350D02*
X114872D01*
X111328D02*
Y67972D01*
X114872Y64350D02*
Y67972D01*
X115748Y89234D02*
Y89772D01*
X117952Y88197D02*
Y89772D01*
X115748Y88197D02*
X115748Y88734D01*
X108748Y89234D02*
Y89772D01*
X110952Y88197D02*
Y89772D01*
X108748Y88197D02*
X108748Y88734D01*
X126048Y94197D02*
X126048Y94734D01*
X128252Y94197D02*
Y95772D01*
X126048Y95234D02*
Y95772D01*
D32*
X126300Y89500D02*
X126306Y89400D01*
X126325Y89301D01*
X126356Y89206D01*
X126399Y89115D01*
X126453Y89030D01*
X126517Y88952D01*
X126590Y88884D01*
X126671Y88825D01*
X126759Y88776D01*
X126853Y88739D01*
X126950Y88714D01*
X127050Y88702D01*
X127150D01*
X127250Y88714D01*
X127347Y88739D01*
X127441Y88776D01*
X127529Y88825D01*
X127610Y88884D01*
X127683Y88952D01*
X127747Y89030D01*
X127801Y89115D01*
X127844Y89206D01*
X127875Y89301D01*
X127894Y89400D01*
X127900Y89500D01*
X120100Y98500D02*
Y99500D01*
X119100Y98500D02*
X120100D01*
X119100Y99500D02*
X120100D01*
X119100Y98500D02*
Y99500D01*
X121600Y73500D02*
Y74500D01*
X120600Y73500D02*
X121600D01*
X120600Y74500D02*
X121600D01*
X120600Y73500D02*
Y74500D01*
X131300Y92800D02*
Y93800D01*
X130300Y92800D02*
X131300D01*
X130300Y93800D02*
X131300D01*
X130300Y92800D02*
Y93800D01*
X131300Y94500D02*
Y95500D01*
X130300Y94500D02*
X131300D01*
X130300Y95500D02*
X131300D01*
X130300Y94500D02*
Y95500D01*
X121600Y86300D02*
Y87300D01*
X120600Y86300D02*
X121600D01*
X120600Y87300D02*
X121600D01*
X120600Y86300D02*
Y87300D01*
X121600Y87500D02*
Y88500D01*
X120600Y87500D02*
X121600D01*
X120600Y88500D02*
X121600D01*
X120600Y87500D02*
Y88500D01*
X110700Y69500D02*
Y70500D01*
X109700Y69500D02*
X110700D01*
X109700Y70500D02*
X110700D01*
X109700Y69500D02*
Y70500D01*
X110700Y67000D02*
Y68000D01*
X109700Y67000D02*
X110700D01*
X109700Y68000D02*
X110700D01*
X109700Y67000D02*
Y68000D01*
X110050Y101500D02*
X116150D01*
X110050Y94400D02*
Y101500D01*
X116150Y94400D02*
Y101500D01*
X110050Y94400D02*
X116150D01*
X124700Y65000D02*
X129500D01*
Y70950D01*
X124700D02*
X129500D01*
X124700Y65000D02*
Y70950D01*
X129500Y67500D02*
X130600D01*
X123600D02*
Y89500D01*
Y67500D02*
X124700D01*
X130600D02*
Y89500D01*
X127900D02*
X130600D01*
X123600D02*
X126300D01*
X120400Y92500D02*
X119900D01*
Y92750D01*
X119983Y92833D01*
X120150D01*
X120233Y92750D01*
Y92500D01*
Y92667D02*
X120400Y92833D01*
Y93000D02*
Y93166D01*
Y93083D01*
X119900D01*
X119983Y93000D01*
Y93416D02*
X119900Y93500D01*
Y93666D01*
X119983Y93750D01*
X120067D01*
X120150Y93666D01*
Y93583D01*
Y93666D01*
X120233Y93750D01*
X120317D01*
X120400Y93666D01*
Y93500D01*
X120317Y93416D01*
X120400Y72420D02*
Y72087D01*
X120567Y71920D01*
X120733Y72087D01*
Y72420D01*
X121233Y72337D02*
X121150Y72420D01*
X120983D01*
X120900Y72337D01*
Y72003D01*
X120983Y71920D01*
X121150D01*
X121233Y72003D01*
X121733Y72337D02*
X121650Y72420D01*
X121483D01*
X121400Y72337D01*
Y72003D01*
X121483Y71920D01*
X121650D01*
X121733Y72003D01*
X120400Y73200D02*
X120733D01*
X120567D01*
Y72700D01*
X120900D02*
Y73200D01*
X121150D01*
X121233Y73117D01*
Y72950D01*
X121150Y72867D01*
X120900D01*
X121400Y73117D02*
X121483Y73200D01*
X121650D01*
X121733Y73117D01*
Y73033D01*
X121650Y72950D01*
X121733Y72867D01*
Y72783D01*
X121650Y72700D01*
X121483D01*
X121400Y72783D01*
Y72867D01*
X121483Y72950D01*
X121400Y73033D01*
Y73117D01*
X121483Y72950D02*
X121650D01*
X131600Y93100D02*
Y92767D01*
X131767Y92600D01*
X131933Y92767D01*
Y93100D01*
X132100D02*
Y92600D01*
X132350D01*
X132433Y92683D01*
Y93017D01*
X132350Y93100D01*
X132100D01*
X132600D02*
X132766D01*
X132683D01*
Y92600D01*
X132600D01*
X132766D01*
X133016Y93100D02*
Y92767D01*
X133183Y92600D01*
X133349Y92767D01*
Y93100D01*
X131600Y93900D02*
X131933D01*
X131767D01*
Y93400D01*
X132100D02*
Y93900D01*
X132350D01*
X132433Y93817D01*
Y93650D01*
X132350Y93567D01*
X132100D01*
X132600Y93900D02*
X132933D01*
Y93817D01*
X132600Y93483D01*
Y93400D01*
X117333Y98817D02*
X117250Y98900D01*
X117083D01*
X117000Y98817D01*
Y98483D01*
X117083Y98400D01*
X117250D01*
X117333Y98483D01*
X117750Y98900D02*
X117583D01*
X117500Y98817D01*
Y98483D01*
X117583Y98400D01*
X117750D01*
X117833Y98483D01*
Y98817D01*
X117750Y98900D01*
X118000Y98400D02*
Y98900D01*
X118166Y98733D01*
X118333Y98900D01*
Y98400D01*
X118500D02*
Y98900D01*
X118749D01*
X118833Y98817D01*
Y98650D01*
X118749Y98567D01*
X118500D01*
X117200Y99700D02*
X117533D01*
X117367D01*
Y99200D01*
X117700D02*
Y99700D01*
X117950D01*
X118033Y99617D01*
Y99450D01*
X117950Y99367D01*
X117700D01*
X118533Y99700D02*
X118366Y99617D01*
X118200Y99450D01*
Y99283D01*
X118283Y99200D01*
X118450D01*
X118533Y99283D01*
Y99367D01*
X118450Y99450D01*
X118200D01*
X131500Y95000D02*
Y94667D01*
X131667Y94500D01*
X131833Y94667D01*
Y95000D01*
X132000Y94500D02*
Y95000D01*
X132250D01*
X132333Y94917D01*
Y94750D01*
X132250Y94667D01*
X132000D01*
X132166D02*
X132333Y94500D01*
X132833Y95000D02*
X132500D01*
Y94500D01*
X132833D01*
X132500Y94750D02*
X132666D01*
X133333Y95000D02*
X133000D01*
Y94750D01*
X133166D01*
X133000D01*
Y94500D01*
X131500Y95800D02*
X131833D01*
X131667D01*
Y95300D01*
X132000D02*
Y95800D01*
X132250D01*
X132333Y95717D01*
Y95550D01*
X132250Y95467D01*
X132000D01*
X132833Y95800D02*
X132500D01*
Y95550D01*
X132666Y95633D01*
X132750D01*
X132833Y95550D01*
Y95383D01*
X132750Y95300D01*
X132583D01*
X132500Y95383D01*
X108233Y69717D02*
X108150Y69800D01*
X107983D01*
X107900Y69717D01*
Y69383D01*
X107983Y69300D01*
X108150D01*
X108233Y69383D01*
Y69550D01*
X108067D01*
X108400Y69300D02*
Y69800D01*
X108733Y69300D01*
Y69800D01*
X108900D02*
Y69300D01*
X109150D01*
X109233Y69383D01*
Y69717D01*
X109150Y69800D01*
X108900D01*
X107900Y70700D02*
X108233D01*
X108067D01*
Y70200D01*
X108400D02*
Y70700D01*
X108650D01*
X108733Y70617D01*
Y70450D01*
X108650Y70367D01*
X108400D01*
X109150Y70200D02*
Y70700D01*
X108900Y70450D01*
X109233D01*
X107900Y67500D02*
Y67167D01*
X108067Y67000D01*
X108233Y67167D01*
Y67500D01*
X108650Y67000D02*
Y67500D01*
X108400Y67250D01*
X108733D01*
X108900Y67417D02*
X108983Y67500D01*
X109150D01*
X109233Y67417D01*
Y67333D01*
X109150Y67250D01*
X109233Y67167D01*
Y67083D01*
X109150Y67000D01*
X108983D01*
X108900Y67083D01*
Y67167D01*
X108983Y67250D01*
X108900Y67333D01*
Y67417D01*
X108983Y67250D02*
X109150D01*
X107800Y68300D02*
X108133D01*
X107967D01*
Y67800D01*
X108300D02*
Y68300D01*
X108550D01*
X108633Y68217D01*
Y68050D01*
X108550Y67967D01*
X108300D01*
X108800Y68217D02*
X108883Y68300D01*
X109050D01*
X109133Y68217D01*
Y68133D01*
X109050Y68050D01*
X108966D01*
X109050D01*
X109133Y67967D01*
Y67883D01*
X109050Y67800D01*
X108883D01*
X108800Y67883D01*
X120500Y84800D02*
Y85300D01*
X120750D01*
X120833Y85217D01*
Y85050D01*
X120750Y84967D01*
X120500D01*
X120667D02*
X120833Y84800D01*
X121000Y85217D02*
X121083Y85300D01*
X121250D01*
X121333Y85217D01*
Y85133D01*
X121250Y85050D01*
X121166D01*
X121250D01*
X121333Y84967D01*
Y84883D01*
X121250Y84800D01*
X121083D01*
X121000Y84883D01*
X121833Y85300D02*
X121666Y85217D01*
X121500Y85050D01*
Y84883D01*
X121583Y84800D01*
X121750D01*
X121833Y84883D01*
Y84967D01*
X121750Y85050D01*
X121500D01*
X120400Y86060D02*
X120733D01*
X120567D01*
Y85560D01*
X120900D02*
Y86060D01*
X121150D01*
X121233Y85977D01*
Y85810D01*
X121150Y85727D01*
X120900D01*
X121733Y85560D02*
X121400D01*
X121733Y85893D01*
Y85977D01*
X121650Y86060D01*
X121483D01*
X121400Y85977D01*
X120500Y89300D02*
Y88800D01*
X120750D01*
X120833Y88883D01*
Y89217D01*
X120750Y89300D01*
X120500D01*
X121000Y88800D02*
X121166D01*
X121083D01*
Y89300D01*
X121000Y89217D01*
X121750Y88800D02*
X121416D01*
X121750Y89133D01*
Y89217D01*
X121666Y89300D01*
X121500D01*
X121416Y89217D01*
X120500Y90000D02*
X120833D01*
X120667D01*
Y89500D01*
X121000D02*
Y90000D01*
X121250D01*
X121333Y89917D01*
Y89750D01*
X121250Y89667D01*
X121000D01*
X121500Y89500D02*
X121666D01*
X121583D01*
Y90000D01*
X121500Y89917D01*
X107900Y95700D02*
X107800Y95800D01*
X107600D01*
X107500Y95700D01*
Y95300D01*
X107600Y95200D01*
X107800D01*
X107900Y95300D01*
X108100Y95200D02*
Y95600D01*
X108300Y95800D01*
X108500Y95600D01*
Y95200D01*
Y95500D01*
X108100D01*
X108700Y95800D02*
X109099D01*
X108900D01*
Y95200D01*
X109699Y95800D02*
X109299D01*
Y95500D01*
X109499Y95600D01*
X109599D01*
X109699Y95500D01*
Y95300D01*
X109599Y95200D01*
X109399D01*
X109299Y95300D01*
X109100Y96800D02*
X108900D01*
X109000D01*
Y96300D01*
X108900Y96200D01*
X108800D01*
X108700Y96300D01*
X109700Y96200D02*
X109300D01*
X109700Y96600D01*
Y96700D01*
X109600Y96800D01*
X109400D01*
X109300Y96700D01*
X113583Y90533D02*
X113500Y90450D01*
Y90283D01*
X113583Y90200D01*
X113917D01*
X114000Y90283D01*
Y90450D01*
X113917Y90533D01*
X114000Y91033D02*
Y90700D01*
X113667Y91033D01*
X113583D01*
X113500Y90950D01*
Y90783D01*
X113583Y90700D01*
X125100Y82800D02*
Y82300D01*
X125350D01*
X125433Y82383D01*
Y82717D01*
X125350Y82800D01*
X125100D01*
X125600D02*
Y82300D01*
X125933D01*
X126100D02*
Y82800D01*
X126350D01*
X126433Y82717D01*
Y82550D01*
X126350Y82467D01*
X126100D01*
X126933Y82300D02*
X126600D01*
X126933Y82633D01*
Y82717D01*
X126849Y82800D01*
X126683D01*
X126600Y82717D01*
X127433Y82300D02*
X127099D01*
X127433Y82633D01*
Y82717D01*
X127349Y82800D01*
X127183D01*
X127099Y82717D01*
X127599D02*
X127683Y82800D01*
X127849D01*
X127932Y82717D01*
Y82633D01*
X127849Y82550D01*
X127766D01*
X127849D01*
X127932Y82467D01*
Y82383D01*
X127849Y82300D01*
X127683D01*
X127599Y82383D01*
X128432Y82300D02*
X128099D01*
X128432Y82633D01*
Y82717D01*
X128349Y82800D01*
X128182D01*
X128099Y82717D01*
X128599Y82300D02*
Y82800D01*
X128765Y82633D01*
X128932Y82800D01*
Y82300D01*
X125450Y100900D02*
Y100400D01*
X125700D01*
X125783Y100483D01*
Y100817D01*
X125700Y100900D01*
X125450D01*
X126283Y100400D02*
X125950D01*
X126283Y100733D01*
Y100817D01*
X126200Y100900D01*
X126033D01*
X125950Y100817D01*
X128050Y100900D02*
Y100400D01*
X128300D01*
X128383Y100483D01*
Y100817D01*
X128300Y100900D01*
X128050D01*
X128550Y100400D02*
X128716D01*
X128633D01*
Y100900D01*
X128550Y100817D01*
X109400Y87100D02*
Y86683D01*
X109483Y86600D01*
X109650D01*
X109733Y86683D01*
Y87100D01*
X109900Y87017D02*
X109983Y87100D01*
X110150D01*
X110233Y87017D01*
Y86933D01*
X110150Y86850D01*
X110066D01*
X110150D01*
X110233Y86767D01*
Y86683D01*
X110150Y86600D01*
X109983D01*
X109900Y86683D01*
X116300Y87100D02*
Y86683D01*
X116383Y86600D01*
X116550D01*
X116633Y86683D01*
Y87100D01*
X117133Y86600D02*
X116800D01*
X117133Y86933D01*
Y87017D01*
X117050Y87100D01*
X116883D01*
X116800Y87017D01*
X122700Y92850D02*
X122200D01*
Y93100D01*
X122283Y93183D01*
X122450D01*
X122533Y93100D01*
Y92850D01*
Y93017D02*
X122700Y93183D01*
X122617Y93350D02*
X122700Y93433D01*
Y93600D01*
X122617Y93683D01*
X122283D01*
X122200Y93600D01*
Y93433D01*
X122283Y93350D01*
X122367D01*
X122450Y93433D01*
Y93683D01*
X130700Y96600D02*
Y97100D01*
X130950D01*
X131033Y97017D01*
Y96850D01*
X130950Y96767D01*
X130700D01*
X130867D02*
X131033Y96600D01*
X131200Y97017D02*
X131283Y97100D01*
X131450D01*
X131533Y97017D01*
Y96933D01*
X131450Y96850D01*
X131533Y96767D01*
Y96683D01*
X131450Y96600D01*
X131283D01*
X131200Y96683D01*
Y96767D01*
X131283Y96850D01*
X131200Y96933D01*
Y97017D01*
X131283Y96850D02*
X131450D01*
X125550Y92600D02*
X125050D01*
Y92850D01*
X125133Y92933D01*
X125300D01*
X125383Y92850D01*
Y92600D01*
Y92767D02*
X125550Y92933D01*
X125050Y93100D02*
Y93433D01*
X125133D01*
X125467Y93100D01*
X125550D01*
X121500Y92880D02*
X121000D01*
Y93130D01*
X121083Y93213D01*
X121250D01*
X121333Y93130D01*
Y92880D01*
Y93047D02*
X121500Y93213D01*
X121000Y93713D02*
X121083Y93546D01*
X121250Y93380D01*
X121417D01*
X121500Y93463D01*
Y93630D01*
X121417Y93713D01*
X121333D01*
X121250Y93630D01*
Y93380D01*
X130600Y99700D02*
Y100200D01*
X130850D01*
X130933Y100117D01*
Y99950D01*
X130850Y99867D01*
X130600D01*
X130767D02*
X130933Y99700D01*
X131433Y100200D02*
X131100D01*
Y99950D01*
X131266Y100033D01*
X131350D01*
X131433Y99950D01*
Y99783D01*
X131350Y99700D01*
X131183D01*
X131100Y99783D01*
X111900Y86800D02*
X111400D01*
Y87050D01*
X111483Y87133D01*
X111650D01*
X111733Y87050D01*
Y86800D01*
Y86967D02*
X111900Y87133D01*
Y87550D02*
X111400D01*
X111650Y87300D01*
Y87633D01*
X109400Y92200D02*
Y92700D01*
X109650D01*
X109733Y92617D01*
Y92450D01*
X109650Y92367D01*
X109400D01*
X109567D02*
X109733Y92200D01*
X109900Y92617D02*
X109983Y92700D01*
X110150D01*
X110233Y92617D01*
Y92533D01*
X110150Y92450D01*
X110066D01*
X110150D01*
X110233Y92367D01*
Y92283D01*
X110150Y92200D01*
X109983D01*
X109900Y92283D01*
X115940Y92200D02*
Y92700D01*
X116190D01*
X116273Y92617D01*
Y92450D01*
X116190Y92367D01*
X115940D01*
X116107D02*
X116273Y92200D01*
X116773D02*
X116440D01*
X116773Y92533D01*
Y92617D01*
X116690Y92700D01*
X116523D01*
X116440Y92617D01*
X122700Y97000D02*
Y97500D01*
X122950D01*
X123033Y97417D01*
Y97250D01*
X122950Y97167D01*
X122700D01*
X122867D02*
X123033Y97000D01*
X123200D02*
X123366D01*
X123283D01*
Y97500D01*
X123200Y97417D01*
X123950Y97000D02*
X123616D01*
X123950Y97333D01*
Y97417D01*
X123866Y97500D01*
X123700D01*
X123616Y97417D01*
X129600Y92700D02*
X129100D01*
Y92950D01*
X129183Y93033D01*
X129350D01*
X129433Y92950D01*
Y92700D01*
Y92867D02*
X129600Y93033D01*
Y93200D02*
Y93366D01*
Y93283D01*
X129100D01*
X129183Y93200D01*
X129600Y93616D02*
Y93783D01*
Y93700D01*
X129100D01*
X129183Y93616D01*
X122600Y100200D02*
Y100700D01*
X122850D01*
X122933Y100617D01*
Y100450D01*
X122850Y100367D01*
X122600D01*
X122767D02*
X122933Y100200D01*
X123100D02*
X123266D01*
X123183D01*
Y100700D01*
X123100Y100617D01*
X123516D02*
X123600Y100700D01*
X123766D01*
X123850Y100617D01*
Y100283D01*
X123766Y100200D01*
X123600D01*
X123516Y100283D01*
Y100617D01*
X115200Y90400D02*
X114700D01*
Y90650D01*
X114783Y90733D01*
X114950D01*
X115033Y90650D01*
Y90400D01*
Y90567D02*
X115200Y90733D01*
Y90900D02*
Y91066D01*
Y90983D01*
X114700D01*
X114783Y90900D01*
X121183Y100083D02*
Y100417D01*
X121100Y100500D01*
X120933D01*
X120850Y100417D01*
Y100083D01*
X120933Y100000D01*
X121100D01*
X121017Y100167D02*
X121183Y100000D01*
X121100D02*
X121183Y100083D01*
X121350Y100000D02*
X121516D01*
X121433D01*
Y100500D01*
X121350Y100417D01*
X107783Y90633D02*
X107700Y90550D01*
Y90383D01*
X107783Y90300D01*
X108117D01*
X108200Y90383D01*
Y90550D01*
X108117Y90633D01*
X108200Y90800D02*
Y90966D01*
Y90883D01*
X107700D01*
X107783Y90800D01*
X112100Y70400D02*
X111900D01*
X112000D01*
Y69900D01*
X111900Y69800D01*
X111800D01*
X111700Y69900D01*
X112300Y69800D02*
X112500D01*
X112400D01*
Y70400D01*
X112300Y70300D01*
X126600Y93100D02*
Y92683D01*
X126683Y92600D01*
X126850D01*
X126933Y92683D01*
Y93100D01*
X127350Y92600D02*
Y93100D01*
X127100Y92850D01*
X127433D01*
X123893Y92833D02*
X123810Y92750D01*
Y92583D01*
X123893Y92500D01*
X124227D01*
X124310Y92583D01*
Y92750D01*
X124227Y92833D01*
X123893Y93000D02*
X123810Y93083D01*
Y93250D01*
X123893Y93333D01*
X123977D01*
X124060Y93250D01*
Y93166D01*
Y93250D01*
X124143Y93333D01*
X124227D01*
X124310Y93250D01*
Y93083D01*
X124227Y93000D01*
X109500Y77700D02*
X109400Y77800D01*
X109200D01*
X109100Y77700D01*
Y77300D01*
X109200Y77200D01*
X109400D01*
X109500Y77300D01*
X109700Y77200D02*
Y77600D01*
X109900Y77800D01*
X110100Y77600D01*
Y77200D01*
Y77500D01*
X109700D01*
X110300Y77800D02*
X110699D01*
X110500D01*
Y77200D01*
X111299Y77800D02*
X110899D01*
Y77500D01*
X111099Y77600D01*
X111199D01*
X111299Y77500D01*
Y77300D01*
X111199Y77200D01*
X110999D01*
X110899Y77300D01*
X112499Y77700D02*
X112399Y77800D01*
X112199D01*
X112099Y77700D01*
Y77300D01*
X112199Y77200D01*
X112399D01*
X112499Y77300D01*
X112699Y77200D02*
Y77600D01*
X112899Y77800D01*
X113099Y77600D01*
Y77200D01*
Y77500D01*
X112699D01*
X113299Y77800D02*
Y77200D01*
X113599D01*
X113699Y77300D01*
Y77400D01*
X113599Y77500D01*
X113299D01*
X113599D01*
X113699Y77600D01*
Y77700D01*
X113599Y77800D01*
X113299D01*
X113898D02*
Y77200D01*
X114298D01*
X114898Y77800D02*
X114498D01*
Y77200D01*
X114898D01*
X114498Y77500D02*
X114698D01*
X115698Y77800D02*
Y77300D01*
X115798Y77200D01*
X115998D01*
X116098Y77300D01*
Y77800D01*
X116698Y77700D02*
X116598Y77800D01*
X116398D01*
X116298Y77700D01*
Y77600D01*
X116398Y77500D01*
X116598D01*
X116698Y77400D01*
Y77300D01*
X116598Y77200D01*
X116398D01*
X116298Y77300D01*
X116897Y77200D02*
Y77600D01*
X117097Y77800D01*
X117297Y77600D01*
Y77200D01*
Y77500D01*
X116897D01*
X117897Y77700D02*
X117797Y77800D01*
X117597D01*
X117497Y77700D01*
Y77300D01*
X117597Y77200D01*
X117797D01*
X117897Y77300D01*
Y77500D01*
X117697D01*
X118497Y77800D02*
X118097D01*
Y77200D01*
X118497D01*
X118097Y77500D02*
X118297D01*
X117100Y92617D02*
X117433Y92283D01*
X117100D02*
X117433Y92617D01*
X117100Y92450D02*
X117433D01*
X117267Y92283D02*
Y92617D01*
D33*
X113300Y99450D02*
X113600D01*
Y99675D01*
X113450D01*
X113600D01*
Y99900D01*
X112850Y99525D02*
X112925Y99450D01*
X113075D01*
X113150Y99525D01*
Y99825D01*
X113075Y99900D01*
X112925D01*
X112850Y99825D01*
X112700Y99450D02*
X112550D01*
X112625D01*
Y99900D01*
X112700D01*
X112550D01*
X114933Y100400D02*
X115200D01*
Y100600D01*
X115067Y100533D01*
X115000D01*
X114933Y100600D01*
Y100733D01*
X115000Y100800D01*
X115133D01*
X115200Y100733D01*
X114600Y100800D02*
Y100400D01*
X114800Y100600D01*
X114534D01*
X114134Y100400D02*
X114267Y100467D01*
X114400Y100600D01*
Y100733D01*
X114334Y100800D01*
X114200D01*
X114134Y100733D01*
Y100667D01*
X114200Y100600D01*
X114400D01*
X114000Y100467D02*
X113934Y100400D01*
X113800D01*
X113734Y100467D01*
Y100733D01*
X113800Y100800D01*
X113934D01*
X114000Y100733D01*
Y100467D01*
X113334Y100800D02*
X113601D01*
X113334Y100533D01*
Y100467D01*
X113401Y100400D01*
X113534D01*
X113601Y100467D01*
X113201Y100600D02*
X112934D01*
X112801Y100733D02*
X112734Y100800D01*
X112601D01*
X112534Y100733D01*
Y100467D01*
X112601Y100400D01*
X112734D01*
X112801Y100467D01*
Y100533D01*
X112734Y100600D01*
X112534D01*
X112401Y100467D02*
X112334Y100400D01*
X112201D01*
X112134Y100467D01*
Y100733D01*
X112201Y100800D01*
X112334D01*
X112401Y100733D01*
Y100467D01*
X112001D02*
X111934Y100400D01*
X111801D01*
X111734Y100467D01*
Y100533D01*
X111801Y100600D01*
X111734Y100667D01*
Y100733D01*
X111801Y100800D01*
X111934D01*
X112001Y100733D01*
Y100667D01*
X111934Y100600D01*
X112001Y100533D01*
Y100467D01*
X111934Y100600D02*
X111801D01*
X111601Y100400D02*
Y100800D01*
X111335D01*
X110935Y100400D02*
X111201D01*
Y100600D01*
X111068D01*
X111201D01*
Y100800D01*
M02*
