M72
M48
T1F00S00C0.0200
T2F00S00C0.0280
T3F00S00C0.0350
T4F00S00C0.0380
T5F00S00C0.0595
T6F00S00C0.1285
%
T01
X125600Y093700
X119200Y088000
Y086800
X113400
X112200
X121550Y098200
T02
X113800Y087600
X111300Y090400
X118200Y090000
X122300Y092250
X123300Y093250
X124100Y093700
X108350Y087550
X116500Y097200
X120700Y097500
X122300Y097300
X125750Y096500
X127900Y095000
X129400Y096400
T03
X124100Y070000
Y071000
Y072000
Y073000
Y074000
Y075000
Y076000
Y077000
Y078000
X130100
Y077000
Y076000
Y075000
Y074000
Y073000
Y072000
Y071000
Y070000
Y079000
Y080000
Y081000
Y082000
Y083000
Y084000
Y085000
Y086000
Y087000
Y088000
Y089000
X124100
Y088000
Y087000
Y086000
Y085000
Y084000
Y083000
Y082000
Y081000
Y080000
Y079000
X114350Y095000
X113350
X112350Y095000
X111400Y095000
X111850Y096000
X112850Y096000
X113850Y096000
X114850Y096000
X125350Y098400
X126350Y098400
Y099400
X125350Y099400
X127850
X128850Y099400
Y098400
X127850Y098400
T04
X110200Y067500
Y070000
X121100Y074000
X130800Y093300
X121100Y088000
Y086800
X119600Y099000
X130800Y095000
T05
X112350Y067500
X113850
T06
X110850Y098500
X115350
M30
