%FSLAX24Y24*%
%MOIN*%
G70*
G01*
G75*
%ADD10R,0.0500X0.0600*%
%ADD11R,0.0320X0.0950*%
%ADD12R,0.0600X0.0500*%
%ADD13R,0.0360X0.0360*%
%ADD14R,0.0500X0.0360*%
%ADD15C,0.0200*%
%ADD16C,0.0500*%
%ADD17C,0.0150*%
%ADD18C,0.0300*%
%ADD19R,0.1000X0.6600*%
%ADD20C,0.0700*%
%ADD21O,0.0600X0.0750*%
%ADD22C,0.1280*%
%ADD23C,0.1000*%
%ADD24R,0.0700X0.0700*%
%ADD25C,0.0500*%
%ADD26C,0.0400*%
D10*
X120100Y95500D02*
D03*
Y94600D02*
D03*
X115000Y89400D02*
D03*
Y88500D02*
D03*
X125300Y95500D02*
D03*
X121300Y94580D02*
D03*
Y95480D02*
D03*
X122500Y95450D02*
D03*
X111700Y88500D02*
D03*
X129400Y94600D02*
D03*
X122500Y94550D02*
D03*
X125300Y94600D02*
D03*
X129400Y95500D02*
D03*
X111700Y89400D02*
D03*
X108000Y89400D02*
D03*
Y88500D02*
D03*
X113800Y89400D02*
D03*
Y88500D02*
D03*
X124100Y95500D02*
D03*
X124100Y94600D02*
D03*
D11*
X117600Y88000D02*
D03*
X116100Y89969D02*
D03*
X116600D02*
D03*
X117100D02*
D03*
X117100Y88000D02*
D03*
X109100Y89969D02*
D03*
X110100D02*
D03*
X109600D02*
D03*
X109100Y88000D02*
D03*
X116100D02*
D03*
X116600Y88000D02*
D03*
X109600D02*
D03*
X110100D02*
D03*
X110600Y88000D02*
D03*
X117600Y89969D02*
D03*
X110600D02*
D03*
X127400Y94000D02*
D03*
X126400Y94000D02*
D03*
X127900Y95969D02*
D03*
X127400D02*
D03*
X126900D02*
D03*
X126400D02*
D03*
X127900Y94000D02*
D03*
X126900Y94000D02*
D03*
D12*
X130600Y97800D02*
D03*
X116400Y91500D02*
D03*
X117300D02*
D03*
X131500Y97800D02*
D03*
X110300Y91500D02*
D03*
X109400D02*
D03*
X123750Y99400D02*
D03*
X130600Y99000D02*
D03*
X131500D02*
D03*
X122850Y99400D02*
D03*
Y98200D02*
D03*
X123750D02*
D03*
D13*
X121550Y99450D02*
D03*
Y98700D02*
D03*
D14*
X120750Y99080D02*
D03*
D15*
X123700Y95500D02*
X125300D01*
X113100Y89400D02*
X115000D01*
X120100Y90050D02*
X122300Y92250D01*
X120750Y97550D02*
Y99080D01*
X120700Y97500D02*
X120750Y97550D01*
X123300Y93250D02*
Y95100D01*
X123700Y95500D01*
X129400D02*
Y96400D01*
X127400Y95969D02*
X127900D01*
X125300Y95500D02*
X125768Y95969D01*
X126400D01*
X121300Y95480D02*
X122500Y95450D01*
X125768Y95969D02*
Y96482D01*
X125750Y96500D02*
X125768Y96482D01*
X124100Y93700D02*
Y94600D01*
Y93700D02*
X124100Y93700D01*
X127900Y94000D02*
Y95969D01*
X127900Y95969D02*
X127900Y95969D01*
X107100Y89100D02*
X107400Y89400D01*
X108000D01*
X108000Y89400D01*
X112800Y89100D02*
X113100Y89400D01*
X115000D02*
X115569Y89969D01*
X116100D01*
X113800Y87600D02*
Y88500D01*
X117600Y89969D02*
X118268D01*
X118200Y90000D02*
X118268Y89969D01*
X117100D02*
Y90800D01*
X117300Y91000D01*
X116600Y89969D02*
Y90800D01*
X116400Y91000D02*
X116600Y90800D01*
X114350Y95000D02*
X115400D01*
X116400Y94000D01*
Y91000D02*
Y94000D01*
X114850Y96000D02*
X115800D01*
X117300Y94500D01*
Y91000D02*
Y94500D01*
X112350Y94250D02*
Y95000D01*
X111900Y93800D02*
X112350Y94250D01*
X110800Y93800D02*
X111900D01*
X110300Y93300D02*
X110800Y93800D01*
X113850Y96000D02*
Y96550D01*
X113400Y97000D02*
X113850Y96550D01*
X111800Y97000D02*
X113400D01*
X109400Y94600D02*
X111800Y97000D01*
X109400Y91000D02*
X109600Y90800D01*
Y89969D02*
Y90800D01*
X109400Y91000D02*
Y94600D01*
X110100Y90800D02*
X110300Y91000D01*
X110100Y89969D02*
Y90800D01*
X110300Y91000D02*
Y93300D01*
X108000Y89400D02*
X108568Y89969D01*
X109100D01*
X110600D02*
X110869D01*
X111300Y90400D01*
X111700Y90000D01*
Y89400D02*
Y90000D01*
X107100Y86900D02*
X108000Y86000D01*
X112100D01*
X107100Y86900D02*
Y89100D01*
X112800Y86000D02*
Y89100D01*
X108000Y87900D02*
Y88500D01*
Y87900D02*
X108350Y87550D01*
X120100Y86700D02*
Y90050D01*
D16*
Y86000D02*
Y86700D01*
X121100Y74000D02*
X124100D01*
X120100Y75000D02*
X121100Y74000D01*
X120100Y75000D02*
Y86000D01*
D17*
X116500Y97200D02*
X118200Y95500D01*
X120100D01*
Y94600D02*
X120120Y94580D01*
X121300D01*
X130100Y99000D02*
X130600D01*
X129700Y99400D02*
X130100Y99000D01*
X121900Y87600D02*
Y89200D01*
X129400Y93300D02*
X130800D01*
X125900Y97200D02*
X129600D01*
X130800Y95000D02*
Y96000D01*
X129600Y97200D02*
X130800Y96000D01*
X125400Y97700D02*
Y98300D01*
X128600Y93300D02*
Y97200D01*
X128200Y97600D02*
X129400D01*
X127850Y97950D02*
X128200Y97600D01*
X128300Y93000D02*
X128600Y93300D01*
X127700Y93000D02*
X128300D01*
X127400Y93300D02*
X127700Y93000D01*
X127400Y93300D02*
Y94000D01*
X131500Y99000D02*
X132100D01*
X132500Y98600D01*
Y97000D02*
Y98600D01*
X132100Y96600D02*
X132500Y97000D01*
X132100Y78800D02*
Y96600D01*
X131300Y78000D02*
X132100Y78800D01*
X130100Y78000D02*
X131300D01*
X130100Y79000D02*
X131000D01*
X131500Y79500D01*
Y97800D01*
X129700Y99400D02*
Y99900D01*
X129300Y100300D02*
X129700Y99900D01*
X128200Y100300D02*
X129300D01*
X127850Y99950D02*
X128200Y100300D01*
X127850Y99400D02*
Y99950D01*
X122800Y98200D02*
X122850D01*
X122300Y97700D02*
X122800Y98200D01*
X123200Y92600D02*
X128700D01*
X125300Y94600D02*
X125900Y94000D01*
X125600Y93700D02*
X125900Y94000D01*
X128700Y92600D02*
X129400Y93300D01*
Y94600D01*
X125400Y97700D02*
X125900Y97200D01*
X123750Y99400D02*
X125350D01*
X125000Y97700D02*
X125400D01*
X123750Y98200D02*
X124500D01*
X125350Y98400D02*
X125400Y98300D01*
X121550Y99450D02*
X122800D01*
X122850Y99400D01*
X124500Y98200D02*
X125000Y97700D01*
X127850Y97950D02*
Y98400D01*
X129400Y97600D02*
X129600Y97800D01*
X130600D01*
X126900Y92600D02*
Y94000D01*
X122500Y93310D02*
Y94550D01*
Y93310D02*
X123200Y92600D01*
X115000Y88500D02*
X115100D01*
X115400Y88800D01*
X116900D02*
X117100Y88600D01*
Y88000D02*
Y88600D01*
X116600Y88000D02*
Y88800D01*
X115400Y88800D02*
X116900D01*
X110600Y88000D02*
X111200D01*
X111700Y88500D01*
X110600Y88000D02*
X110600Y88000D01*
X109600Y88000D02*
X110600D01*
X117600Y88000D02*
X119200D01*
X122300Y90500D02*
X128600D01*
X129600Y89500D01*
X130100Y89000D01*
X128100Y90000D02*
X130100Y88000D01*
X121100Y89300D02*
X122300Y90500D01*
X121100Y88000D02*
Y89300D01*
X122700Y90000D02*
X128100D01*
X121900Y89200D02*
X122700Y90000D01*
X121100Y86800D02*
X121900Y87600D01*
X118500Y86800D02*
X119200D01*
X113400D02*
X118500D01*
X109500D02*
X112200D01*
X109100Y87200D02*
X109500Y86800D01*
X109100Y87200D02*
Y88000D01*
X121550Y98200D02*
Y98700D01*
X125900Y94000D02*
X126400D01*
X122300Y97300D02*
Y97700D01*
X134200Y68100D02*
Y68500D01*
Y68300D01*
X134800D01*
X134200Y69000D02*
Y68800D01*
X134300Y68700D01*
X134700D01*
X134800Y68800D01*
Y69000D01*
X134700Y69100D01*
X134300D01*
X134200Y69000D01*
X134800Y69300D02*
X134200D01*
Y69600D01*
X134300Y69699D01*
X134500D01*
X134600Y69600D01*
Y69300D01*
D18*
X112800Y86000D02*
X120100D01*
X112100D02*
X112800D01*
D19*
X134500Y75600D02*
D03*
D20*
X119600Y99000D02*
D03*
X121100Y74000D02*
D03*
X130800Y93300D02*
D03*
Y95000D02*
D03*
X121100Y86800D02*
D03*
Y88000D02*
D03*
X110200Y70000D02*
D03*
Y67500D02*
D03*
X125350Y98400D02*
D03*
X126350Y99400D02*
D03*
Y98400D02*
D03*
X125350Y99400D02*
D03*
X128850Y99400D02*
D03*
Y98400D02*
D03*
X127850Y99400D02*
D03*
Y98400D02*
D03*
X124100Y70000D02*
D03*
Y71000D02*
D03*
Y72000D02*
D03*
Y73000D02*
D03*
X130100Y88000D02*
D03*
Y89000D02*
D03*
Y78000D02*
D03*
X124100Y74000D02*
D03*
X130100Y86000D02*
D03*
Y87000D02*
D03*
Y82000D02*
D03*
Y83000D02*
D03*
Y84000D02*
D03*
Y85000D02*
D03*
Y80000D02*
D03*
Y81000D02*
D03*
Y75000D02*
D03*
Y76000D02*
D03*
Y77000D02*
D03*
X124100Y81000D02*
D03*
Y77000D02*
D03*
Y78000D02*
D03*
Y79000D02*
D03*
Y80000D02*
D03*
X130100Y70000D02*
D03*
X124100Y82000D02*
D03*
Y83000D02*
D03*
Y84000D02*
D03*
Y85000D02*
D03*
Y86000D02*
D03*
Y87000D02*
D03*
Y88000D02*
D03*
X130100Y79000D02*
D03*
X124100Y76000D02*
D03*
Y75000D02*
D03*
X130100Y71000D02*
D03*
Y72000D02*
D03*
Y73000D02*
D03*
Y74000D02*
D03*
D21*
X112350Y95000D02*
D03*
X113850Y96000D02*
D03*
X112850Y96000D02*
D03*
X113350Y95000D02*
D03*
X114350D02*
D03*
X114850Y96000D02*
D03*
X111850D02*
D03*
X111400Y95000D02*
D03*
D22*
X115350Y98500D02*
D03*
X110850D02*
D03*
D23*
X112350Y67500D02*
D03*
X113850D02*
D03*
D24*
X124100Y89000D02*
D03*
D25*
X122300Y92250D02*
D03*
X120700Y97500D02*
D03*
X123300Y93250D02*
D03*
X129400Y96400D02*
D03*
X127900Y95000D02*
D03*
X125750Y96500D02*
D03*
X124100Y93700D02*
D03*
X113800Y87600D02*
D03*
X118200Y90000D02*
D03*
X111300Y90400D02*
D03*
X116500Y97200D02*
D03*
X122300Y97300D02*
D03*
X108350Y87550D02*
D03*
D26*
X125600Y93700D02*
D03*
X119200Y88000D02*
D03*
Y86800D02*
D03*
X113400D02*
D03*
X112200D02*
D03*
X121550Y98200D02*
D03*
M02*
