%FSLAX24Y24*%
%MOIN*%
G70*
G01*
G75*
%ADD10R,0.0500X0.0600*%
%ADD11R,0.0320X0.0950*%
%ADD12R,0.0600X0.0500*%
%ADD13R,0.0360X0.0360*%
%ADD14R,0.0500X0.0360*%
%ADD15C,0.0200*%
%ADD16C,0.0500*%
%ADD17C,0.0150*%
%ADD18C,0.0300*%
%ADD19R,0.1000X0.6600*%
%ADD20C,0.0700*%
%ADD21O,0.0600X0.0750*%
%ADD22C,0.1280*%
%ADD23C,0.1000*%
%ADD24R,0.0700X0.0700*%
%ADD25C,0.0500*%
%ADD26C,0.0400*%
%ADD27C,0.0120*%
%ADD28C,0.0400*%
%ADD29R,0.1000X0.3500*%
D15*
X130100Y74000D02*
X130700D01*
X129500D02*
X130100D01*
Y73000D02*
X130700D01*
X129500D02*
X130100D01*
Y72000D02*
X130700D01*
X129500D02*
X130100D01*
Y71000D02*
X130700D01*
X129500D02*
X130100D01*
X111300Y96000D02*
X111850D01*
X111400Y95000D02*
Y95625D01*
X110850Y95000D02*
X111400D01*
Y94375D02*
Y95000D01*
X124100Y76000D02*
X124700D01*
X123500D02*
X124100D01*
Y75000D02*
X124700D01*
X123500D02*
X124100D01*
X113850Y67500D02*
Y68250D01*
Y67500D02*
X114600D01*
X110200Y70000D02*
Y70600D01*
Y70000D02*
X110800D01*
X109600D02*
X110200D01*
Y69400D02*
Y70000D01*
X122300Y92250D02*
X123300Y93250D01*
X125750Y96500D02*
Y97050D01*
X126350Y97650D01*
Y98400D01*
X126350Y98400D02*
X126350Y98400D01*
X126350Y99850D02*
X126700Y100200D01*
X128500D01*
X128850Y99850D01*
X126350Y98400D02*
Y99850D01*
X128850Y98400D02*
Y99850D01*
X112600Y96800D02*
X113000Y97200D01*
X116500D01*
D16*
X112100Y97000D02*
X112600Y96800D01*
X108500Y67500D02*
X112100D01*
X111120Y96000D02*
X111850D01*
X110600Y95000D02*
Y95480D01*
X111120Y96000D01*
X110600Y95000D02*
X111400D01*
X107100Y68900D02*
X108500Y67500D01*
X107100Y95300D02*
X108800Y97000D01*
X112100D01*
X107100Y68900D02*
Y95300D01*
X111400Y94240D02*
Y95000D01*
X113850Y67500D02*
X115320D01*
X113850D02*
Y69080D01*
D17*
X120400Y98200D02*
X124200D01*
X119600Y99000D02*
X120400Y98200D01*
X125000Y94300D02*
X125600Y93700D01*
X119200Y88000D02*
X121100D01*
X119200Y86800D02*
X121100D01*
X112200D02*
X113400D01*
X124200Y98200D02*
X125000Y97400D01*
Y94300D02*
Y97400D01*
X134200Y71850D02*
X134800D01*
Y71550D01*
X134700Y71450D01*
X134600D01*
X134500Y71550D01*
Y71850D01*
Y71550D01*
X134400Y71450D01*
X134300D01*
X134200Y71550D01*
Y71850D01*
Y70950D02*
Y71150D01*
X134300Y71250D01*
X134700D01*
X134800Y71150D01*
Y70950D01*
X134700Y70850D01*
X134300D01*
X134200Y70950D01*
Y70650D02*
Y70251D01*
Y70450D01*
X134800D01*
D18*
X111400Y95000D02*
Y96000D01*
X113350Y95000D02*
Y95250D01*
X112100Y67500D02*
X112350D01*
X124100Y70000D02*
Y71000D01*
Y71100D02*
Y73000D01*
D20*
X119600Y99000D02*
D03*
X121100Y74000D02*
D03*
X130800Y93300D02*
D03*
Y95000D02*
D03*
X121100Y86800D02*
D03*
Y88000D02*
D03*
X110200Y70000D02*
D03*
Y67500D02*
D03*
X125350Y98400D02*
D03*
X126350Y99400D02*
D03*
Y98400D02*
D03*
X125350Y99400D02*
D03*
X128850Y99400D02*
D03*
Y98400D02*
D03*
X127850Y99400D02*
D03*
Y98400D02*
D03*
X124100Y70000D02*
D03*
Y71000D02*
D03*
Y72000D02*
D03*
Y73000D02*
D03*
X130100Y88000D02*
D03*
Y89000D02*
D03*
Y78000D02*
D03*
X124100Y74000D02*
D03*
X130100Y86000D02*
D03*
Y87000D02*
D03*
Y82000D02*
D03*
Y83000D02*
D03*
Y84000D02*
D03*
Y85000D02*
D03*
Y80000D02*
D03*
Y81000D02*
D03*
Y75000D02*
D03*
Y76000D02*
D03*
Y77000D02*
D03*
X124100Y81000D02*
D03*
Y77000D02*
D03*
Y78000D02*
D03*
Y79000D02*
D03*
Y80000D02*
D03*
X130100Y70000D02*
D03*
X124100Y82000D02*
D03*
Y83000D02*
D03*
Y84000D02*
D03*
Y85000D02*
D03*
Y86000D02*
D03*
Y87000D02*
D03*
Y88000D02*
D03*
X130100Y79000D02*
D03*
X124100Y76000D02*
D03*
Y75000D02*
D03*
X130100Y71000D02*
D03*
Y72000D02*
D03*
Y73000D02*
D03*
Y74000D02*
D03*
D21*
X112350Y95000D02*
D03*
X113850Y96000D02*
D03*
X112850Y96000D02*
D03*
X113350Y95000D02*
D03*
X114350D02*
D03*
X114850Y96000D02*
D03*
X111850D02*
D03*
X111400Y95000D02*
D03*
D22*
X115350Y98500D02*
D03*
X110850D02*
D03*
D23*
X112350Y67500D02*
D03*
X113850D02*
D03*
D24*
X124100Y89000D02*
D03*
D25*
X122300Y92250D02*
D03*
X120700Y97500D02*
D03*
X123300Y93250D02*
D03*
X129400Y96400D02*
D03*
X127900Y95000D02*
D03*
X125750Y96500D02*
D03*
X124100Y93700D02*
D03*
X113800Y87600D02*
D03*
X118200Y90000D02*
D03*
X111300Y90400D02*
D03*
X116500Y97200D02*
D03*
X122300Y97300D02*
D03*
X108350Y87550D02*
D03*
D26*
X125600Y93700D02*
D03*
X119200Y88000D02*
D03*
Y86800D02*
D03*
X113400D02*
D03*
X112200D02*
D03*
X121550Y98200D02*
D03*
D27*
X130531Y88500D02*
X130598Y88567D01*
X130655Y88642D01*
X130700Y88725D01*
X130733Y88813D01*
X130753Y88906D01*
X130760Y89000D01*
X131460Y95000D02*
X131452Y95101D01*
X131429Y95199D01*
X131391Y95293D01*
X131340Y95380D01*
X131276Y95458D01*
X131200Y95525D01*
X131115Y95580D01*
X131023Y95621D01*
X130926Y95648D01*
X130825Y95660D01*
X130724Y95656D01*
X130625Y95636D01*
X130530Y95602D01*
X130441Y95554D01*
X130361Y95493D01*
X130291Y95420D01*
X130233Y95337D01*
X130188Y95247D01*
X130157Y95150D01*
X130142Y95051D01*
Y94949D01*
X130157Y94850D01*
X130188Y94753D01*
X130233Y94663D01*
X130291Y94580D01*
X130361Y94507D01*
X130441Y94446D01*
X130530Y94398D01*
X130625Y94364D01*
X130724Y94344D01*
X130825Y94340D01*
X130926Y94352D01*
X131023Y94379D01*
X131115Y94420D01*
X131200Y94475D01*
X131276Y94542D01*
X131340Y94620D01*
X131391Y94707D01*
X131429Y94801D01*
X131452Y94899D01*
X131460Y95000D01*
Y93300D02*
X131452Y93401D01*
X131429Y93499D01*
X131391Y93593D01*
X131340Y93680D01*
X131276Y93758D01*
X131200Y93825D01*
X131115Y93880D01*
X131023Y93921D01*
X130926Y93948D01*
X130825Y93960D01*
X130724Y93956D01*
X130625Y93936D01*
X130530Y93902D01*
X130441Y93854D01*
X130361Y93793D01*
X130291Y93720D01*
X130233Y93637D01*
X130188Y93547D01*
X130157Y93450D01*
X130142Y93351D01*
Y93249D01*
X130157Y93150D01*
X130188Y93053D01*
X130233Y92963D01*
X130291Y92880D01*
X130361Y92807D01*
X130441Y92746D01*
X130530Y92698D01*
X130625Y92664D01*
X130724Y92644D01*
X130825Y92640D01*
X130926Y92652D01*
X131023Y92679D01*
X131115Y92720D01*
X131200Y92775D01*
X131276Y92842D01*
X131340Y92920D01*
X131391Y93007D01*
X131429Y93101D01*
X131452Y93199D01*
X131460Y93300D01*
X130760Y89000D02*
X130752Y89101D01*
X130729Y89200D01*
X130691Y89294D01*
X130639Y89381D01*
X130574Y89459D01*
X130498Y89526D01*
X130413Y89581D01*
X130320Y89622D01*
X130222Y89649D01*
X130121Y89660D01*
X130020Y89655D01*
X129920Y89635D01*
X129825Y89600D01*
X129736Y89551D01*
X129656Y89488D01*
X129587Y89415D01*
X129529Y89331D01*
X129485Y89240D01*
X129456Y89143D01*
X129441Y89042D01*
X129443Y88941D01*
X129460Y88841D01*
X129492Y88744D01*
X129538Y88654D01*
X129598Y88572D01*
X129669Y88500D01*
X130760Y88000D02*
X130753Y88094D01*
X130733Y88187D01*
X130700Y88275D01*
X130655Y88358D01*
X130598Y88433D01*
X130531Y88500D01*
Y87500D02*
X130598Y87567D01*
X130655Y87642D01*
X130700Y87725D01*
X130733Y87813D01*
X130753Y87906D01*
X130760Y88000D01*
Y87000D02*
X130753Y87094D01*
X130733Y87187D01*
X130700Y87275D01*
X130655Y87358D01*
X130598Y87433D01*
X130531Y87500D01*
Y86500D02*
X130598Y86567D01*
X130655Y86642D01*
X130700Y86725D01*
X130733Y86813D01*
X130753Y86906D01*
X130760Y87000D01*
Y86000D02*
X130753Y86094D01*
X130733Y86187D01*
X130700Y86275D01*
X130655Y86358D01*
X130598Y86433D01*
X130531Y86500D01*
Y85500D02*
X130598Y85567D01*
X130655Y85642D01*
X130700Y85725D01*
X130733Y85813D01*
X130753Y85906D01*
X130760Y86000D01*
Y85000D02*
X130753Y85094D01*
X130733Y85187D01*
X130700Y85275D01*
X130655Y85358D01*
X130598Y85433D01*
X130531Y85500D01*
Y84500D02*
X130598Y84567D01*
X130655Y84642D01*
X130700Y84725D01*
X130733Y84813D01*
X130753Y84906D01*
X130760Y85000D01*
Y84000D02*
X130753Y84094D01*
X130733Y84187D01*
X130700Y84275D01*
X130655Y84358D01*
X130598Y84433D01*
X130531Y84500D01*
Y83500D02*
X130598Y83567D01*
X130655Y83642D01*
X130700Y83725D01*
X130733Y83813D01*
X130753Y83906D01*
X130760Y84000D01*
Y83000D02*
X130753Y83094D01*
X130733Y83187D01*
X130700Y83275D01*
X130655Y83358D01*
X130598Y83433D01*
X130531Y83500D01*
Y82500D02*
X130598Y82567D01*
X130655Y82642D01*
X130700Y82725D01*
X130733Y82813D01*
X130753Y82906D01*
X130760Y83000D01*
Y82000D02*
X130753Y82094D01*
X130733Y82187D01*
X130700Y82275D01*
X130655Y82358D01*
X130598Y82433D01*
X130531Y82500D01*
Y81500D02*
X130598Y81567D01*
X130655Y81642D01*
X130700Y81725D01*
X130733Y81813D01*
X130753Y81906D01*
X130760Y82000D01*
Y81000D02*
X130753Y81094D01*
X130733Y81187D01*
X130700Y81275D01*
X130655Y81358D01*
X130598Y81433D01*
X130531Y81500D01*
Y80500D02*
X130598Y80567D01*
X130655Y80642D01*
X130700Y80725D01*
X130733Y80813D01*
X130753Y80906D01*
X130760Y81000D01*
X126310Y96500D02*
X126300Y96604D01*
X126271Y96705D01*
X126224Y96798D01*
X126161Y96881D01*
X125385Y96075D02*
X125465Y96018D01*
X125553Y95976D01*
X125648Y95949D01*
X125745Y95940D01*
X125843Y95948D01*
X125938Y95973D01*
X126027Y96014D01*
X126108Y96069D01*
X126178Y96138D01*
X126234Y96219D01*
X126276Y96308D01*
X126301Y96402D01*
X126310Y96500D01*
X126110Y93700D02*
X126101Y93795D01*
X126075Y93887D01*
X126031Y93972D01*
X125973Y94048D01*
X125902Y94111D01*
X125820Y94160D01*
X125730Y94193D01*
X125636Y94209D01*
X125091Y93664D02*
X125107Y93568D01*
X125142Y93476D01*
X125193Y93393D01*
X125259Y93321D01*
X125337Y93263D01*
X125426Y93221D01*
X125520Y93196D01*
X125618Y93190D01*
X125715Y93203D01*
X125807Y93234D01*
X125893Y93282D01*
X125967Y93346D01*
X126028Y93422D01*
X126073Y93509D01*
X126101Y93603D01*
X126110Y93700D01*
X129669Y88500D02*
X129597Y88427D01*
X129536Y88343D01*
X129490Y88251D01*
X129458Y88153D01*
X129442Y88052D01*
Y87948D01*
X129458Y87847D01*
X129490Y87749D01*
X129536Y87657D01*
X129597Y87573D01*
X129669Y87500D01*
X129669D02*
X129597Y87427D01*
X129536Y87343D01*
X129490Y87251D01*
X129458Y87153D01*
X129442Y87052D01*
Y86948D01*
X129458Y86847D01*
X129490Y86749D01*
X129536Y86657D01*
X129597Y86573D01*
X129669Y86500D01*
X129669D02*
X129597Y86427D01*
X129536Y86343D01*
X129490Y86251D01*
X129458Y86153D01*
X129442Y86052D01*
Y85948D01*
X129458Y85847D01*
X129490Y85749D01*
X129536Y85657D01*
X129597Y85573D01*
X129669Y85500D01*
X124760Y88000D02*
X124754Y88089D01*
X124736Y88176D01*
X124706Y88261D01*
X124666Y88340D01*
X124531Y87500D02*
X124598Y87567D01*
X124655Y87642D01*
X124700Y87725D01*
X124733Y87813D01*
X124753Y87906D01*
X124760Y88000D01*
X124615Y94300D02*
X124628Y94200D01*
X124667Y94107D01*
X124728Y94028D01*
X124615Y94300D02*
X124628Y94200D01*
X124667Y94108D01*
X124728Y94028D01*
X124760Y87000D02*
X124753Y87094D01*
X124733Y87187D01*
X124700Y87275D01*
X124655Y87358D01*
X124598Y87433D01*
X124531Y87500D01*
Y86500D02*
X124598Y86567D01*
X124655Y86642D01*
X124700Y86725D01*
X124733Y86813D01*
X124753Y86906D01*
X124760Y87000D01*
Y86000D02*
X124753Y86094D01*
X124733Y86187D01*
X124700Y86275D01*
X124655Y86358D01*
X124598Y86433D01*
X124531Y86500D01*
Y85500D02*
X124598Y85567D01*
X124655Y85642D01*
X124700Y85725D01*
X124733Y85813D01*
X124753Y85906D01*
X124760Y86000D01*
X129669Y85500D02*
X129597Y85427D01*
X129536Y85343D01*
X129490Y85251D01*
X129458Y85153D01*
X129442Y85052D01*
Y84948D01*
X129458Y84847D01*
X129490Y84749D01*
X129536Y84657D01*
X129597Y84573D01*
X129669Y84500D01*
X129669D02*
X129597Y84427D01*
X129536Y84343D01*
X129490Y84251D01*
X129458Y84153D01*
X129442Y84052D01*
Y83948D01*
X129458Y83847D01*
X129490Y83749D01*
X129536Y83657D01*
X129597Y83573D01*
X129669Y83500D01*
X129669D02*
X129597Y83427D01*
X129536Y83343D01*
X129490Y83251D01*
X129458Y83153D01*
X129442Y83052D01*
Y82948D01*
X129458Y82847D01*
X129490Y82749D01*
X129536Y82657D01*
X129597Y82573D01*
X129669Y82500D01*
X129669D02*
X129597Y82427D01*
X129536Y82343D01*
X129490Y82251D01*
X129458Y82153D01*
X129442Y82052D01*
Y81948D01*
X129458Y81847D01*
X129490Y81749D01*
X129536Y81657D01*
X129597Y81573D01*
X129669Y81500D01*
X129669D02*
X129597Y81427D01*
X129536Y81343D01*
X129490Y81251D01*
X129458Y81153D01*
X129442Y81052D01*
Y80948D01*
X129458Y80847D01*
X129490Y80749D01*
X129536Y80657D01*
X129597Y80573D01*
X129669Y80500D01*
X124760Y85000D02*
X124753Y85094D01*
X124733Y85187D01*
X124700Y85275D01*
X124655Y85358D01*
X124598Y85433D01*
X124531Y85500D01*
Y84500D02*
X124598Y84567D01*
X124655Y84642D01*
X124700Y84725D01*
X124733Y84813D01*
X124753Y84906D01*
X124760Y85000D01*
Y84000D02*
X124753Y84094D01*
X124733Y84187D01*
X124700Y84275D01*
X124655Y84358D01*
X124598Y84433D01*
X124531Y84500D01*
Y83500D02*
X124598Y83567D01*
X124655Y83642D01*
X124700Y83725D01*
X124733Y83813D01*
X124753Y83906D01*
X124760Y84000D01*
Y83000D02*
X124753Y83094D01*
X124733Y83187D01*
X124700Y83275D01*
X124655Y83358D01*
X124598Y83433D01*
X124531Y83500D01*
Y82500D02*
X124598Y82567D01*
X124655Y82642D01*
X124700Y82725D01*
X124733Y82813D01*
X124753Y82906D01*
X124760Y83000D01*
Y82000D02*
X124753Y82094D01*
X124733Y82187D01*
X124700Y82275D01*
X124655Y82358D01*
X124598Y82433D01*
X124531Y82500D01*
Y81500D02*
X124598Y81567D01*
X124655Y81642D01*
X124700Y81725D01*
X124733Y81813D01*
X124753Y81906D01*
X124760Y82000D01*
X130760Y80000D02*
X130753Y80094D01*
X130733Y80187D01*
X130700Y80275D01*
X130655Y80358D01*
X130598Y80433D01*
X130531Y80500D01*
Y79500D02*
X130598Y79567D01*
X130655Y79642D01*
X130700Y79725D01*
X130733Y79813D01*
X130753Y79906D01*
X130760Y80000D01*
Y79000D02*
X130753Y79094D01*
X130733Y79187D01*
X130700Y79275D01*
X130655Y79358D01*
X130598Y79433D01*
X130531Y79500D01*
Y78500D02*
X130598Y78567D01*
X130655Y78642D01*
X130700Y78725D01*
X130733Y78813D01*
X130753Y78906D01*
X130760Y79000D01*
X129669Y80500D02*
X129597Y80427D01*
X129536Y80343D01*
X129490Y80251D01*
X129458Y80153D01*
X129442Y80052D01*
Y79948D01*
X129458Y79847D01*
X129490Y79749D01*
X129536Y79657D01*
X129597Y79573D01*
X129669Y79500D01*
X130760Y78000D02*
X130753Y78094D01*
X130733Y78187D01*
X130700Y78275D01*
X130655Y78358D01*
X130598Y78433D01*
X130531Y78500D01*
X129669Y79500D02*
X129597Y79427D01*
X129536Y79343D01*
X129490Y79251D01*
X129458Y79153D01*
X129442Y79052D01*
Y78948D01*
X129458Y78847D01*
X129490Y78749D01*
X129536Y78657D01*
X129597Y78573D01*
X129669Y78500D01*
X130531Y77500D02*
X130598Y77567D01*
X130655Y77642D01*
X130700Y77725D01*
X130733Y77813D01*
X130753Y77906D01*
X130760Y78000D01*
X129669Y78500D02*
X129597Y78427D01*
X129536Y78343D01*
X129490Y78251D01*
X129458Y78153D01*
X129442Y78052D01*
Y77948D01*
X129458Y77847D01*
X129490Y77749D01*
X129536Y77657D01*
X129597Y77573D01*
X129669Y77500D01*
X130760Y77000D02*
X130753Y77094D01*
X130733Y77187D01*
X130700Y77275D01*
X130655Y77358D01*
X130598Y77433D01*
X130531Y77500D01*
Y76500D02*
X130598Y76567D01*
X130655Y76642D01*
X130700Y76725D01*
X130733Y76813D01*
X130753Y76906D01*
X130760Y77000D01*
Y76000D02*
X130753Y76094D01*
X130733Y76187D01*
X130700Y76275D01*
X130655Y76358D01*
X130598Y76433D01*
X130531Y76500D01*
X129669Y77500D02*
X129597Y77427D01*
X129536Y77343D01*
X129490Y77251D01*
X129458Y77153D01*
X129442Y77052D01*
Y76948D01*
X129458Y76847D01*
X129490Y76749D01*
X129536Y76657D01*
X129597Y76573D01*
X129669Y76500D01*
X129669D02*
X129597Y76427D01*
X129536Y76343D01*
X129490Y76251D01*
X129458Y76153D01*
X129442Y76052D01*
Y75948D01*
X129458Y75847D01*
X129490Y75749D01*
X129536Y75657D01*
X129597Y75573D01*
X129669Y75500D01*
X130531D02*
X130598Y75567D01*
X130655Y75642D01*
X130700Y75725D01*
X130733Y75813D01*
X130753Y75906D01*
X130760Y76000D01*
Y75000D02*
X130753Y75094D01*
X130733Y75187D01*
X130700Y75275D01*
X130655Y75358D01*
X130598Y75433D01*
X130531Y75500D01*
Y74500D02*
X130598Y74567D01*
X130655Y74642D01*
X130700Y74725D01*
X130733Y74813D01*
X130753Y74906D01*
X130760Y75000D01*
Y74000D02*
X130753Y74094D01*
X130733Y74187D01*
X130700Y74275D01*
X130655Y74358D01*
X130598Y74433D01*
X130531Y74500D01*
Y73500D02*
X130598Y73567D01*
X130655Y73642D01*
X130700Y73725D01*
X130733Y73813D01*
X130753Y73906D01*
X130760Y74000D01*
Y73000D02*
X130753Y73094D01*
X130733Y73187D01*
X130700Y73275D01*
X130655Y73358D01*
X130598Y73433D01*
X130531Y73500D01*
Y72500D02*
X130598Y72567D01*
X130655Y72642D01*
X130700Y72725D01*
X130733Y72813D01*
X130753Y72906D01*
X130760Y73000D01*
Y72000D02*
X130753Y72094D01*
X130733Y72187D01*
X130700Y72275D01*
X130655Y72358D01*
X130598Y72433D01*
X130531Y72500D01*
Y71500D02*
X130598Y71567D01*
X130655Y71642D01*
X130700Y71725D01*
X130733Y71813D01*
X130753Y71906D01*
X130760Y72000D01*
Y71000D02*
X130753Y71094D01*
X130733Y71187D01*
X130700Y71275D01*
X130655Y71358D01*
X130598Y71433D01*
X130531Y71500D01*
Y70500D02*
X130598Y70567D01*
X130655Y70642D01*
X130700Y70725D01*
X130733Y70813D01*
X130753Y70906D01*
X130760Y71000D01*
Y70000D02*
X130753Y70094D01*
X130733Y70187D01*
X130700Y70275D01*
X130655Y70358D01*
X130598Y70433D01*
X130531Y70500D01*
X129669D02*
X129598Y70428D01*
X129538Y70346D01*
X129492Y70256D01*
X129460Y70159D01*
X129443Y70059D01*
X129441Y69958D01*
X129456Y69857D01*
X129485Y69760D01*
X129529Y69669D01*
X129587Y69585D01*
X129656Y69512D01*
X129736Y69449D01*
X129825Y69400D01*
X129920Y69365D01*
X130020Y69345D01*
X130121Y69340D01*
X130222Y69351D01*
X130320Y69378D01*
X130413Y69419D01*
X130498Y69474D01*
X130574Y69541D01*
X130639Y69619D01*
X130691Y69706D01*
X130729Y69800D01*
X130752Y69899D01*
X130760Y70000D01*
X129669Y75500D02*
X129597Y75427D01*
X129536Y75343D01*
X129490Y75251D01*
X129458Y75153D01*
X129442Y75052D01*
Y74948D01*
X129458Y74847D01*
X129490Y74749D01*
X129536Y74657D01*
X129597Y74573D01*
X129669Y74500D01*
X129669D02*
X129597Y74427D01*
X129536Y74343D01*
X129490Y74251D01*
X129458Y74153D01*
X129442Y74052D01*
Y73948D01*
X129458Y73847D01*
X129490Y73749D01*
X129536Y73657D01*
X129597Y73573D01*
X129669Y73500D01*
X129669D02*
X129597Y73427D01*
X129536Y73343D01*
X129490Y73251D01*
X129458Y73153D01*
X129442Y73052D01*
Y72948D01*
X129458Y72847D01*
X129490Y72749D01*
X129536Y72657D01*
X129597Y72573D01*
X129669Y72500D01*
X129669D02*
X129597Y72427D01*
X129536Y72343D01*
X129490Y72251D01*
X129458Y72153D01*
X129442Y72052D01*
Y71948D01*
X129458Y71847D01*
X129490Y71749D01*
X129536Y71657D01*
X129597Y71573D01*
X129669Y71500D01*
X129669D02*
X129597Y71427D01*
X129536Y71343D01*
X129490Y71251D01*
X129458Y71153D01*
X129442Y71052D01*
Y70948D01*
X129458Y70847D01*
X129490Y70749D01*
X129536Y70657D01*
X129597Y70573D01*
X129669Y70500D01*
X124531Y73500D02*
X124598Y73567D01*
X124655Y73642D01*
X124700Y73725D01*
X124733Y73813D01*
X124753Y73906D01*
X124760Y74000D01*
Y73000D02*
X124753Y73094D01*
X124733Y73187D01*
X124700Y73275D01*
X124655Y73358D01*
X124598Y73433D01*
X124531Y73500D01*
X124560Y72527D02*
X124629Y72606D01*
X124685Y72695D01*
X124727Y72792D01*
X124752Y72895D01*
X124760Y73000D01*
Y72000D02*
X124752Y72105D01*
X124727Y72208D01*
X124685Y72305D01*
X124629Y72394D01*
X124560Y72473D01*
Y71527D02*
X124629Y71606D01*
X124685Y71695D01*
X124727Y71792D01*
X124752Y71895D01*
X124760Y72000D01*
Y71000D02*
X124752Y71105D01*
X124727Y71208D01*
X124685Y71305D01*
X124629Y71394D01*
X124560Y71473D01*
Y70527D02*
X124629Y70606D01*
X124685Y70695D01*
X124727Y70792D01*
X124752Y70895D01*
X124760Y71000D01*
Y70000D02*
X124752Y70105D01*
X124727Y70208D01*
X124685Y70305D01*
X124629Y70394D01*
X124560Y70473D01*
X123860Y93250D02*
X123851Y93352D01*
X123823Y93450D01*
X123778Y93542D01*
X123717Y93624D01*
X123642Y93693D01*
X123556Y93748D01*
X123461Y93786D01*
X123361Y93807D01*
X123259Y93808D01*
X123158Y93792D01*
X123062Y93757D01*
X122974Y93705D01*
X122897Y93639D01*
X122833Y93559D01*
X122785Y93469D01*
X122753Y93372D01*
X122740Y93270D01*
X123320Y92690D02*
X123415Y92702D01*
X123506Y92729D01*
X123592Y92772D01*
X123668Y92828D01*
X123735Y92897D01*
X123788Y92976D01*
X123828Y93063D01*
X123852Y93155D01*
X123860Y93250D01*
X121310Y97750D02*
X121402Y97712D01*
X121500Y97692D01*
X121600D01*
X121698Y97712D01*
X121790Y97750D01*
X122280Y92810D02*
X122181Y92797D01*
X122086Y92767D01*
X121997Y92721D01*
X121918Y92660D01*
X121852Y92585D01*
X121799Y92501D01*
X121763Y92408D01*
X121743Y92310D01*
X121741Y92210D01*
X121757Y92111D01*
X121791Y92017D01*
X121840Y91931D01*
X121904Y91854D01*
X121981Y91790D01*
X122067Y91741D01*
X122161Y91707D01*
X122260Y91691D01*
X122360Y91693D01*
X122458Y91713D01*
X122551Y91749D01*
X122635Y91802D01*
X122710Y91868D01*
X122771Y91947D01*
X122817Y92036D01*
X122847Y92131D01*
X122860Y92230D01*
X123534Y88340D02*
X123488Y88248D01*
X123457Y88150D01*
X123442Y88049D01*
X123442Y87946D01*
X123458Y87845D01*
X123490Y87747D01*
X123537Y87656D01*
X123597Y87573D01*
X123669Y87500D01*
X121760Y88000D02*
X121753Y88097D01*
X121731Y88193D01*
X121696Y88284D01*
X121647Y88369D01*
X121587Y88445D01*
X121516Y88512D01*
X121436Y88568D01*
X121348Y88612D01*
X121255Y88642D01*
X121159Y88657D01*
X121061Y88659D01*
X120964Y88646D01*
X120870Y88619D01*
X120782Y88578D01*
X120700Y88525D01*
X120627Y88460D01*
X120564Y88385D01*
X121375Y87400D02*
X121457Y87445D01*
X121533Y87502D01*
X121599Y87568D01*
X121655Y87644D01*
X121700Y87726D01*
X121733Y87814D01*
X121753Y87906D01*
X121760Y88000D01*
X123669Y87500D02*
X123597Y87427D01*
X123536Y87343D01*
X123490Y87251D01*
X123458Y87153D01*
X123442Y87052D01*
Y86948D01*
X123458Y86847D01*
X123490Y86749D01*
X123536Y86657D01*
X123597Y86573D01*
X123669Y86500D01*
X123669D02*
X123597Y86427D01*
X123536Y86343D01*
X123490Y86251D01*
X123458Y86153D01*
X123442Y86052D01*
Y85948D01*
X123458Y85847D01*
X123490Y85749D01*
X123536Y85657D01*
X123597Y85573D01*
X123669Y85500D01*
X123669D02*
X123597Y85427D01*
X123536Y85343D01*
X123490Y85251D01*
X123458Y85153D01*
X123442Y85052D01*
Y84948D01*
X123458Y84847D01*
X123490Y84749D01*
X123536Y84657D01*
X123597Y84573D01*
X123669Y84500D01*
X123669D02*
X123597Y84427D01*
X123536Y84343D01*
X123490Y84251D01*
X123458Y84153D01*
X123442Y84052D01*
Y83948D01*
X123458Y83847D01*
X123490Y83749D01*
X123536Y83657D01*
X123597Y83573D01*
X123669Y83500D01*
X121760Y86800D02*
X121753Y86894D01*
X121733Y86986D01*
X121700Y87074D01*
X121655Y87156D01*
X121599Y87232D01*
X121533Y87298D01*
X121457Y87355D01*
X121375Y87400D01*
X120564Y86415D02*
X120627Y86340D01*
X120700Y86275D01*
X120782Y86222D01*
X120870Y86181D01*
X120964Y86154D01*
X121061Y86141D01*
X121159Y86143D01*
X121255Y86159D01*
X121348Y86188D01*
X121436Y86232D01*
X121516Y86288D01*
X121587Y86355D01*
X121647Y86431D01*
X121696Y86516D01*
X121731Y86607D01*
X121753Y86703D01*
X121760Y86800D01*
X116119Y96790D02*
X116197Y96729D01*
X116285Y96683D01*
X116380Y96653D01*
X116478Y96640D01*
X116578Y96645D01*
X116675Y96668D01*
X116766Y96707D01*
X116849Y96762D01*
X116921Y96830D01*
X116979Y96911D01*
X117023Y97000D01*
X114910Y95318D02*
X115008Y95336D01*
X115102Y95369D01*
X115189Y95418D01*
X115267Y95480D01*
X115334Y95554D01*
X115388Y95637D01*
X115428Y95729D01*
X115452Y95826D01*
X115460Y95925D01*
X114960Y95075D02*
X114947Y95199D01*
X114910Y95318D01*
X115460Y96075D02*
X115451Y96177D01*
X115426Y96277D01*
X115384Y96370D01*
X115327Y96456D01*
X115256Y96530D01*
X115174Y96592D01*
X115083Y96639D01*
X114985Y96670D01*
X114884Y96684D01*
X114781Y96681D01*
X111240Y95925D02*
X111246Y95840D01*
X111264Y95756D01*
X111293Y95676D01*
X111202Y95652D01*
X111115Y95614D01*
X111035Y95564D01*
X110964Y95502D01*
X110904Y95429D01*
X110855Y95349D01*
X110819Y95261D01*
X110797Y95169D01*
X110790Y95075D01*
X114015Y94415D02*
X114104Y94367D01*
X114199Y94334D01*
X114298Y94317D01*
X114399Y94317D01*
X114499Y94333D01*
X114594Y94366D01*
X114683Y94414D01*
X114763Y94476D01*
X114831Y94550D01*
X114886Y94634D01*
X114927Y94727D01*
X114952Y94824D01*
X114960Y94925D01*
X111875Y94542D02*
X111944Y94470D01*
X112023Y94410D01*
X112112Y94363D01*
X112206Y94332D01*
X112305Y94317D01*
X112405Y94317D01*
X112503Y94335D01*
X112597Y94367D01*
X112685Y94415D01*
X110790Y94925D02*
X110798Y94825D01*
X110823Y94728D01*
X110863Y94636D01*
X110917Y94552D01*
X110984Y94479D01*
X111063Y94417D01*
X111151Y94368D01*
X111245Y94335D01*
X111343Y94318D01*
X111444Y94317D01*
X111542Y94332D01*
X111637Y94363D01*
X111726Y94410D01*
X111806Y94470D01*
X111875Y94542D01*
X120564Y87615D02*
X120638Y87529D01*
X120726Y87456D01*
X120825Y87400D01*
X120726Y87344D01*
X120638Y87271D01*
X120564Y87185D01*
X119534Y88385D02*
X119452Y88443D01*
X119359Y88484D01*
X119261Y88506D01*
X119159Y88508D01*
X119060Y88490D01*
X118966Y88453D01*
X118881Y88398D01*
X118809Y88327D01*
X118752Y88243D01*
X118713Y88150D01*
X118693Y88051D01*
Y87949D01*
X118713Y87850D01*
X118752Y87757D01*
X118809Y87673D01*
X118881Y87602D01*
X118966Y87547D01*
X119060Y87510D01*
X119159Y87492D01*
X119261Y87494D01*
X119359Y87516D01*
X119452Y87557D01*
X119534Y87615D01*
Y87185D02*
X119452Y87243D01*
X119359Y87284D01*
X119261Y87306D01*
X119159Y87308D01*
X119060Y87290D01*
X118966Y87253D01*
X118881Y87198D01*
X118809Y87127D01*
X118752Y87043D01*
X118713Y86950D01*
X118693Y86851D01*
Y86749D01*
X118713Y86650D01*
X118752Y86557D01*
X118809Y86473D01*
X118881Y86402D01*
X118966Y86347D01*
X119060Y86310D01*
X119159Y86292D01*
X119261Y86294D01*
X119359Y86316D01*
X119452Y86357D01*
X119534Y86415D01*
X113910Y86800D02*
X113901Y86897D01*
X113873Y86990D01*
X113829Y87076D01*
X113769Y87152D01*
X113696Y87216D01*
X113612Y87264D01*
X113520Y87296D01*
X113424Y87309D01*
X113327Y87305D01*
X113233Y87282D01*
X113144Y87241D01*
X113066Y87185D01*
Y86415D02*
X113144Y86359D01*
X113233Y86318D01*
X113327Y86295D01*
X113424Y86291D01*
X113520Y86304D01*
X113612Y86336D01*
X113696Y86384D01*
X113769Y86448D01*
X113829Y86524D01*
X113873Y86610D01*
X113901Y86703D01*
X113910Y86800D01*
X112534Y87185D02*
X112452Y87243D01*
X112359Y87284D01*
X112261Y87306D01*
X112159Y87308D01*
X112060Y87290D01*
X111966Y87253D01*
X111881Y87198D01*
X111809Y87127D01*
X111752Y87043D01*
X111713Y86950D01*
X111693Y86851D01*
Y86749D01*
X111713Y86650D01*
X111752Y86557D01*
X111809Y86473D01*
X111881Y86402D01*
X111966Y86347D01*
X112060Y86310D01*
X112159Y86292D01*
X112261Y86294D01*
X112359Y86316D01*
X112452Y86357D01*
X112534Y86415D01*
X124760Y81000D02*
X124753Y81094D01*
X124733Y81187D01*
X124700Y81275D01*
X124655Y81358D01*
X124598Y81433D01*
X124531Y81500D01*
Y80500D02*
X124598Y80567D01*
X124655Y80642D01*
X124700Y80725D01*
X124733Y80813D01*
X124753Y80906D01*
X124760Y81000D01*
Y80000D02*
X124753Y80094D01*
X124733Y80187D01*
X124700Y80275D01*
X124655Y80358D01*
X124598Y80433D01*
X124531Y80500D01*
Y79500D02*
X124598Y79567D01*
X124655Y79642D01*
X124700Y79725D01*
X124733Y79813D01*
X124753Y79906D01*
X124760Y80000D01*
Y79000D02*
X124753Y79094D01*
X124733Y79187D01*
X124700Y79275D01*
X124655Y79358D01*
X124598Y79433D01*
X124531Y79500D01*
Y78500D02*
X124598Y78567D01*
X124655Y78642D01*
X124700Y78725D01*
X124733Y78813D01*
X124753Y78906D01*
X124760Y79000D01*
X123669Y83500D02*
X123597Y83427D01*
X123536Y83343D01*
X123490Y83251D01*
X123458Y83153D01*
X123442Y83052D01*
Y82948D01*
X123458Y82847D01*
X123490Y82749D01*
X123536Y82657D01*
X123597Y82573D01*
X123669Y82500D01*
X123669D02*
X123597Y82427D01*
X123536Y82343D01*
X123490Y82251D01*
X123458Y82153D01*
X123442Y82052D01*
Y81948D01*
X123458Y81847D01*
X123490Y81749D01*
X123536Y81657D01*
X123597Y81573D01*
X123669Y81500D01*
X123669D02*
X123597Y81427D01*
X123536Y81343D01*
X123490Y81251D01*
X123458Y81153D01*
X123442Y81052D01*
Y80948D01*
X123458Y80847D01*
X123490Y80749D01*
X123536Y80657D01*
X123597Y80573D01*
X123669Y80500D01*
X123669D02*
X123597Y80427D01*
X123536Y80343D01*
X123490Y80251D01*
X123458Y80153D01*
X123442Y80052D01*
Y79948D01*
X123458Y79847D01*
X123490Y79749D01*
X123536Y79657D01*
X123597Y79573D01*
X123669Y79500D01*
X124760Y78000D02*
X124753Y78094D01*
X124733Y78187D01*
X124700Y78275D01*
X124655Y78358D01*
X124598Y78433D01*
X124531Y78500D01*
Y77500D02*
X124598Y77567D01*
X124655Y77642D01*
X124700Y77725D01*
X124733Y77813D01*
X124753Y77906D01*
X124760Y78000D01*
Y77000D02*
X124753Y77094D01*
X124733Y77187D01*
X124700Y77275D01*
X124655Y77358D01*
X124598Y77433D01*
X124531Y77500D01*
Y76500D02*
X124598Y76567D01*
X124655Y76642D01*
X124700Y76725D01*
X124733Y76813D01*
X124753Y76906D01*
X124760Y77000D01*
Y76000D02*
X124753Y76094D01*
X124733Y76187D01*
X124700Y76275D01*
X124655Y76358D01*
X124598Y76433D01*
X124531Y76500D01*
X123669Y79500D02*
X123597Y79427D01*
X123536Y79343D01*
X123490Y79251D01*
X123458Y79153D01*
X123442Y79052D01*
Y78948D01*
X123458Y78847D01*
X123490Y78749D01*
X123536Y78657D01*
X123597Y78573D01*
X123669Y78500D01*
X123669D02*
X123597Y78427D01*
X123536Y78343D01*
X123490Y78251D01*
X123458Y78153D01*
X123442Y78052D01*
Y77948D01*
X123458Y77847D01*
X123490Y77749D01*
X123536Y77657D01*
X123597Y77573D01*
X123669Y77500D01*
X123669D02*
X123597Y77427D01*
X123536Y77343D01*
X123490Y77251D01*
X123458Y77153D01*
X123442Y77052D01*
Y76948D01*
X123458Y76847D01*
X123490Y76749D01*
X123536Y76657D01*
X123597Y76573D01*
X123669Y76500D01*
X123669D02*
X123597Y76427D01*
X123536Y76343D01*
X123490Y76251D01*
X123458Y76153D01*
X123442Y76052D01*
Y75948D01*
X123458Y75847D01*
X123490Y75749D01*
X123536Y75657D01*
X123597Y75573D01*
X123669Y75500D01*
X124531D02*
X124598Y75567D01*
X124655Y75642D01*
X124700Y75725D01*
X124733Y75813D01*
X124753Y75906D01*
X124760Y76000D01*
Y75000D02*
X124753Y75094D01*
X124733Y75187D01*
X124700Y75275D01*
X124655Y75358D01*
X124598Y75433D01*
X124531Y75500D01*
Y74500D02*
X124598Y74567D01*
X124655Y74642D01*
X124700Y74725D01*
X124733Y74813D01*
X124753Y74906D01*
X124760Y75000D01*
Y74000D02*
X124753Y74094D01*
X124733Y74187D01*
X124700Y74275D01*
X124655Y74358D01*
X124598Y74433D01*
X124531Y74500D01*
X123669Y75500D02*
X123597Y75427D01*
X123536Y75343D01*
X123490Y75251D01*
X123458Y75153D01*
X123442Y75052D01*
Y74948D01*
X123458Y74847D01*
X123490Y74749D01*
X123536Y74657D01*
X123597Y74573D01*
X123669Y74500D01*
X123669D02*
X123597Y74427D01*
X123536Y74343D01*
X123490Y74251D01*
X123458Y74153D01*
X123442Y74052D01*
Y73948D01*
X123458Y73847D01*
X123490Y73749D01*
X123536Y73657D01*
X123597Y73573D01*
X123669Y73500D01*
X123640Y70473D02*
X123574Y70398D01*
X123520Y70314D01*
X123479Y70223D01*
X123452Y70127D01*
X123441Y70028D01*
X123444Y69928D01*
X123462Y69829D01*
X123496Y69735D01*
X123542Y69647D01*
X123602Y69567D01*
X123673Y69496D01*
X123754Y69438D01*
X123843Y69392D01*
X123938Y69360D01*
X124036Y69343D01*
X124136Y69341D01*
X124235Y69354D01*
X124331Y69382D01*
X124422Y69424D01*
X124505Y69479D01*
X124579Y69546D01*
X124642Y69624D01*
X124693Y69710D01*
X124730Y69803D01*
X124752Y69900D01*
X124760Y70000D01*
X123669Y73500D02*
X123599Y73430D01*
X123540Y73349D01*
X123494Y73261D01*
X123462Y73167D01*
X123444Y73069D01*
X123441Y72970D01*
X123453Y72871D01*
X123479Y72775D01*
X123520Y72685D01*
X123574Y72601D01*
X123640Y72527D01*
Y72473D02*
X123576Y72402D01*
X123524Y72322D01*
X123483Y72235D01*
X123456Y72143D01*
X123442Y72048D01*
Y71952D01*
X123456Y71857D01*
X123483Y71765D01*
X123524Y71678D01*
X123576Y71598D01*
X123640Y71527D01*
Y71473D02*
X123576Y71402D01*
X123524Y71322D01*
X123483Y71235D01*
X123456Y71143D01*
X123442Y71048D01*
Y70952D01*
X123456Y70857D01*
X123483Y70765D01*
X123524Y70678D01*
X123576Y70598D01*
X123640Y70527D01*
X121760Y74000D02*
X121752Y74101D01*
X121729Y74199D01*
X121691Y74293D01*
X121640Y74380D01*
X121576Y74458D01*
X121500Y74525D01*
X121415Y74580D01*
X121323Y74621D01*
X121226Y74648D01*
X121125Y74660D01*
X121024Y74656D01*
X120925Y74636D01*
X120830Y74602D01*
X120741Y74554D01*
X120661Y74493D01*
X120591Y74420D01*
X120533Y74337D01*
X120488Y74247D01*
X120457Y74150D01*
X120442Y74051D01*
Y73949D01*
X120457Y73850D01*
X120488Y73753D01*
X120533Y73663D01*
X120591Y73580D01*
X120661Y73507D01*
X120741Y73446D01*
X120830Y73398D01*
X120925Y73364D01*
X121024Y73344D01*
X121125Y73340D01*
X121226Y73352D01*
X121323Y73379D01*
X121415Y73420D01*
X121500Y73475D01*
X121576Y73542D01*
X121640Y73620D01*
X121691Y73707D01*
X121729Y73801D01*
X121752Y73899D01*
X121760Y74000D01*
X114660Y67500D02*
X114654Y67599D01*
X114636Y67697D01*
X114606Y67791D01*
X114564Y67882D01*
X114512Y67966D01*
X114450Y68044D01*
X114379Y68113D01*
X114300Y68173D01*
X114214Y68223D01*
X114123Y68263D01*
X114028Y68290D01*
X113930Y68306D01*
X113831Y68310D01*
X113732Y68301D01*
X113634Y68281D01*
X113541Y68249D01*
X113451Y68205D01*
X113368Y68151D01*
X113292Y68087D01*
X113224Y68014D01*
X113166Y67934D01*
X114487Y67000D02*
X114548Y67089D01*
X114596Y67185D01*
X114631Y67287D01*
X114653Y67393D01*
X114660Y67500D01*
X110860Y70000D02*
X110852Y70101D01*
X110829Y70199D01*
X110791Y70293D01*
X110740Y70380D01*
X110676Y70458D01*
X110600Y70525D01*
X110515Y70580D01*
X110423Y70621D01*
X110326Y70648D01*
X110225Y70660D01*
X110124Y70656D01*
X110025Y70636D01*
X109930Y70602D01*
X109841Y70554D01*
X109761Y70493D01*
X109691Y70420D01*
X109633Y70337D01*
X109588Y70247D01*
X109557Y70150D01*
X109542Y70051D01*
Y69949D01*
X109557Y69850D01*
X109588Y69753D01*
X109633Y69663D01*
X109691Y69580D01*
X109761Y69507D01*
X109841Y69446D01*
X109930Y69398D01*
X110025Y69364D01*
X110124Y69344D01*
X110225Y69340D01*
X110326Y69352D01*
X110423Y69379D01*
X110515Y69420D01*
X110600Y69475D01*
X110676Y69542D01*
X110740Y69620D01*
X110791Y69707D01*
X110829Y69801D01*
X110852Y69899D01*
X110860Y70000D01*
X132100Y97000D02*
X132600Y96500D01*
X133100Y96000D01*
X131253Y95480D02*
X133100D01*
X131438Y95170D02*
X133100D01*
X131445Y94860D02*
X133100D01*
X131283Y94550D02*
X133100D01*
X131130Y95572D02*
Y97000D01*
X131440Y95161D02*
Y97000D01*
X130820Y95660D02*
Y97000D01*
Y93960D02*
Y94340D01*
X130510Y95593D02*
Y97000D01*
X131377Y93620D02*
X133100D01*
X131460Y93310D02*
X133100D01*
X130997Y93930D02*
X133100D01*
X131388Y93000D02*
X133100D01*
X131052Y92690D02*
X133100D01*
X130698Y89280D02*
X133100D01*
X131130Y93872D02*
Y94428D01*
X131440Y93461D02*
Y94839D01*
X130510Y93893D02*
Y94407D01*
X130759Y88970D02*
X133100D01*
X126280Y97000D02*
X132100D01*
X126303Y96410D02*
X132690D01*
X126265Y96720D02*
X132380D01*
X126142Y96100D02*
X133000D01*
X125385Y95790D02*
X133100D01*
X125385Y95480D02*
X130347D01*
X130200Y95275D02*
Y97000D01*
X125385Y95170D02*
X130162D01*
X125385Y94860D02*
X130155D01*
X125385Y94550D02*
X130317D01*
X126055Y93930D02*
X130603D01*
X125604Y94240D02*
X133100D01*
X130396Y89590D02*
X133100D01*
X126104Y93620D02*
X130223D01*
X130200Y93575D02*
Y94725D01*
X125929Y93310D02*
X130140D01*
X130510Y89517D02*
Y92707D01*
X130200Y89652D02*
Y93025D01*
X130666Y88660D02*
X133100D01*
X130759Y88040D02*
X133100D01*
X130660Y88350D02*
X133100D01*
X130751Y87110D02*
X133100D01*
X130729Y86800D02*
X133100D01*
X130702Y87730D02*
X133100D01*
X130735Y86180D02*
X133100D01*
X130747Y85870D02*
X133100D01*
X130711Y85250D02*
X133100D01*
X130757Y84940D02*
X133100D01*
X130647Y84630D02*
X133100D01*
X130677Y84320D02*
X133100D01*
X130760Y84010D02*
X133100D01*
X130688Y83700D02*
X133100D01*
X130755Y83080D02*
X133100D01*
X130719Y82770D02*
X133100D01*
X130632Y83390D02*
X133100D01*
X130743Y82150D02*
X133100D01*
X130740Y81840D02*
X133100D01*
X130722Y81220D02*
X133100D01*
X130754Y80910D02*
X133100D01*
X130625Y80600D02*
X133100D01*
X130609Y87420D02*
X133100D01*
X130592Y85560D02*
X133100D01*
X130542Y86490D02*
X133100D01*
X130573Y82460D02*
X133100D01*
X130563Y81530D02*
X133100D01*
X126161Y96881D02*
X126280Y97000D01*
X129890Y89626D02*
Y97000D01*
X124760Y89590D02*
X129804D01*
X125550Y94294D02*
Y95977D01*
X125860Y94139D02*
Y95951D01*
X125385Y94459D02*
Y96075D01*
Y94459D02*
X125636Y94209D01*
X129580Y89406D02*
Y97000D01*
Y88406D02*
Y88594D01*
Y87406D02*
Y87594D01*
X124760Y89280D02*
X129502D01*
X124760Y88340D02*
Y89660D01*
Y88970D02*
X129441D01*
X129580Y86406D02*
Y86594D01*
X124760Y88660D02*
X129534D01*
X124728Y94028D02*
X125091Y93664D01*
X124760Y88350D02*
X129540D01*
X124759Y88040D02*
X129441D01*
X124702Y87730D02*
X129498D01*
X124615Y94300D02*
Y97000D01*
X124620Y89660D02*
Y94238D01*
Y87406D02*
Y87594D01*
X124751Y87110D02*
X129449D01*
X124729Y86800D02*
X129471D01*
X124609Y87420D02*
X129591D01*
X124735Y86180D02*
X129465D01*
X124542Y86490D02*
X129658D01*
X124620Y86406D02*
Y86594D01*
X129580Y85406D02*
Y85594D01*
X124711Y85250D02*
X129489D01*
X129580Y84406D02*
Y84594D01*
Y83406D02*
Y83594D01*
X124757Y84940D02*
X129443D01*
X124760Y84010D02*
X129440D01*
X124747Y85870D02*
X129453D01*
X124755Y83080D02*
X129445D01*
X124719Y82770D02*
X129481D01*
X129580Y82406D02*
Y82594D01*
Y81406D02*
Y81594D01*
X124743Y82150D02*
X129457D01*
X124740Y81840D02*
X129460D01*
X124722Y81220D02*
X129478D01*
X129580Y80406D02*
Y80594D01*
X124754Y80910D02*
X129446D01*
X124592Y85560D02*
X129608D01*
X124677Y84320D02*
X129523D01*
X124688Y83700D02*
X129512D01*
X124647Y84630D02*
X129553D01*
X124620Y85406D02*
Y85594D01*
Y84406D02*
Y84594D01*
Y83406D02*
Y83594D01*
X124632Y83390D02*
X129568D01*
X124573Y82460D02*
X129627D01*
X124625Y80600D02*
X129575D01*
X124563Y81530D02*
X129637D01*
X124620Y82406D02*
Y82594D01*
Y81406D02*
Y81594D01*
X130693Y80290D02*
X133100D01*
X130760Y79980D02*
X133100D01*
X130672Y79670D02*
X133100D01*
X130758Y79050D02*
X133100D01*
X130707Y78740D02*
X133100D01*
X130653Y79360D02*
X133100D01*
X130749Y78120D02*
X133100D01*
X130732Y77810D02*
X133100D01*
X130732Y77190D02*
X133100D01*
X130749Y76880D02*
X133100D01*
X130707Y76260D02*
X133100D01*
X132990Y67890D02*
Y96110D01*
X132680Y67580D02*
Y96420D01*
X132370Y67270D02*
Y96730D01*
X130758Y75950D02*
X133100D01*
Y68000D02*
Y96000D01*
X130653Y75640D02*
X133100D01*
X132060Y67000D02*
Y97000D01*
X131750Y67000D02*
Y97000D01*
X131440Y67000D02*
Y93139D01*
X131130Y67000D02*
Y92728D01*
X130820Y67000D02*
Y92640D01*
X130601Y78430D02*
X133100D01*
X130531Y77500D02*
X133100D01*
X130601Y76570D02*
X133100D01*
X130672Y75330D02*
X133100D01*
X124531Y77500D02*
X129669D01*
X130760Y75020D02*
X133100D01*
X130693Y74710D02*
X133100D01*
X130625Y74400D02*
X133100D01*
X130754Y74090D02*
X133100D01*
X130722Y73780D02*
X133100D01*
X130563Y73470D02*
X133100D01*
X130740Y73160D02*
X133100D01*
X130743Y72850D02*
X133100D01*
X130573Y72540D02*
X133100D01*
X130719Y72230D02*
X133100D01*
X130755Y71920D02*
X133100D01*
X130632Y71610D02*
X133100D01*
X130760Y70990D02*
X133100D01*
X130688Y71300D02*
X133100D01*
X130677Y70680D02*
X133100D01*
X130757Y70060D02*
X133100D01*
X130647Y70370D02*
X133100D01*
X132100Y67000D02*
X133100Y68000D01*
X130711Y69750D02*
X133100D01*
X130449Y69440D02*
X133100D01*
X130510Y67000D02*
Y69483D01*
X130200Y67000D02*
Y69348D01*
X129890Y67000D02*
Y69374D01*
X129580Y79406D02*
Y79594D01*
Y78406D02*
Y78594D01*
Y77406D02*
Y77594D01*
Y76406D02*
Y76594D01*
Y75406D02*
Y75594D01*
X129270Y67000D02*
Y97000D01*
X128960Y67000D02*
Y97000D01*
X128650Y67000D02*
Y97000D01*
X128340Y67000D02*
Y97000D01*
X124760Y79980D02*
X129440D01*
X128030Y67000D02*
Y97000D01*
X127720Y67000D02*
Y97000D01*
X127410Y67000D02*
Y97000D01*
X127100Y67000D02*
Y97000D01*
X126790Y67000D02*
Y97000D01*
X126480Y67000D02*
Y97000D01*
X126170Y67000D02*
Y96130D01*
X125240Y67000D02*
Y93339D01*
X124930Y67000D02*
Y93826D01*
X125860Y67000D02*
Y93261D01*
X125550Y67000D02*
Y93192D01*
X124693Y80290D02*
X129507D01*
X124672Y79670D02*
X129528D01*
X124653Y79360D02*
X129547D01*
X124707Y78740D02*
X129493D01*
X124732Y77810D02*
X129468D01*
X124601Y78430D02*
X129599D01*
X124620Y80406D02*
Y80594D01*
X124758Y79050D02*
X129442D01*
X124620Y79406D02*
Y79594D01*
X124749Y78120D02*
X129451D01*
X124620Y78406D02*
Y78594D01*
X124732Y77190D02*
X129468D01*
X124707Y76260D02*
X129493D01*
X124601Y76570D02*
X129599D01*
X124672Y75330D02*
X129528D01*
X124653Y75640D02*
X129547D01*
X124620Y77406D02*
Y77594D01*
X124749Y76880D02*
X129451D01*
X124620Y76406D02*
Y76594D01*
X124758Y75950D02*
X129442D01*
X124620Y75406D02*
Y75594D01*
X129580Y74406D02*
Y74594D01*
X124693Y74710D02*
X129507D01*
X129580Y73406D02*
Y73594D01*
Y72406D02*
Y72594D01*
X124760Y75020D02*
X129440D01*
X124754Y74090D02*
X129446D01*
X124722Y73780D02*
X129478D01*
X124740Y73160D02*
X129460D01*
X124743Y72850D02*
X129457D01*
X129580Y71406D02*
Y71594D01*
Y70406D02*
Y70594D01*
Y67000D02*
Y69594D01*
X124755Y71920D02*
X129445D01*
X124760Y70990D02*
X129440D01*
X124719Y72230D02*
X129481D01*
X124757Y70060D02*
X129443D01*
X124711Y69750D02*
X129489D01*
X124625Y74400D02*
X129575D01*
X124563Y73470D02*
X129637D01*
X124632Y71610D02*
X129568D01*
X124573Y72540D02*
X129627D01*
X124620Y74406D02*
Y74594D01*
Y73406D02*
Y73594D01*
Y72406D02*
Y72594D01*
X124688Y71300D02*
X129512D01*
X124677Y70680D02*
X129523D01*
X124647Y70370D02*
X129553D01*
X124620Y71406D02*
Y71594D01*
Y70406D02*
Y70594D01*
Y67000D02*
Y69594D01*
X123850Y97750D02*
X124600Y97000D01*
X121790Y97750D02*
X123850D01*
X123857Y93310D02*
X125271D01*
X123801Y93000D02*
X130212D01*
X123720Y93620D02*
X125096D01*
X123380Y93804D02*
Y97750D01*
X123690Y93652D02*
Y97750D01*
X123070Y93761D02*
Y97750D01*
X122760Y93398D02*
Y97750D01*
X122450Y92980D02*
Y97750D01*
X124310Y89660D02*
Y97290D01*
X124000Y89660D02*
Y97600D01*
X123320Y92690D02*
X130548D01*
X123010Y92380D02*
X133100D01*
X122830Y92070D02*
X133100D01*
X122280Y92810D02*
X122740Y93270D01*
X122140Y92787D02*
Y97750D01*
X121830Y92554D02*
Y97750D01*
X123690Y89660D02*
Y92848D01*
X122860Y92230D02*
X123320Y92690D01*
X116788Y96720D02*
X124615D01*
X115459Y96100D02*
X124615D01*
X115360Y96410D02*
X124615D01*
X115445Y95790D02*
X124615D01*
X115267Y95480D02*
X124615D01*
X114953Y95170D02*
X124615D01*
X120000Y97650D02*
X123950D01*
X119690Y97340D02*
X124260D01*
X119380Y97030D02*
X124570D01*
X114957Y94860D02*
X124615D01*
X114831Y94550D02*
X124615D01*
X113840Y94240D02*
X124620D01*
X108100Y93930D02*
X124826D01*
X108100Y93620D02*
X122880D01*
X108100Y93310D02*
X122743D01*
X121520Y88509D02*
Y97691D01*
X108100Y93000D02*
X122470D01*
X108100Y92690D02*
X121954D01*
X108100Y92380D02*
X121755D01*
X122571Y91760D02*
X133100D01*
X123440Y89660D02*
X124760D01*
X121100Y88660D02*
X123440D01*
X121702Y87730D02*
X123498D01*
X121415Y87420D02*
X123591D01*
X121660Y88350D02*
X123440D01*
Y88340D02*
Y89660D01*
X121759Y88040D02*
X123441D01*
X121683Y86490D02*
X123658D01*
X121683Y87110D02*
X123449D01*
X121760Y86800D02*
X123471D01*
X121326Y86180D02*
X123465D01*
X108100Y91450D02*
X133100D01*
X108100Y91140D02*
X133100D01*
X108100Y90830D02*
X133100D01*
X108100Y90520D02*
X133100D01*
X108100Y90210D02*
X133100D01*
X108100Y89900D02*
X133100D01*
X108100Y92070D02*
X121770D01*
X108100Y91760D02*
X122029D01*
X108100Y89590D02*
X123440D01*
X108100Y89280D02*
X123440D01*
X108100Y88970D02*
X123440D01*
X108100Y85560D02*
X123608D01*
X108100Y84630D02*
X123553D01*
X108100Y84320D02*
X123523D01*
X108100Y83700D02*
X123512D01*
X108100Y83390D02*
X123568D01*
X108100Y85870D02*
X123453D01*
X108100Y85250D02*
X123489D01*
X108100Y84940D02*
X123443D01*
X108100Y84010D02*
X123440D01*
X108100Y83080D02*
X123445D01*
X120100Y97750D02*
X121310D01*
X119350Y97000D02*
X120100Y97750D01*
X117023Y97000D02*
X119350D01*
X114890Y96790D02*
X116119D01*
X114820Y96720D02*
X116212D01*
X115010Y96664D02*
Y96790D01*
X115320Y96464D02*
Y96790D01*
X114781Y96681D02*
X114890Y96790D01*
X115460Y95925D02*
Y96075D01*
X121210Y88651D02*
Y97750D01*
X120900Y88629D02*
Y97750D01*
X120590Y88419D02*
Y97750D01*
X120280Y88385D02*
Y97750D01*
X119970Y88385D02*
Y97620D01*
X119660Y88385D02*
Y97310D01*
X119350Y88487D02*
Y97000D01*
X119040Y88484D02*
Y97000D01*
X118730Y88198D02*
Y97000D01*
X114960Y94925D02*
Y95075D01*
X109100Y96000D02*
X111240D01*
X108890Y95790D02*
X111255D01*
X110980Y95517D02*
Y96000D01*
X108100Y95000D02*
X109100Y96000D01*
X108580Y95480D02*
X110944D01*
X108270Y95170D02*
X110797D01*
X113600Y94000D02*
X114015Y94415D01*
X111910Y87220D02*
Y94502D01*
X110790Y94925D02*
Y95075D01*
X108100Y94860D02*
X110793D01*
X108100Y94550D02*
X110919D01*
X119534Y88385D02*
X120564D01*
X119534Y87615D02*
X120564D01*
X121520Y87309D02*
Y87491D01*
X120590Y87219D02*
Y87581D01*
X120280Y87185D02*
Y87615D01*
X113460Y87306D02*
Y94000D01*
X119350Y87287D02*
Y87513D01*
X119040Y87284D02*
Y87516D01*
X119970Y87185D02*
Y87615D01*
X119660Y87185D02*
Y87615D01*
X119534Y87185D02*
X120564D01*
X119534Y86415D02*
X120564D01*
X113805Y87110D02*
X118795D01*
X118730Y86998D02*
Y87802D01*
X113770Y87151D02*
Y94170D01*
X113910Y86800D02*
X118690D01*
X113805Y86490D02*
X118795D01*
X113100Y94000D02*
X113600D01*
X108100Y88660D02*
X121100D01*
X108100Y88350D02*
X118829D01*
X108100Y88040D02*
X118692D01*
X108100Y87730D02*
X118767D01*
X108100Y87420D02*
X120785D01*
X112685Y94415D02*
X113100Y94000D01*
X112840Y87185D02*
Y94260D01*
X112220Y87310D02*
Y94329D01*
X113150Y87245D02*
Y94000D01*
X108100Y94240D02*
X112860D01*
X112534Y87185D02*
X113066D01*
X112534Y86415D02*
X113066D01*
X108100Y86180D02*
X120874D01*
X112530Y87189D02*
Y94342D01*
X108100Y87110D02*
X111795D01*
X108100Y86800D02*
X111690D01*
X108100Y86490D02*
X111795D01*
X108100Y82770D02*
X123481D01*
X108100Y82460D02*
X123627D01*
X108100Y81530D02*
X123637D01*
X108100Y81220D02*
X123478D01*
X108100Y80600D02*
X123575D01*
X108100Y79670D02*
X123528D01*
X108100Y79360D02*
X123547D01*
X108100Y82150D02*
X123457D01*
X108100Y81840D02*
X123460D01*
X108100Y80910D02*
X123446D01*
X108100Y80290D02*
X123507D01*
X108100Y79980D02*
X123440D01*
X108100Y78740D02*
X123493D01*
X108100Y78430D02*
X123599D01*
X108100Y77500D02*
X123669D01*
X108100Y76570D02*
X123599D01*
X108100Y76260D02*
X123493D01*
X108100Y79050D02*
X123442D01*
X108100Y78120D02*
X123451D01*
X108100Y77810D02*
X123468D01*
X108100Y77190D02*
X123468D01*
X108100Y76880D02*
X123451D01*
X121625Y74400D02*
X123575D01*
X121722Y73780D02*
X123478D01*
X121493Y73470D02*
X123637D01*
X124449Y69440D02*
X129751D01*
X124310Y67000D02*
Y69374D01*
X114656Y67580D02*
X132680D01*
X114627Y67270D02*
X132370D01*
X124000Y67000D02*
Y69348D01*
X123690Y67000D02*
Y69483D01*
X108100Y75640D02*
X123547D01*
X108100Y75330D02*
X123528D01*
X108100Y74710D02*
X123507D01*
X108100Y72540D02*
X123627D01*
X108100Y71610D02*
X123568D01*
X108100Y71300D02*
X123512D01*
X108100Y75950D02*
X123442D01*
X108100Y75020D02*
X123440D01*
X108100Y73160D02*
X123460D01*
X108100Y72850D02*
X123457D01*
X108100Y72230D02*
X123481D01*
X108780Y68820D02*
X133100D01*
X109090Y68510D02*
X133100D01*
X108470Y69130D02*
X133100D01*
X114560Y67890D02*
X132990D01*
X114258Y68200D02*
X133100D01*
X110747Y70370D02*
X123553D01*
X110811Y69750D02*
X123489D01*
X108100Y70680D02*
X123523D01*
X114487Y67000D02*
X132100D01*
X110549Y69440D02*
X123751D01*
X123380Y67000D02*
Y92696D01*
X123070Y67000D02*
Y92440D01*
X122760Y67000D02*
Y91931D01*
X122450Y67000D02*
Y91710D01*
X122140Y67000D02*
Y91713D01*
X121830Y67000D02*
Y91946D01*
X120280Y67000D02*
Y86415D01*
X119970Y67000D02*
Y86415D01*
X118730Y67000D02*
Y86602D01*
X120590Y74419D02*
Y86381D01*
X119660Y67000D02*
Y86415D01*
X118420Y67000D02*
Y97000D01*
X118110Y67000D02*
Y97000D01*
X117800Y67000D02*
Y97000D01*
X117490Y67000D02*
Y97000D01*
X117180Y67000D02*
Y97000D01*
X116870Y67000D02*
Y96780D01*
X116250Y67000D02*
Y96699D01*
X115940Y67000D02*
Y96790D01*
X115630Y67000D02*
Y96790D01*
X116560Y67000D02*
Y96643D01*
X115320Y67000D02*
Y95536D01*
X110360Y70640D02*
Y96000D01*
X110670Y70463D02*
Y96000D01*
X110050Y70643D02*
Y96000D01*
X112530Y68500D02*
Y86411D01*
X111910Y68500D02*
Y86380D01*
X111600Y68500D02*
Y94349D01*
X109740Y70473D02*
Y96000D01*
X108810Y68790D02*
Y95710D01*
X108500Y69100D02*
Y95400D01*
X108190Y69410D02*
Y95090D01*
X108100Y69500D02*
Y95000D01*
X115010Y67000D02*
Y95336D01*
X114700Y67000D02*
Y94425D01*
X114080Y68277D02*
Y94378D01*
X114390Y68104D02*
Y94316D01*
X113770Y68306D02*
Y86449D01*
X110980Y68500D02*
Y94483D01*
X109430Y68500D02*
Y96000D01*
X109120Y68500D02*
Y96000D01*
X112840Y68260D02*
Y86415D01*
X111290Y68500D02*
Y94325D01*
X121210Y74651D02*
Y86149D01*
X121520Y74509D02*
Y86291D01*
X120900Y74629D02*
Y86171D01*
X121754Y74090D02*
X123446D01*
X110857Y70060D02*
X123443D01*
X113460Y68210D02*
Y86294D01*
X113150Y67950D02*
Y86355D01*
X112220Y68500D02*
Y86290D01*
X112900Y68200D02*
X113442D01*
X112600Y68500D02*
X113166Y67934D01*
X121520Y67000D02*
Y73491D01*
X120590Y67000D02*
Y73581D01*
X119350Y67000D02*
Y86313D01*
X121210Y67000D02*
Y73349D01*
X120900Y67000D02*
Y73371D01*
X119040Y67000D02*
Y86316D01*
X108100Y74400D02*
X120575D01*
X108100Y74090D02*
X120446D01*
X108100Y73780D02*
X120478D01*
X108100Y73470D02*
X120707D01*
X108100Y71920D02*
X123445D01*
X108100Y70990D02*
X123440D01*
X108100Y70370D02*
X109653D01*
X108100Y70060D02*
X109543D01*
X110670Y68500D02*
Y69537D01*
X110360Y68500D02*
Y69360D01*
X109100Y68500D02*
X112600D01*
X108100Y69750D02*
X109589D01*
X109740Y68500D02*
Y69527D01*
X108100Y69500D02*
X109100Y68500D01*
X110050D02*
Y69357D01*
X108160Y69440D02*
X109851D01*
D28*
X112850Y95750D02*
Y96000D01*
Y95750D02*
X113350Y95250D01*
X112600Y96800D02*
X112850Y96000D01*
D29*
X134500Y80450D02*
D03*
M02*
